STARTFONT 2.1
COMMENT
COMMENT Converted from OpenType font "Q:\font stuff\winfont\consola.ttf" by "otf2bdf 3.0".
COMMENT
FONT -FreeType-Consolas-Medium-R-Normal--24-240-72-72-P-107-ISO10646-1
SIZE 24 72 72
FONTBOUNDINGBOX 25 30 -8 -7
STARTPROPERTIES 19
FOUNDRY "FreeType"
FAMILY_NAME "Consolas"
WEIGHT_NAME "Medium"
SLANT "R"
SETWIDTH_NAME "Normal"
ADD_STYLE_NAME ""
PIXEL_SIZE 16
POINT_SIZE 240
RESOLUTION_X 72
RESOLUTION_Y 72
SPACING "P"
AVERAGE_WIDTH 107
CHARSET_REGISTRY "ISO10646"
CHARSET_ENCODING "1"
FONT_ASCENT 17
FONT_DESCENT 5
COPYRIGHT "© 2008 Microsoft Corporation. All Rights Reserved."
_OTF_FONTFILE "Q:\font stuff\winfont\consola.ttf"
_OTF_PSNAME "Consolas"
ENDPROPERTIES
CHARS 2214
STARTCHAR 000D
ENCODING 13
SWIDTH 541 0
DWIDTH 13 0
BBX 0 0 0 0
BITMAP
ENDCHAR
STARTCHAR 0020
ENCODING 32
SWIDTH 541 0
DWIDTH 13 0
BBX 0 0 0 0
BITMAP
ENDCHAR
STARTCHAR 0021
ENCODING 33
SWIDTH 541 0
DWIDTH 13 0
BBX 3 17 5 0
BITMAP
C0
C0
C0
C0
C0
C0
C0
C0
C0
C0
C0
C0
00
00
E0
E0
E0
ENDCHAR
STARTCHAR 0022
ENCODING 34
SWIDTH 541 0
DWIDTH 13 0
BBX 8 6 3 11
BITMAP
E7
E7
E7
E7
E7
E7
ENDCHAR
STARTCHAR 0023
ENCODING 35
SWIDTH 541 0
DWIDTH 13 0
BBX 12 15 1 0
BITMAP
0CC0
0CC0
0CC0
0CC0
7FF0
7FF0
1980
1980
1980
FFE0
FFE0
3B00
3300
3300
3300
ENDCHAR
STARTCHAR 0024
ENCODING 36
SWIDTH 541 0
DWIDTH 13 0
BBX 10 21 1 -3
BITMAP
0600
0600
1F80
7F80
E600
C400
C400
EC00
7C00
3E00
0F00
0F80
0CC0
08C0
08C0
99C0
FF80
7E00
1800
1800
1800
ENDCHAR
STARTCHAR 0025
ENCODING 37
SWIDTH 541 0
DWIDTH 13 0
BBX 13 17 0 0
BITMAP
3C18
7E30
C660
C660
C6C0
FD80
7980
0300
0600
0600
0CF0
0DF8
1B18
3318
3318
63F0
C1E0
ENDCHAR
STARTCHAR 0026
ENCODING 38
SWIDTH 541 0
DWIDTH 13 0
BBX 12 17 1 0
BITMAP
1E00
3F00
7380
6180
6180
6380
7700
3E00
3800
7C60
EE60
C760
C3C0
C1C0
E3C0
7FE0
3E70
ENDCHAR
STARTCHAR 0027
ENCODING 39
SWIDTH 541 0
DWIDTH 13 0
BBX 3 6 5 11
BITMAP
E0
E0
E0
E0
E0
E0
ENDCHAR
STARTCHAR 0028
ENCODING 40
SWIDTH 541 0
DWIDTH 13 0
BBX 7 22 4 -5
BITMAP
04
0E
1C
38
30
60
60
60
C0
C0
C0
C0
C0
C0
E0
60
60
30
38
1C
0E
04
ENDCHAR
STARTCHAR 0029
ENCODING 41
SWIDTH 541 0
DWIDTH 13 0
BBX 7 22 3 -5
BITMAP
40
E0
70
30
18
0C
0C
0C
06
06
06
06
06
06
0C
0C
0C
18
38
70
E0
40
ENDCHAR
STARTCHAR 002A
ENCODING 42
SWIDTH 541 0
DWIDTH 13 0
BBX 10 10 2 7
BITMAP
0C00
0C00
4C80
EDC0
1F00
1E00
EDC0
CCC0
0C00
0C00
ENDCHAR
STARTCHAR 002B
ENCODING 43
SWIDTH 541 0
DWIDTH 13 0
BBX 12 12 1 1
BITMAP
0600
0600
0600
0600
0600
FFF0
FFF0
0600
0600
0600
0600
0600
ENDCHAR
STARTCHAR 002C
ENCODING 44
SWIDTH 541 0
DWIDTH 13 0
BBX 6 8 3 -4
BITMAP
38
3C
3C
1C
1C
38
F0
E0
ENDCHAR
STARTCHAR 002D
ENCODING 45
SWIDTH 541 0
DWIDTH 13 0
BBX 7 2 3 5
BITMAP
FE
FE
ENDCHAR
STARTCHAR 002E
ENCODING 46
SWIDTH 541 0
DWIDTH 13 0
BBX 4 4 5 0
BITMAP
60
F0
F0
60
ENDCHAR
STARTCHAR 002F
ENCODING 47
SWIDTH 541 0
DWIDTH 13 0
BBX 10 20 1 -3
BITMAP
00C0
0180
0180
0180
0300
0300
0600
0600
0600
0C00
0C00
1800
1800
1800
3000
3000
6000
6000
6000
C000
ENDCHAR
STARTCHAR 0030
ENCODING 48
SWIDTH 541 0
DWIDTH 13 0
BBX 11 15 1 0
BITMAP
1F00
3F80
71C0
60C0
C0E0
C1E0
C760
CE60
DC60
F060
E060
60C0
71C0
3F80
1F00
ENDCHAR
STARTCHAR 0031
ENCODING 49
SWIDTH 541 0
DWIDTH 13 0
BBX 10 15 2 0
BITMAP
1C00
7C00
EC00
4C00
0C00
0C00
0C00
0C00
0C00
0C00
0C00
0C00
0C00
FFC0
FFC0
ENDCHAR
STARTCHAR 0032
ENCODING 50
SWIDTH 541 0
DWIDTH 13 0
BBX 10 15 2 0
BITMAP
3E00
7F00
E380
4180
0180
0180
0380
0300
0600
0C00
1800
3000
7000
FFC0
FFC0
ENDCHAR
STARTCHAR 0033
ENCODING 51
SWIDTH 541 0
DWIDTH 13 0
BBX 9 15 2 0
BITMAP
7C00
FE00
8700
0300
0300
0600
3C00
3F00
0380
0180
0180
0180
0300
FF00
FC00
ENDCHAR
STARTCHAR 0034
ENCODING 52
SWIDTH 541 0
DWIDTH 13 0
BBX 12 15 1 0
BITMAP
0380
0780
0780
0D80
1980
1980
3180
3180
6180
C180
FFF0
FFF0
0180
0180
0180
ENDCHAR
STARTCHAR 0035
ENCODING 53
SWIDTH 541 0
DWIDTH 13 0
BBX 9 15 2 0
BITMAP
FF00
FF00
C000
C000
C000
C000
FC00
FF00
0380
0180
0180
0180
0300
FE00
FC00
ENDCHAR
STARTCHAR 0036
ENCODING 54
SWIDTH 541 0
DWIDTH 13 0
BBX 10 15 1 0
BITMAP
0F80
3F80
3800
6000
4000
C000
DF00
FF80
E1C0
C0C0
C0C0
C0C0
6180
7F80
1E00
ENDCHAR
STARTCHAR 0037
ENCODING 55
SWIDTH 541 0
DWIDTH 13 0
BBX 10 15 1 0
BITMAP
FFC0
FFC0
00C0
0180
0180
0300
0300
0600
0600
0C00
0C00
1800
1800
3800
3000
ENDCHAR
STARTCHAR 0038
ENCODING 56
SWIDTH 541 0
DWIDTH 13 0
BBX 10 15 1 0
BITMAP
3F00
7F80
E1C0
C0C0
C0C0
7380
3F00
3F00
7380
E1C0
C0C0
C0C0
E1C0
7F80
3F00
ENDCHAR
STARTCHAR 0039
ENCODING 57
SWIDTH 541 0
DWIDTH 13 0
BBX 10 15 1 0
BITMAP
1E00
7F80
6180
C0C0
C0C0
C0C0
E1C0
7FC0
3EC0
00C0
0180
0180
0700
7F00
7C00
ENDCHAR
STARTCHAR 003A
ENCODING 58
SWIDTH 541 0
DWIDTH 13 0
BBX 3 12 5 0
BITMAP
40
E0
E0
40
00
00
00
00
40
E0
E0
40
ENDCHAR
STARTCHAR 003B
ENCODING 59
SWIDTH 541 0
DWIDTH 13 0
BBX 6 16 3 -4
BITMAP
10
38
38
10
00
00
00
00
38
3C
3C
1C
1C
38
F0
E0
ENDCHAR
STARTCHAR 003C
ENCODING 60
SWIDTH 541 0
DWIDTH 13 0
BBX 9 13 2 0
BITMAP
0100
0380
0700
0C00
3800
7000
E000
7000
3800
0C00
0700
0380
0100
ENDCHAR
STARTCHAR 003D
ENCODING 61
SWIDTH 541 0
DWIDTH 13 0
BBX 10 6 2 4
BITMAP
FFC0
FFC0
0000
0000
FFC0
FFC0
ENDCHAR
STARTCHAR 003E
ENCODING 62
SWIDTH 541 0
DWIDTH 13 0
BBX 9 13 2 0
BITMAP
4000
E000
7000
1800
0E00
0700
0380
0700
0E00
1800
7000
E000
4000
ENDCHAR
STARTCHAR 003F
ENCODING 63
SWIDTH 541 0
DWIDTH 13 0
BBX 7 17 4 0
BITMAP
E0
F8
1C
0C
06
06
06
0E
3C
38
30
30
00
00
70
70
70
ENDCHAR
STARTCHAR 0040
ENCODING 64
SWIDTH 541 0
DWIDTH 13 0
BBX 13 22 0 -5
BITMAP
07C0
0C60
1830
3030
3018
6018
63D8
67D8
C6D8
CCD8
CC98
CD98
CD98
CD98
CDB0
CFF0
C6E0
4000
6000
6000
3040
0F80
ENDCHAR
STARTCHAR 0041
ENCODING 65
SWIDTH 541 0
DWIDTH 13 0
BBX 12 15 1 0
BITMAP
0E00
0B00
1B00
1B00
1980
3180
3180
30C0
30C0
60C0
7FE0
7FE0
C070
C030
C030
ENDCHAR
STARTCHAR 0042
ENCODING 66
SWIDTH 541 0
DWIDTH 13 0
BBX 10 15 2 0
BITMAP
FE00
FF00
C380
C180
C180
C300
FE00
FF80
C180
C0C0
C0C0
C0C0
C180
FF80
FE00
ENDCHAR
STARTCHAR 0043
ENCODING 67
SWIDTH 541 0
DWIDTH 13 0
BBX 10 15 1 0
BITMAP
0F80
3FC0
7040
6000
E000
C000
C000
C000
C000
C000
C000
6000
7040
3FC0
0F80
ENDCHAR
STARTCHAR 0044
ENCODING 68
SWIDTH 541 0
DWIDTH 13 0
BBX 11 15 1 0
BITMAP
FE00
FF80
C1C0
C0C0
C060
C060
C060
C060
C060
C060
C0E0
C0C0
C3C0
FF80
FE00
ENDCHAR
STARTCHAR 0045
ENCODING 69
SWIDTH 541 0
DWIDTH 13 0
BBX 9 15 2 0
BITMAP
FF80
FF80
C000
C000
C000
C000
FF80
FF80
C000
C000
C000
C000
C000
FF80
FF80
ENDCHAR
STARTCHAR 0046
ENCODING 70
SWIDTH 541 0
DWIDTH 13 0
BBX 9 15 2 0
BITMAP
FF80
FF80
C000
C000
C000
C000
FF80
FF80
C000
C000
C000
C000
C000
C000
C000
ENDCHAR
STARTCHAR 0047
ENCODING 71
SWIDTH 541 0
DWIDTH 13 0
BBX 11 15 1 0
BITMAP
0FC0
1FE0
3820
6000
E000
C000
C3E0
C3E0
C060
C060
E060
6060
7860
3FE0
0FC0
ENDCHAR
STARTCHAR 0048
ENCODING 72
SWIDTH 541 0
DWIDTH 13 0
BBX 11 15 1 0
BITMAP
C060
C060
C060
C060
C060
C060
FFE0
FFE0
C060
C060
C060
C060
C060
C060
C060
ENDCHAR
STARTCHAR 0049
ENCODING 73
SWIDTH 541 0
DWIDTH 13 0
BBX 10 15 2 0
BITMAP
FFC0
FFC0
0C00
0C00
0C00
0C00
0C00
0C00
0C00
0C00
0C00
0C00
0C00
FFC0
FFC0
ENDCHAR
STARTCHAR 004A
ENCODING 74
SWIDTH 541 0
DWIDTH 13 0
BBX 8 15 2 0
BITMAP
FF
FF
03
03
03
03
03
03
03
03
03
03
87
FE
7C
ENDCHAR
STARTCHAR 004B
ENCODING 75
SWIDTH 541 0
DWIDTH 13 0
BBX 10 15 2 0
BITMAP
C0C0
C180
C300
C600
CE00
CC00
D800
F000
D800
CC00
CE00
C700
C300
C180
C0C0
ENDCHAR
STARTCHAR 004C
ENCODING 76
SWIDTH 541 0
DWIDTH 13 0
BBX 9 15 3 0
BITMAP
C000
C000
C000
C000
C000
C000
C000
C000
C000
C000
C000
C000
C000
FF80
FF80
ENDCHAR
STARTCHAR 004D
ENCODING 77
SWIDTH 541 0
DWIDTH 13 0
BBX 12 15 1 0
BITMAP
E0E0
E0E0
E0E0
F1E0
D160
DB60
DB60
CA60
CE60
C460
C060
C060
C070
C070
C070
ENDCHAR
STARTCHAR 004E
ENCODING 78
SWIDTH 541 0
DWIDTH 13 0
BBX 11 15 1 0
BITMAP
E060
F060
F060
D060
D860
C860
CC60
C460
C660
C660
C360
C360
C1E0
C1E0
C0E0
ENDCHAR
STARTCHAR 004F
ENCODING 79
SWIDTH 541 0
DWIDTH 13 0
BBX 12 15 1 0
BITMAP
0F80
3FC0
70E0
6060
E030
C030
C030
C030
C030
C030
C070
6060
70E0
3FC0
1F00
ENDCHAR
STARTCHAR 0050
ENCODING 80
SWIDTH 541 0
DWIDTH 13 0
BBX 10 15 2 0
BITMAP
FE00
FF80
C180
C0C0
C0C0
C0C0
C0C0
C180
FF00
FE00
C000
C000
C000
C000
C000
ENDCHAR
STARTCHAR 0051
ENCODING 81
SWIDTH 541 0
DWIDTH 13 0
BBX 13 19 1 -4
BITMAP
0F80
3FC0
70E0
6060
C030
C030
C030
C030
C030
C030
C070
6060
70E0
3FC0
1F00
0600
0718
03F8
01E0
ENDCHAR
STARTCHAR 0052
ENCODING 82
SWIDTH 541 0
DWIDTH 13 0
BBX 10 15 2 0
BITMAP
FE00
FF00
C380
C180
C180
C180
C300
FF00
FC00
C600
C700
C300
C380
C180
C1C0
ENDCHAR
STARTCHAR 0053
ENCODING 83
SWIDTH 541 0
DWIDTH 13 0
BBX 10 15 1 0
BITMAP
1F00
7F80
E080
C000
C000
E000
7800
1F00
0780
01C0
00C0
00C0
81C0
FF80
7E00
ENDCHAR
STARTCHAR 0054
ENCODING 84
SWIDTH 541 0
DWIDTH 13 0
BBX 12 15 1 0
BITMAP
FFF0
FFF0
0600
0600
0600
0600
0600
0600
0600
0600
0600
0600
0600
0600
0600
ENDCHAR
STARTCHAR 0055
ENCODING 85
SWIDTH 541 0
DWIDTH 13 0
BBX 11 15 1 0
BITMAP
C060
C060
C060
C060
C060
C060
C060
C060
C060
C060
C060
C060
E0C0
7FC0
1F00
ENDCHAR
STARTCHAR 0056
ENCODING 86
SWIDTH 541 0
DWIDTH 13 0
BBX 13 15 0 0
BITMAP
C018
C018
E038
6030
6030
3060
3060
3860
18C0
18C0
1DC0
0D80
0D80
0F00
0700
ENDCHAR
STARTCHAR 0057
ENCODING 87
SWIDTH 541 0
DWIDTH 13 0
BBX 11 15 1 0
BITMAP
C060
C060
C060
C060
C060
C460
C660
CA60
CA60
CA60
6B40
7BC0
7BC0
71C0
71C0
ENDCHAR
STARTCHAR 0058
ENCODING 88
SWIDTH 541 0
DWIDTH 13 0
BBX 13 15 0 0
BITMAP
7038
3030
1860
1CE0
0DC0
0F80
0780
0700
0780
0DC0
1CC0
38E0
3060
7070
E038
ENDCHAR
STARTCHAR 0059
ENCODING 89
SWIDTH 541 0
DWIDTH 13 0
BBX 14 15 -1 0
BITMAP
C00C
6018
3038
3030
1860
1C60
0CC0
07C0
0780
0300
0300
0300
0300
0300
0300
ENDCHAR
STARTCHAR 005A
ENCODING 90
SWIDTH 541 0
DWIDTH 13 0
BBX 11 15 1 0
BITMAP
FFC0
FFC0
0180
0380
0300
0600
0600
0C00
1800
1800
3000
7000
6000
FFE0
FFE0
ENDCHAR
STARTCHAR 005B
ENCODING 91
SWIDTH 541 0
DWIDTH 13 0
BBX 6 22 4 -5
BITMAP
FC
FC
C0
C0
C0
C0
C0
C0
C0
C0
C0
C0
C0
C0
C0
C0
C0
C0
C0
C0
FC
FC
ENDCHAR
STARTCHAR 005C
ENCODING 92
SWIDTH 541 0
DWIDTH 13 0
BBX 10 20 2 -3
BITMAP
C000
6000
6000
6000
3000
3000
1800
1800
1800
0C00
0C00
0600
0600
0600
0300
0300
0180
0180
0180
00C0
ENDCHAR
STARTCHAR 005D
ENCODING 93
SWIDTH 541 0
DWIDTH 13 0
BBX 6 22 3 -5
BITMAP
FC
FC
0C
0C
0C
0C
0C
0C
0C
0C
0C
0C
0C
0C
0C
0C
0C
0C
0C
0C
FC
FC
ENDCHAR
STARTCHAR 005E
ENCODING 94
SWIDTH 541 0
DWIDTH 13 0
BBX 9 7 2 8
BITMAP
1C00
1C00
3600
2200
6300
C180
C180
ENDCHAR
STARTCHAR 005F
ENCODING 95
SWIDTH 541 0
DWIDTH 13 0
BBX 13 2 0 -5
BITMAP
FFF8
FFF8
ENDCHAR
STARTCHAR 0060
ENCODING 96
SWIDTH 541 0
DWIDTH 13 0
BBX 5 3 3 12
BITMAP
E0
70
38
ENDCHAR
STARTCHAR 0061
ENCODING 97
SWIDTH 541 0
DWIDTH 13 0
BBX 10 12 2 0
BITMAP
3F00
7F80
41C0
00C0
00C0
3FC0
7FC0
E0C0
C0C0
C3C0
FFC0
3CC0
ENDCHAR
STARTCHAR 0062
ENCODING 98
SWIDTH 541 0
DWIDTH 13 0
BBX 10 17 2 0
BITMAP
C000
C000
C000
C000
C000
CF00
FF80
F180
E0C0
C0C0
C0C0
C0C0
C0C0
C1C0
C380
FF00
7E00
ENDCHAR
STARTCHAR 0063
ENCODING 99
SWIDTH 541 0
DWIDTH 13 0
BBX 9 12 2 0
BITMAP
1F00
3F80
7080
E000
C000
C000
C000
C000
E000
7080
7F80
1F00
ENDCHAR
STARTCHAR 0064
ENCODING 100
SWIDTH 541 0
DWIDTH 13 0
BBX 10 17 1 0
BITMAP
00C0
00C0
00C0
00C0
00C0
1FC0
3FC0
70C0
E0C0
C0C0
C0C0
C0C0
C0C0
C1C0
63C0
7EC0
3CC0
ENDCHAR
STARTCHAR 0065
ENCODING 101
SWIDTH 541 0
DWIDTH 13 0
BBX 10 12 1 0
BITMAP
1E00
3F80
6180
C0C0
C0C0
FFC0
FFC0
C000
C000
6080
7F80
1F00
ENDCHAR
STARTCHAR 0066
ENCODING 102
SWIDTH 541 0
DWIDTH 13 0
BBX 11 17 1 0
BITMAP
03E0
07E0
0E00
0C00
0C00
0C00
FFC0
FFC0
0C00
0C00
0C00
0C00
0C00
0C00
0C00
0C00
0C00
ENDCHAR
STARTCHAR 0067
ENCODING 103
SWIDTH 541 0
DWIDTH 13 0
BBX 11 17 1 -5
BITMAP
1FE0
3FE0
71C0
60C0
60C0
71C0
3F80
7F00
C000
C000
7F80
7FE0
C060
C060
E0E0
FFC0
3F00
ENDCHAR
STARTCHAR 0068
ENCODING 104
SWIDTH 541 0
DWIDTH 13 0
BBX 9 17 2 0
BITMAP
C000
C000
C000
C000
C000
CE00
FF00
F380
E180
C180
C180
C180
C180
C180
C180
C180
C180
ENDCHAR
STARTCHAR 0069
ENCODING 105
SWIDTH 541 0
DWIDTH 13 0
BBX 9 17 2 0
BITMAP
1C00
1C00
1C00
0000
0000
FC00
FC00
0C00
0C00
0C00
0C00
0C00
0C00
0C00
0C00
FF80
FF80
ENDCHAR
STARTCHAR 006A
ENCODING 106
SWIDTH 541 0
DWIDTH 13 0
BBX 8 22 2 -5
BITMAP
07
07
07
00
00
FF
FF
03
03
03
03
03
03
03
03
03
03
03
03
86
FE
78
ENDCHAR
STARTCHAR 006B
ENCODING 107
SWIDTH 541 0
DWIDTH 13 0
BBX 10 17 2 0
BITMAP
C000
C000
C000
C000
C000
C1C0
C380
C700
CE00
D800
F000
D800
CC00
C600
C300
C180
C0C0
ENDCHAR
STARTCHAR 006C
ENCODING 108
SWIDTH 541 0
DWIDTH 13 0
BBX 9 17 2 0
BITMAP
FC00
FC00
0C00
0C00
0C00
0C00
0C00
0C00
0C00
0C00
0C00
0C00
0C00
0C00
0C00
FF80
FF80
ENDCHAR
STARTCHAR 006D
ENCODING 109
SWIDTH 541 0
DWIDTH 13 0
BBX 12 12 1 0
BITMAP
DCE0
FFF0
E730
E730
C630
C630
C630
C630
C630
C630
C630
C630
ENDCHAR
STARTCHAR 006E
ENCODING 110
SWIDTH 541 0
DWIDTH 13 0
BBX 9 12 2 0
BITMAP
CE00
FF00
F380
E180
C180
C180
C180
C180
C180
C180
C180
C180
ENDCHAR
STARTCHAR 006F
ENCODING 111
SWIDTH 541 0
DWIDTH 13 0
BBX 11 12 1 0
BITMAP
1F00
3FC0
71C0
E0E0
C060
C060
C060
C060
E0E0
71C0
7F80
1F00
ENDCHAR
STARTCHAR 0070
ENCODING 112
SWIDTH 541 0
DWIDTH 13 0
BBX 10 17 2 -5
BITMAP
CF00
FF80
F180
E0C0
C0C0
C0C0
C0C0
C0C0
C1C0
C380
FF00
FE00
C000
C000
C000
C000
C000
ENDCHAR
STARTCHAR 0071
ENCODING 113
SWIDTH 541 0
DWIDTH 13 0
BBX 10 17 1 -5
BITMAP
1FC0
3FC0
70C0
E0C0
C0C0
C0C0
C0C0
C0C0
C1C0
63C0
7FC0
3CC0
00C0
00C0
00C0
00C0
00C0
ENDCHAR
STARTCHAR 0072
ENCODING 114
SWIDTH 541 0
DWIDTH 13 0
BBX 10 12 2 0
BITMAP
CF00
DF80
F1C0
E0C0
C0C0
C000
C000
C000
C000
C000
C000
C000
ENDCHAR
STARTCHAR 0073
ENCODING 115
SWIDTH 541 0
DWIDTH 13 0
BBX 9 12 2 0
BITMAP
3E00
7F00
C100
C000
E000
7C00
1F00
0380
0180
8180
FF00
7E00
ENDCHAR
STARTCHAR 0074
ENCODING 116
SWIDTH 541 0
DWIDTH 13 0
BBX 11 16 1 0
BITMAP
0800
1800
1800
1800
FFE0
FFE0
1800
1800
1800
1800
1800
1800
1C00
0C00
0FE0
07E0
ENDCHAR
STARTCHAR 0075
ENCODING 117
SWIDTH 541 0
DWIDTH 13 0
BBX 9 12 2 0
BITMAP
C180
C180
C180
C180
C180
C180
C180
C180
C380
E780
7F80
3980
ENDCHAR
STARTCHAR 0076
ENCODING 118
SWIDTH 541 0
DWIDTH 13 0
BBX 11 12 1 0
BITMAP
C060
C060
E0C0
60C0
60C0
3180
3180
3100
1B00
1B00
0A00
0E00
ENDCHAR
STARTCHAR 0077
ENCODING 119
SWIDTH 541 0
DWIDTH 13 0
BBX 11 12 1 0
BITMAP
C060
C060
C060
C460
CE60
CA60
CA60
DB60
5B40
5140
71C0
71C0
ENDCHAR
STARTCHAR 0078
ENCODING 120
SWIDTH 541 0
DWIDTH 13 0
BBX 11 12 1 0
BITMAP
E0E0
71C0
3180
3B80
1F00
0E00
0E00
1B00
3B80
3180
71C0
E0E0
ENDCHAR
STARTCHAR 0079
ENCODING 121
SWIDTH 541 0
DWIDTH 13 0
BBX 12 17 0 -5
BITMAP
6030
6030
3060
3060
3060
18C0
18C0
0D80
0D80
0D00
0700
0700
0600
0E00
1C00
F800
F000
ENDCHAR
STARTCHAR 007A
ENCODING 122
SWIDTH 541 0
DWIDTH 13 0
BBX 9 12 2 0
BITMAP
FF80
FF80
0300
0600
0600
0C00
1800
3000
3000
6000
FF80
FF80
ENDCHAR
STARTCHAR 007B
ENCODING 123
SWIDTH 541 0
DWIDTH 13 0
BBX 8 22 2 -5
BITMAP
07
0F
1C
18
18
18
18
18
38
F0
F0
38
18
18
18
18
18
18
18
1C
0F
07
ENDCHAR
STARTCHAR 007C
ENCODING 124
SWIDTH 541 0
DWIDTH 13 0
BBX 2 24 6 -5
BITMAP
C0
C0
C0
C0
C0
C0
C0
C0
C0
C0
C0
C0
C0
C0
C0
C0
C0
C0
C0
C0
C0
C0
C0
C0
ENDCHAR
STARTCHAR 007D
ENCODING 125
SWIDTH 541 0
DWIDTH 13 0
BBX 8 22 3 -5
BITMAP
E0
F0
38
18
18
18
18
18
1C
0F
0F
1C
18
18
18
18
18
18
18
38
F0
E0
ENDCHAR
STARTCHAR 007E
ENCODING 126
SWIDTH 541 0
DWIDTH 13 0
BBX 12 5 1 4
BITMAP
3800
7C30
C630
C3E0
01C0
ENDCHAR
STARTCHAR 00A0
ENCODING 160
SWIDTH 541 0
DWIDTH 13 0
BBX 0 0 0 0
BITMAP
ENDCHAR
STARTCHAR 00A1
ENCODING 161
SWIDTH 541 0
DWIDTH 13 0
BBX 3 17 5 -5
BITMAP
E0
E0
E0
00
00
C0
C0
C0
C0
C0
C0
C0
C0
C0
C0
C0
C0
ENDCHAR
STARTCHAR 00A2
ENCODING 162
SWIDTH 541 0
DWIDTH 13 0
BBX 9 21 1 -3
BITMAP
0300
0300
0300
0200
1F00
3F80
7680
E600
C600
C600
C400
CC00
CC00
6C80
7F80
1F00
0800
0800
1800
1800
1800
ENDCHAR
STARTCHAR 00A3
ENCODING 163
SWIDTH 541 0
DWIDTH 13 0
BBX 11 15 1 0
BITMAP
0F80
1FE0
3840
3000
3000
3000
FF80
FF80
3000
3000
3000
3000
3000
FFE0
FFE0
ENDCHAR
STARTCHAR 00A4
ENCODING 164
SWIDTH 541 0
DWIDTH 13 0
BBX 11 14 1 1
BITMAP
4040
E0E0
7FC0
3F80
31C0
60C0
60C0
60C0
60C0
7180
3F80
7FC0
E0E0
4040
ENDCHAR
STARTCHAR 00A5
ENCODING 165
SWIDTH 541 0
DWIDTH 13 0
BBX 12 15 0 0
BITMAP
C030
6060
30C0
1980
1980
0F00
0600
7FE0
7FE0
0600
0600
7FE0
7FE0
0600
0600
ENDCHAR
STARTCHAR 00A6
ENCODING 166
SWIDTH 541 0
DWIDTH 13 0
BBX 2 24 6 -5
BITMAP
C0
C0
C0
C0
C0
C0
C0
C0
C0
C0
00
00
00
00
C0
C0
C0
C0
C0
C0
C0
C0
C0
C0
ENDCHAR
STARTCHAR 00A7
ENCODING 167
SWIDTH 541 0
DWIDTH 13 0
BBX 10 20 2 -3
BITMAP
1F80
3F80
7000
6000
7000
3800
7E00
E700
C380
C1C0
E0C0
70C0
39C0
0F80
0700
0180
0180
8380
FF00
7C00
ENDCHAR
STARTCHAR 00A8
ENCODING 168
SWIDTH 541 0
DWIDTH 13 0
BBX 8 3 3 12
BITMAP
E7
E7
E7
ENDCHAR
STARTCHAR 00A9
ENCODING 169
SWIDTH 541 0
DWIDTH 13 0
BBX 13 15 0 0
BITMAP
0F80
38E0
6070
63B0
C618
CC18
CC18
CC18
CC18
CC18
C618
67B0
6030
38E0
0F80
ENDCHAR
STARTCHAR 00AA
ENCODING 170
SWIDTH 541 0
DWIDTH 13 0
BBX 8 10 3 5
BITMAP
7C
46
06
7E
C6
C6
CE
76
00
FF
ENDCHAR
STARTCHAR 00AB
ENCODING 171
SWIDTH 541 0
DWIDTH 13 0
BBX 10 9 1 2
BITMAP
1040
30C0
71C0
6180
C300
6180
71C0
30C0
1040
ENDCHAR
STARTCHAR 00AC
ENCODING 172
SWIDTH 541 0
DWIDTH 13 0
BBX 10 5 1 3
BITMAP
FFC0
FFC0
00C0
00C0
00C0
ENDCHAR
STARTCHAR 00AD
ENCODING 173
SWIDTH 541 0
DWIDTH 13 0
BBX 7 2 3 5
BITMAP
FE
FE
ENDCHAR
STARTCHAR 00AE
ENCODING 174
SWIDTH 541 0
DWIDTH 13 0
BBX 9 11 2 6
BITMAP
1C00
6300
5D00
9480
9480
9880
9480
9480
5300
6300
1C00
ENDCHAR
STARTCHAR 00AF
ENCODING 175
SWIDTH 541 0
DWIDTH 13 0
BBX 6 2 4 12
BITMAP
FC
FC
ENDCHAR
STARTCHAR 00B0
ENCODING 176
SWIDTH 541 0
DWIDTH 13 0
BBX 8 8 2 9
BITMAP
3C
7E
E7
C3
C3
E7
7E
3C
ENDCHAR
STARTCHAR 00B1
ENCODING 177
SWIDTH 541 0
DWIDTH 13 0
BBX 10 14 2 0
BITMAP
0C00
0C00
0C00
0C00
FFC0
FFC0
0C00
0C00
0C00
0C00
0000
0000
FFC0
FFC0
ENDCHAR
STARTCHAR 00B2
ENCODING 178
SWIDTH 541 0
DWIDTH 13 0
BBX 7 10 3 7
BITMAP
78
FC
4C
0C
0C
18
30
70
FE
FE
ENDCHAR
STARTCHAR 00B3
ENCODING 179
SWIDTH 541 0
DWIDTH 13 0
BBX 7 10 3 7
BITMAP
FC
FE
06
06
7C
7C
06
06
FE
F8
ENDCHAR
STARTCHAR 00B4
ENCODING 180
SWIDTH 541 0
DWIDTH 13 0
BBX 5 3 5 12
BITMAP
38
70
E0
ENDCHAR
STARTCHAR 00B5
ENCODING 181
SWIDTH 541 0
DWIDTH 13 0
BBX 10 17 2 -5
BITMAP
C180
C180
C180
C180
C180
C180
C180
C180
C380
E780
FFC0
FCC0
C000
C000
C000
C000
C000
ENDCHAR
STARTCHAR 00B6
ENCODING 182
SWIDTH 541 0
DWIDTH 13 0
BBX 10 20 1 -3
BITMAP
1FC0
7FC0
7CC0
FCC0
FCC0
FCC0
FCC0
7CC0
7CC0
1CC0
00C0
00C0
00C0
00C0
00C0
00C0
00C0
2180
7F80
1E00
ENDCHAR
STARTCHAR 00B7
ENCODING 183
SWIDTH 541 0
DWIDTH 13 0
BBX 4 4 5 5
BITMAP
60
F0
F0
60
ENDCHAR
STARTCHAR 00B8
ENCODING 184
SWIDTH 541 0
DWIDTH 13 0
BBX 3 3 5 -3
BITMAP
60
E0
C0
ENDCHAR
STARTCHAR 00B9
ENCODING 185
SWIDTH 541 0
DWIDTH 13 0
BBX 7 10 3 7
BITMAP
18
78
F8
98
18
18
18
18
FE
FE
ENDCHAR
STARTCHAR 00BA
ENCODING 186
SWIDTH 541 0
DWIDTH 13 0
BBX 8 10 2 5
BITMAP
3C
66
C3
C3
C3
C3
66
3C
00
FF
ENDCHAR
STARTCHAR 00BB
ENCODING 187
SWIDTH 541 0
DWIDTH 13 0
BBX 10 9 2 2
BITMAP
8200
C300
E380
6180
30C0
6180
E380
C300
8200
ENDCHAR
STARTCHAR 00BC
ENCODING 188
SWIDTH 541 0
DWIDTH 13 0
BBX 13 17 0 0
BITMAP
3018
7030
B060
3060
30C0
3180
3180
0300
0600
0600
0CE0
0DE0
19E0
3160
3360
63F0
C060
ENDCHAR
STARTCHAR 00BD
ENCODING 189
SWIDTH 541 0
DWIDTH 13 0
BBX 13 17 0 0
BITMAP
3018
7030
B060
3060
30C0
3180
3180
0300
0600
0600
0CE0
0D30
1830
3030
3060
61C0
C1F0
ENDCHAR
STARTCHAR 00BE
ENCODING 190
SWIDTH 541 0
DWIDTH 13 0
BBX 12 17 1 0
BITMAP
F830
1860
F0C0
18C0
1980
F100
0300
0600
0600
0C00
19C0
1BC0
33C0
62C0
66C0
C7E0
80C0
ENDCHAR
STARTCHAR 00BF
ENCODING 191
SWIDTH 541 0
DWIDTH 13 0
BBX 7 17 3 -5
BITMAP
1C
1C
1C
00
00
18
18
38
78
E0
C0
C0
C0
E0
70
3E
0E
ENDCHAR
STARTCHAR 00C0
ENCODING 192
SWIDTH 541 0
DWIDTH 13 0
BBX 12 19 1 0
BITMAP
3800
1C00
0000
0000
0E00
0B00
1B00
1B00
1980
3180
3180
30C0
30C0
60C0
7FE0
7FE0
C070
C030
C030
ENDCHAR
STARTCHAR 00C1
ENCODING 193
SWIDTH 541 0
DWIDTH 13 0
BBX 12 19 1 0
BITMAP
0700
0E00
0000
0000
0E00
0B00
1B00
1B00
1980
3180
3180
30C0
30C0
60C0
7FE0
7FE0
C070
C030
C030
ENDCHAR
STARTCHAR 00C2
ENCODING 194
SWIDTH 541 0
DWIDTH 13 0
BBX 12 19 1 0
BITMAP
0E00
3B80
0000
0000
0E00
0B00
1B00
1B00
1980
3180
3180
30C0
30C0
60C0
7FE0
7FE0
C070
C030
C030
ENDCHAR
STARTCHAR 00C3
ENCODING 195
SWIDTH 541 0
DWIDTH 13 0
BBX 12 20 1 0
BITMAP
3C80
7FC0
2780
0000
0000
0E00
0B00
1B00
1B00
1980
3180
3180
30C0
30C0
60C0
7FE0
7FE0
C070
C030
C030
ENDCHAR
STARTCHAR 00C4
ENCODING 196
SWIDTH 541 0
DWIDTH 13 0
BBX 12 20 1 0
BITMAP
3180
3180
3180
0000
0000
0E00
0B00
1B00
1B00
1980
3180
3180
30C0
30C0
60C0
7FE0
7FE0
C070
C030
C030
ENDCHAR
STARTCHAR 00C5
ENCODING 197
SWIDTH 541 0
DWIDTH 13 0
BBX 12 20 1 0
BITMAP
0600
0900
0900
0600
0000
0E00
0B00
1B00
1B00
1980
3180
3180
30C0
30C0
60C0
7FE0
7FE0
C070
C030
C030
ENDCHAR
STARTCHAR 00C6
ENCODING 198
SWIDTH 541 0
DWIDTH 13 0
BBX 13 15 0 0
BITMAP
03F8
07F8
0780
0580
0D80
0D80
19F8
19F8
1180
3180
3F80
7F80
6180
61F8
C1F8
ENDCHAR
STARTCHAR 00C7
ENCODING 199
SWIDTH 541 0
DWIDTH 13 0
BBX 11 18 1 -3
BITMAP
0FC0
1FE0
3820
6000
E000
C000
C000
C000
C000
C000
E000
6000
7820
3FE0
0FC0
0600
0E00
0C00
ENDCHAR
STARTCHAR 00C8
ENCODING 200
SWIDTH 541 0
DWIDTH 13 0
BBX 9 19 2 0
BITMAP
7000
3800
0000
0000
FF80
FF80
C000
C000
C000
C000
FF80
FF80
C000
C000
C000
C000
C000
FF80
FF80
ENDCHAR
STARTCHAR 00C9
ENCODING 201
SWIDTH 541 0
DWIDTH 13 0
BBX 9 19 2 0
BITMAP
0E00
1C00
0000
0000
FF80
FF80
C000
C000
C000
C000
FF80
FF80
C000
C000
C000
C000
C000
FF80
FF80
ENDCHAR
STARTCHAR 00CA
ENCODING 202
SWIDTH 541 0
DWIDTH 13 0
BBX 9 19 2 0
BITMAP
1C00
7700
0000
0000
FF80
FF80
C000
C000
C000
C000
FF80
FF80
C000
C000
C000
C000
C000
FF80
FF80
ENDCHAR
STARTCHAR 00CB
ENCODING 203
SWIDTH 541 0
DWIDTH 13 0
BBX 9 20 2 0
BITMAP
6300
6300
6300
0000
0000
FF80
FF80
C000
C000
C000
C000
FF80
FF80
C000
C000
C000
C000
C000
FF80
FF80
ENDCHAR
STARTCHAR 00CC
ENCODING 204
SWIDTH 541 0
DWIDTH 13 0
BBX 10 19 2 0
BITMAP
7000
3800
0000
0000
FFC0
FFC0
0C00
0C00
0C00
0C00
0C00
0C00
0C00
0C00
0C00
0C00
0C00
FFC0
FFC0
ENDCHAR
STARTCHAR 00CD
ENCODING 205
SWIDTH 541 0
DWIDTH 13 0
BBX 10 19 2 0
BITMAP
0E00
1C00
0000
0000
FFC0
FFC0
0C00
0C00
0C00
0C00
0C00
0C00
0C00
0C00
0C00
0C00
0C00
FFC0
FFC0
ENDCHAR
STARTCHAR 00CE
ENCODING 206
SWIDTH 541 0
DWIDTH 13 0
BBX 10 19 2 0
BITMAP
1C00
7700
0000
0000
FFC0
FFC0
0C00
0C00
0C00
0C00
0C00
0C00
0C00
0C00
0C00
0C00
0C00
FFC0
FFC0
ENDCHAR
STARTCHAR 00CF
ENCODING 207
SWIDTH 541 0
DWIDTH 13 0
BBX 10 20 2 0
BITMAP
6300
6300
6300
0000
0000
FFC0
FFC0
0C00
0C00
0C00
0C00
0C00
0C00
0C00
0C00
0C00
0C00
0C00
FFC0
FFC0
ENDCHAR
STARTCHAR 00D0
ENCODING 208
SWIDTH 541 0
DWIDTH 13 0
BBX 13 15 0 0
BITMAP
3F80
3FE0
3070
3030
3018
3018
FE18
FE18
3018
3018
3038
3030
30F0
3FE0
3F80
ENDCHAR
STARTCHAR 00D1
ENCODING 209
SWIDTH 541 0
DWIDTH 13 0
BBX 11 20 1 0
BITMAP
3C80
7FC0
2780
0000
0000
E060
F060
F060
D060
D860
C860
CC60
C460
C660
C660
C360
C360
C1E0
C1E0
C0E0
ENDCHAR
STARTCHAR 00D2
ENCODING 210
SWIDTH 541 0
DWIDTH 13 0
BBX 12 19 1 0
BITMAP
3800
1C00
0000
0000
0F80
3FC0
70E0
6060
E030
C030
C030
C030
C030
C030
C070
6060
70E0
3FC0
1F00
ENDCHAR
STARTCHAR 00D3
ENCODING 211
SWIDTH 541 0
DWIDTH 13 0
BBX 12 19 1 0
BITMAP
0700
0E00
0000
0000
0F80
3FC0
70E0
6060
E030
C030
C030
C030
C030
C030
C070
6060
70E0
3FC0
1F00
ENDCHAR
STARTCHAR 00D4
ENCODING 212
SWIDTH 541 0
DWIDTH 13 0
BBX 12 19 1 0
BITMAP
0E00
3B80
0000
0000
0F80
3FC0
70E0
6060
E030
C030
C030
C030
C030
C030
C070
6060
70E0
3FC0
1F00
ENDCHAR
STARTCHAR 00D5
ENCODING 213
SWIDTH 541 0
DWIDTH 13 0
BBX 12 20 1 0
BITMAP
3C80
7FC0
2780
0000
0000
0F80
3FC0
70E0
6060
E030
C030
C030
C030
C030
C030
C070
6060
70E0
3FC0
1F00
ENDCHAR
STARTCHAR 00D6
ENCODING 214
SWIDTH 541 0
DWIDTH 13 0
BBX 12 20 1 0
BITMAP
3180
3180
3180
0000
0000
0F80
3FC0
70E0
6060
E030
C030
C030
C030
C030
C030
C070
6060
70E0
3FC0
1F00
ENDCHAR
STARTCHAR 00D7
ENCODING 215
SWIDTH 541 0
DWIDTH 13 0
BBX 10 11 2 1
BITMAP
4080
E1C0
F380
7F00
3E00
1E00
3F00
7780
E3C0
C180
0080
ENDCHAR
STARTCHAR 00D8
ENCODING 216
SWIDTH 541 0
DWIDTH 13 0
BBX 12 21 1 -3
BITMAP
00C0
00C0
0080
0F80
3FC0
71E0
6360
E330
C230
C630
C630
C630
C430
CC70
6C60
78E0
3FC0
1F00
1000
3000
3000
ENDCHAR
STARTCHAR 00D9
ENCODING 217
SWIDTH 541 0
DWIDTH 13 0
BBX 11 19 1 0
BITMAP
3800
1C00
0000
0000
C060
C060
C060
C060
C060
C060
C060
C060
C060
C060
C060
C060
E0C0
7FC0
1F00
ENDCHAR
STARTCHAR 00DA
ENCODING 218
SWIDTH 541 0
DWIDTH 13 0
BBX 11 19 1 0
BITMAP
0700
0E00
0000
0000
C060
C060
C060
C060
C060
C060
C060
C060
C060
C060
C060
C060
E0C0
7FC0
1F00
ENDCHAR
STARTCHAR 00DB
ENCODING 219
SWIDTH 541 0
DWIDTH 13 0
BBX 11 19 1 0
BITMAP
0E00
3B80
0000
0000
C060
C060
C060
C060
C060
C060
C060
C060
C060
C060
C060
C060
E0C0
7FC0
1F00
ENDCHAR
STARTCHAR 00DC
ENCODING 220
SWIDTH 541 0
DWIDTH 13 0
BBX 11 20 1 0
BITMAP
3180
3180
3180
0000
0000
C060
C060
C060
C060
C060
C060
C060
C060
C060
C060
C060
C060
E0C0
7FC0
1F00
ENDCHAR
STARTCHAR 00DD
ENCODING 221
SWIDTH 541 0
DWIDTH 13 0
BBX 14 19 -1 0
BITMAP
01C0
0380
0000
0000
C00C
6018
3038
3030
1860
1C60
0CC0
07C0
0780
0300
0300
0300
0300
0300
0300
ENDCHAR
STARTCHAR 00DE
ENCODING 222
SWIDTH 541 0
DWIDTH 13 0
BBX 10 15 2 0
BITMAP
C000
C000
FE00
FF80
C180
C0C0
C0C0
C0C0
C0C0
C380
FF00
FE00
C000
C000
C000
ENDCHAR
STARTCHAR 00DF
ENCODING 223
SWIDTH 541 0
DWIDTH 13 0
BBX 10 17 2 0
BITMAP
1E00
7F00
E180
C180
C180
C300
CE00
CC00
CC00
CE00
C700
C380
C1C0
C0C0
C0C0
CF80
CF00
ENDCHAR
STARTCHAR 00E0
ENCODING 224
SWIDTH 541 0
DWIDTH 13 0
BBX 10 17 2 0
BITMAP
7000
3800
1C00
0000
0000
3F00
7F80
41C0
00C0
00C0
3FC0
7FC0
E0C0
C0C0
C3C0
FFC0
3CC0
ENDCHAR
STARTCHAR 00E1
ENCODING 225
SWIDTH 541 0
DWIDTH 13 0
BBX 10 17 2 0
BITMAP
0700
0E00
1C00
0000
0000
3F00
7F80
41C0
00C0
00C0
3FC0
7FC0
E0C0
C0C0
C3C0
FFC0
3CC0
ENDCHAR
STARTCHAR 00E2
ENCODING 226
SWIDTH 541 0
DWIDTH 13 0
BBX 10 17 2 0
BITMAP
1C00
3600
6300
0000
0000
3F00
7F80
41C0
00C0
00C0
3FC0
7FC0
E0C0
C0C0
C3C0
FFC0
3CC0
ENDCHAR
STARTCHAR 00E3
ENCODING 227
SWIDTH 541 0
DWIDTH 13 0
BBX 10 17 2 0
BITMAP
7900
FF80
4F00
0000
0000
3F00
7F80
41C0
00C0
00C0
3FC0
7FC0
E0C0
C0C0
C3C0
FFC0
3CC0
ENDCHAR
STARTCHAR 00E4
ENCODING 228
SWIDTH 541 0
DWIDTH 13 0
BBX 10 17 2 0
BITMAP
7380
7380
7380
0000
0000
3F00
7F80
41C0
00C0
00C0
3FC0
7FC0
E0C0
C0C0
C3C0
FFC0
3CC0
ENDCHAR
STARTCHAR 00E5
ENCODING 229
SWIDTH 541 0
DWIDTH 13 0
BBX 10 17 2 0
BITMAP
1800
2400
2400
1800
0000
3F00
7F80
41C0
00C0
00C0
3FC0
7FC0
E0C0
C0C0
C3C0
FFC0
3CC0
ENDCHAR
STARTCHAR 00E6
ENCODING 230
SWIDTH 541 0
DWIDTH 13 0
BBX 12 12 0 0
BITMAP
39C0
7FE0
4730
0630
0630
3FF0
FFF0
C600
C600
CF00
FBF0
71F0
ENDCHAR
STARTCHAR 00E7
ENCODING 231
SWIDTH 541 0
DWIDTH 13 0
BBX 9 15 2 -3
BITMAP
1F00
3F80
7080
E000
C000
C000
C000
C000
E000
7080
7F80
1F00
0C00
1C00
1800
ENDCHAR
STARTCHAR 00E8
ENCODING 232
SWIDTH 541 0
DWIDTH 13 0
BBX 10 17 1 0
BITMAP
3800
1C00
0E00
0000
0000
1E00
3F80
6180
C0C0
C0C0
FFC0
FFC0
C000
C000
6080
7F80
1F00
ENDCHAR
STARTCHAR 00E9
ENCODING 233
SWIDTH 541 0
DWIDTH 13 0
BBX 10 17 1 0
BITMAP
0380
0700
0E00
0000
0000
1E00
3F80
6180
C0C0
C0C0
FFC0
FFC0
C000
C000
6080
7F80
1F00
ENDCHAR
STARTCHAR 00EA
ENCODING 234
SWIDTH 541 0
DWIDTH 13 0
BBX 10 17 1 0
BITMAP
0E00
1B00
3180
0000
0000
1E00
3F80
6180
C0C0
C0C0
FFC0
FFC0
C000
C000
6080
7F80
1F00
ENDCHAR
STARTCHAR 00EB
ENCODING 235
SWIDTH 541 0
DWIDTH 13 0
BBX 10 17 1 0
BITMAP
39C0
39C0
39C0
0000
0000
1E00
3F80
6180
C0C0
C0C0
FFC0
FFC0
C000
C000
6080
7F80
1F00
ENDCHAR
STARTCHAR 00EC
ENCODING 236
SWIDTH 541 0
DWIDTH 13 0
BBX 9 17 2 0
BITMAP
7000
3800
1C00
0000
0000
FC00
FC00
0C00
0C00
0C00
0C00
0C00
0C00
0C00
0C00
FF80
FF80
ENDCHAR
STARTCHAR 00ED
ENCODING 237
SWIDTH 541 0
DWIDTH 13 0
BBX 9 17 2 0
BITMAP
0700
0E00
1C00
0000
0000
FC00
FC00
0C00
0C00
0C00
0C00
0C00
0C00
0C00
0C00
FF80
FF80
ENDCHAR
STARTCHAR 00EE
ENCODING 238
SWIDTH 541 0
DWIDTH 13 0
BBX 9 17 2 0
BITMAP
1C00
3600
6300
0000
0000
FC00
FC00
0C00
0C00
0C00
0C00
0C00
0C00
0C00
0C00
FF80
FF80
ENDCHAR
STARTCHAR 00EF
ENCODING 239
SWIDTH 541 0
DWIDTH 13 0
BBX 9 17 2 0
BITMAP
7380
7380
7380
0000
0000
FC00
FC00
0C00
0C00
0C00
0C00
0C00
0C00
0C00
0C00
FF80
FF80
ENDCHAR
STARTCHAR 00F0
ENCODING 240
SWIDTH 541 0
DWIDTH 13 0
BBX 11 18 1 0
BITMAP
00C0
0FC0
1F00
3F00
2300
0380
1FC0
3FC0
70C0
60E0
C060
C060
C060
C060
E0E0
71C0
7F80
1F00
ENDCHAR
STARTCHAR 00F1
ENCODING 241
SWIDTH 541 0
DWIDTH 13 0
BBX 9 17 2 0
BITMAP
7900
FF80
4F00
0000
0000
CE00
FF00
F380
E180
C180
C180
C180
C180
C180
C180
C180
C180
ENDCHAR
STARTCHAR 00F2
ENCODING 242
SWIDTH 541 0
DWIDTH 13 0
BBX 11 17 1 0
BITMAP
3800
1C00
0E00
0000
0000
1F00
3FC0
71C0
E0E0
C060
C060
C060
C060
E0E0
71C0
7F80
1F00
ENDCHAR
STARTCHAR 00F3
ENCODING 243
SWIDTH 541 0
DWIDTH 13 0
BBX 11 17 1 0
BITMAP
0380
0700
0E00
0000
0000
1F00
3FC0
71C0
E0E0
C060
C060
C060
C060
E0E0
71C0
7F80
1F00
ENDCHAR
STARTCHAR 00F4
ENCODING 244
SWIDTH 541 0
DWIDTH 13 0
BBX 11 17 1 0
BITMAP
0E00
1B00
3180
0000
0000
1F00
3FC0
71C0
E0E0
C060
C060
C060
C060
E0E0
71C0
7F80
1F00
ENDCHAR
STARTCHAR 00F5
ENCODING 245
SWIDTH 541 0
DWIDTH 13 0
BBX 11 17 1 0
BITMAP
3C80
7FC0
2780
0000
0000
1F00
3FC0
71C0
E0E0
C060
C060
C060
C060
E0E0
71C0
7F80
1F00
ENDCHAR
STARTCHAR 00F6
ENCODING 246
SWIDTH 541 0
DWIDTH 13 0
BBX 11 17 1 0
BITMAP
39C0
39C0
39C0
0000
0000
1F00
3FC0
71C0
E0E0
C060
C060
C060
C060
E0E0
71C0
7F80
1F00
ENDCHAR
STARTCHAR 00F7
ENCODING 247
SWIDTH 541 0
DWIDTH 13 0
BBX 11 12 1 1
BITMAP
0E00
0E00
0E00
0000
0000
FFE0
FFE0
0000
0000
0E00
0E00
0E00
ENDCHAR
STARTCHAR 00F8
ENCODING 248
SWIDTH 541 0
DWIDTH 13 0
BBX 11 17 1 -3
BITMAP
0180
0180
1F00
3F80
73C0
E2E0
C660
C660
C460
CC60
ECE0
79C0
3F80
1F00
1800
3000
3000
ENDCHAR
STARTCHAR 00F9
ENCODING 249
SWIDTH 541 0
DWIDTH 13 0
BBX 9 17 2 0
BITMAP
7000
3800
1C00
0000
0000
C180
C180
C180
C180
C180
C180
C180
C180
C380
E780
7F80
3980
ENDCHAR
STARTCHAR 00FA
ENCODING 250
SWIDTH 541 0
DWIDTH 13 0
BBX 9 17 2 0
BITMAP
0700
0E00
1C00
0000
0000
C180
C180
C180
C180
C180
C180
C180
C180
C380
E780
7F80
3980
ENDCHAR
STARTCHAR 00FB
ENCODING 251
SWIDTH 541 0
DWIDTH 13 0
BBX 9 17 2 0
BITMAP
1C00
3600
6300
0000
0000
C180
C180
C180
C180
C180
C180
C180
C180
C380
E780
7F80
3980
ENDCHAR
STARTCHAR 00FC
ENCODING 252
SWIDTH 541 0
DWIDTH 13 0
BBX 9 17 2 0
BITMAP
7380
7380
7380
0000
0000
C180
C180
C180
C180
C180
C180
C180
C180
C380
E780
7F80
3980
ENDCHAR
STARTCHAR 00FD
ENCODING 253
SWIDTH 541 0
DWIDTH 13 0
BBX 12 22 0 -5
BITMAP
01C0
0380
0700
0000
0000
6030
6030
3060
3060
3060
18C0
18C0
0D80
0D80
0D00
0700
0700
0600
0E00
1C00
F800
F000
ENDCHAR
STARTCHAR 00FE
ENCODING 254
SWIDTH 541 0
DWIDTH 13 0
BBX 10 22 2 -5
BITMAP
C000
C000
C000
C000
C000
CF00
FF80
F180
E0C0
C0C0
C0C0
C0C0
C0C0
C1C0
C380
FF00
FE00
C000
C000
C000
C000
C000
ENDCHAR
STARTCHAR 00FF
ENCODING 255
SWIDTH 541 0
DWIDTH 13 0
BBX 12 22 0 -5
BITMAP
1CE0
1CE0
1CE0
0000
0000
6030
6030
3060
3060
3060
18C0
18C0
0D80
0D80
0D00
0700
0700
0600
0E00
1C00
F800
F000
ENDCHAR
STARTCHAR 0100
ENCODING 256
SWIDTH 541 0
DWIDTH 13 0
BBX 12 19 1 0
BITMAP
3F80
3F80
0000
0000
0E00
0B00
1B00
1B00
1980
3180
3180
30C0
30C0
60C0
7FE0
7FE0
C070
C030
C030
ENDCHAR
STARTCHAR 0101
ENCODING 257
SWIDTH 541 0
DWIDTH 13 0
BBX 10 17 2 0
BITMAP
3F00
3F00
0000
0000
0000
3F00
7F80
41C0
00C0
00C0
3FC0
7FC0
E0C0
C0C0
C3C0
FFC0
3CC0
ENDCHAR
STARTCHAR 0102
ENCODING 258
SWIDTH 541 0
DWIDTH 13 0
BBX 12 20 1 0
BITMAP
3180
3F80
1F00
0000
0000
0E00
0B00
1B00
1B00
1980
3180
3180
30C0
30C0
60C0
7FE0
7FE0
C070
C030
C030
ENDCHAR
STARTCHAR 0103
ENCODING 259
SWIDTH 541 0
DWIDTH 13 0
BBX 10 17 2 0
BITMAP
6300
7F00
3E00
0000
0000
3F00
7F80
41C0
00C0
00C0
3FC0
7FC0
E0C0
C0C0
C3C0
FFC0
3CC0
ENDCHAR
STARTCHAR 0104
ENCODING 260
SWIDTH 541 0
DWIDTH 13 0
BBX 13 20 1 -5
BITMAP
0E00
0B00
1B00
1B00
1980
3180
3180
30C0
70C0
60C0
7FE0
7FE0
C070
C030
C030
0030
0060
0060
0060
0078
ENDCHAR
STARTCHAR 0105
ENCODING 261
SWIDTH 541 0
DWIDTH 13 0
BBX 11 17 2 -5
BITMAP
3F00
7F80
41C0
00C0
00C0
3FC0
7FC0
E0C0
C0C0
C3C0
FFC0
3EC0
00C0
0180
0180
0180
00E0
ENDCHAR
STARTCHAR 0106
ENCODING 262
SWIDTH 541 0
DWIDTH 13 0
BBX 10 19 1 0
BITMAP
0380
0700
0000
0000
0F80
3FC0
7040
6000
E000
C000
C000
C000
C000
C000
C000
6000
7040
3FC0
0F80
ENDCHAR
STARTCHAR 0107
ENCODING 263
SWIDTH 541 0
DWIDTH 13 0
BBX 9 17 2 0
BITMAP
0700
0E00
1C00
0000
0000
1F00
3F80
7080
E000
C000
C000
C000
C000
E000
7080
7F80
1F00
ENDCHAR
STARTCHAR 0108
ENCODING 264
SWIDTH 541 0
DWIDTH 13 0
BBX 10 19 1 0
BITMAP
0700
1DC0
0000
0000
0F80
3FC0
7040
6000
E000
C000
C000
C000
C000
C000
C000
6000
7040
3FC0
0F80
ENDCHAR
STARTCHAR 0109
ENCODING 265
SWIDTH 541 0
DWIDTH 13 0
BBX 9 17 2 0
BITMAP
1C00
3600
6300
0000
0000
1F00
3F80
7080
E000
C000
C000
C000
C000
E000
7080
7F80
1F00
ENDCHAR
STARTCHAR 010A
ENCODING 266
SWIDTH 541 0
DWIDTH 13 0
BBX 10 19 1 0
BITMAP
0700
0700
0700
0000
0F80
3FC0
7040
6000
E000
C000
C000
C000
C000
C000
C000
6000
7040
3FC0
0F80
ENDCHAR
STARTCHAR 010B
ENCODING 267
SWIDTH 541 0
DWIDTH 13 0
BBX 9 17 2 0
BITMAP
1C00
1C00
1C00
0000
0000
1F00
3F80
7080
E000
C000
C000
C000
C000
E000
7080
7F80
1F00
ENDCHAR
STARTCHAR 010C
ENCODING 268
SWIDTH 541 0
DWIDTH 13 0
BBX 10 19 1 0
BITMAP
1DC0
0700
0000
0000
0F80
3FC0
7040
6000
E000
C000
C000
C000
C000
C000
C000
6000
7040
3FC0
0F80
ENDCHAR
STARTCHAR 010D
ENCODING 269
SWIDTH 541 0
DWIDTH 13 0
BBX 9 17 2 0
BITMAP
3180
1F00
0E00
0000
0000
1F00
3F80
7080
E000
C000
C000
C000
C000
E000
7080
7F80
1F00
ENDCHAR
STARTCHAR 010E
ENCODING 270
SWIDTH 541 0
DWIDTH 13 0
BBX 11 19 1 0
BITMAP
3B80
0E00
0000
0000
FE00
FF80
C1C0
C0C0
C060
C060
C060
C060
C060
C060
C0E0
C0C0
C3C0
FF80
FE00
ENDCHAR
STARTCHAR 010F
ENCODING 271
SWIDTH 541 0
DWIDTH 13 0
BBX 15 18 0 0
BITMAP
0006
00C6
00CC
00CC
00C0
00C0
1FC0
3FC0
70C0
E0C0
C0C0
C0C0
C0C0
C0C0
C1C0
63C0
7EC0
3CC0
ENDCHAR
STARTCHAR 0110
ENCODING 272
SWIDTH 541 0
DWIDTH 13 0
BBX 13 15 0 0
BITMAP
3F80
3FE0
3070
3030
3018
3018
FE18
FE18
3018
3018
3038
3030
30F0
3FE0
3F80
ENDCHAR
STARTCHAR 0111
ENCODING 273
SWIDTH 541 0
DWIDTH 13 0
BBX 12 17 1 0
BITMAP
00C0
00C0
07F0
07F0
00C0
1FC0
3FC0
70C0
E0C0
C0C0
C0C0
C0C0
C0C0
C1C0
63C0
7EC0
3CC0
ENDCHAR
STARTCHAR 0112
ENCODING 274
SWIDTH 541 0
DWIDTH 13 0
BBX 9 19 2 0
BITMAP
7F00
7F00
0000
0000
FF80
FF80
C000
C000
C000
C000
FF80
FF80
C000
C000
C000
C000
C000
FF80
FF80
ENDCHAR
STARTCHAR 0113
ENCODING 275
SWIDTH 541 0
DWIDTH 13 0
BBX 10 17 1 0
BITMAP
1F80
1F80
0000
0000
0000
1E00
3F80
6180
C0C0
C0C0
FFC0
FFC0
C000
C000
6080
7F80
1F00
ENDCHAR
STARTCHAR 0114
ENCODING 276
SWIDTH 541 0
DWIDTH 13 0
BBX 9 20 2 0
BITMAP
6300
7F00
3E00
0000
0000
FF80
FF80
C000
C000
C000
C000
FF80
FF80
C000
C000
C000
C000
C000
FF80
FF80
ENDCHAR
STARTCHAR 0115
ENCODING 277
SWIDTH 541 0
DWIDTH 13 0
BBX 10 17 1 0
BITMAP
3180
3F80
1F00
0000
0000
1E00
3F80
6180
C0C0
C0C0
FFC0
FFC0
C000
C000
6080
7F80
1F00
ENDCHAR
STARTCHAR 0116
ENCODING 278
SWIDTH 541 0
DWIDTH 13 0
BBX 9 19 2 0
BITMAP
1C00
1C00
1C00
0000
FF80
FF80
C000
C000
C000
C000
FF80
FF80
C000
C000
C000
C000
C000
FF80
FF80
ENDCHAR
STARTCHAR 0117
ENCODING 279
SWIDTH 541 0
DWIDTH 13 0
BBX 10 17 1 0
BITMAP
0E00
0E00
0E00
0000
0000
1E00
3F80
6180
C0C0
C0C0
FFC0
FFC0
C000
C000
6080
7F80
1F00
ENDCHAR
STARTCHAR 0118
ENCODING 280
SWIDTH 541 0
DWIDTH 13 0
BBX 10 20 2 -5
BITMAP
FF80
FF80
C000
C000
C000
C000
FF80
FF80
C000
C000
C000
C000
C000
FF80
FF80
0180
0300
0300
0300
01C0
ENDCHAR
STARTCHAR 0119
ENCODING 281
SWIDTH 541 0
DWIDTH 13 0
BBX 10 17 1 -5
BITMAP
1E00
3F80
6180
C0C0
C0C0
FFC0
FFC0
C000
C000
6080
7F80
1F00
0300
0600
0600
0600
0380
ENDCHAR
STARTCHAR 011A
ENCODING 282
SWIDTH 541 0
DWIDTH 13 0
BBX 9 19 2 0
BITMAP
7700
1C00
0000
0000
FF80
FF80
C000
C000
C000
C000
FF80
FF80
C000
C000
C000
C000
C000
FF80
FF80
ENDCHAR
STARTCHAR 011B
ENCODING 283
SWIDTH 541 0
DWIDTH 13 0
BBX 10 17 1 0
BITMAP
3180
1F00
0E00
0000
0000
1E00
3F80
6180
C0C0
C0C0
FFC0
FFC0
C000
C000
6080
7F80
1F00
ENDCHAR
STARTCHAR 011C
ENCODING 284
SWIDTH 541 0
DWIDTH 13 0
BBX 11 19 1 0
BITMAP
0700
1DC0
0000
0000
0FC0
1FE0
3820
6000
E000
C000
C3E0
C3E0
C060
C060
E060
6060
7860
3FE0
0FC0
ENDCHAR
STARTCHAR 011D
ENCODING 285
SWIDTH 541 0
DWIDTH 13 0
BBX 11 22 1 -5
BITMAP
0E00
1B00
3180
0000
0000
1FE0
3FE0
71C0
60C0
60C0
71C0
3F80
7F00
C000
C000
7F80
7FE0
C060
C060
E0E0
FFC0
3F00
ENDCHAR
STARTCHAR 011E
ENCODING 286
SWIDTH 541 0
DWIDTH 13 0
BBX 11 20 1 0
BITMAP
18C0
1FC0
0F80
0000
0000
0FC0
1FE0
3820
6000
E000
C000
C3E0
C3E0
C060
C060
E060
6060
7860
3FE0
0FC0
ENDCHAR
STARTCHAR 011F
ENCODING 287
SWIDTH 541 0
DWIDTH 13 0
BBX 11 22 1 -5
BITMAP
3180
3F80
1F00
0000
0000
1FE0
3FE0
71C0
60C0
60C0
71C0
3F80
7F00
C000
C000
7F80
7FE0
C060
C060
E0E0
FFC0
3F00
ENDCHAR
STARTCHAR 0120
ENCODING 288
SWIDTH 541 0
DWIDTH 13 0
BBX 11 19 1 0
BITMAP
0700
0700
0700
0000
0FC0
1FE0
3820
6000
E000
C000
C3E0
C3E0
C060
C060
E060
6060
7860
3FE0
0FC0
ENDCHAR
STARTCHAR 0121
ENCODING 289
SWIDTH 541 0
DWIDTH 13 0
BBX 11 22 1 -5
BITMAP
0E00
0E00
0E00
0000
0000
1FE0
3FE0
71C0
60C0
60C0
71C0
3F80
7F00
C000
C000
7F80
7FE0
C060
C060
E0E0
FFC0
3F00
ENDCHAR
STARTCHAR 0122
ENCODING 290
SWIDTH 541 0
DWIDTH 13 0
BBX 11 20 1 -5
BITMAP
0FC0
1FE0
3820
6000
E000
C000
C3E0
C3E0
C060
C060
E060
6060
7860
3FE0
0FC0
0000
0600
0600
0C00
0C00
ENDCHAR
STARTCHAR 0123
ENCODING 291
SWIDTH 541 0
DWIDTH 13 0
BBX 11 22 1 -5
BITMAP
0600
0E00
0C00
0000
0000
1FE0
3FE0
71C0
60C0
60C0
71C0
3F80
7F00
C000
C000
7F80
7FE0
C060
C060
E0E0
FFC0
3F00
ENDCHAR
STARTCHAR 0124
ENCODING 292
SWIDTH 541 0
DWIDTH 13 0
BBX 11 19 1 0
BITMAP
0E00
3B80
0000
0000
C060
C060
C060
C060
C060
C060
FFE0
FFE0
C060
C060
C060
C060
C060
C060
C060
ENDCHAR
STARTCHAR 0125
ENCODING 293
SWIDTH 541 0
DWIDTH 13 0
BBX 9 21 2 0
BITMAP
1C00
7700
0000
0000
C000
C000
C000
C000
C000
CE00
FF00
F380
E180
C180
C180
C180
C180
C180
C180
C180
C180
ENDCHAR
STARTCHAR 0126
ENCODING 294
SWIDTH 541 0
DWIDTH 13 0
BBX 12 15 1 0
BITMAP
6060
FFF0
FFF0
6060
6060
6060
7FE0
7FE0
6060
6060
6060
6060
6060
6060
6060
ENDCHAR
STARTCHAR 0127
ENCODING 295
SWIDTH 541 0
DWIDTH 13 0
BBX 11 17 0 0
BITMAP
3000
3000
FE00
FE00
3000
3380
37C0
3CE0
3860
3060
3060
3060
3060
3060
3060
3060
3060
ENDCHAR
STARTCHAR 0128
ENCODING 296
SWIDTH 541 0
DWIDTH 13 0
BBX 10 20 2 0
BITMAP
7900
FF80
4F00
0000
0000
FFC0
FFC0
0C00
0C00
0C00
0C00
0C00
0C00
0C00
0C00
0C00
0C00
0C00
FFC0
FFC0
ENDCHAR
STARTCHAR 0129
ENCODING 297
SWIDTH 541 0
DWIDTH 13 0
BBX 9 17 2 0
BITMAP
7900
FF80
4F00
0000
0000
FC00
FC00
0C00
0C00
0C00
0C00
0C00
0C00
0C00
0C00
FF80
FF80
ENDCHAR
STARTCHAR 012A
ENCODING 298
SWIDTH 541 0
DWIDTH 13 0
BBX 10 19 2 0
BITMAP
7F00
7F00
0000
0000
FFC0
FFC0
0C00
0C00
0C00
0C00
0C00
0C00
0C00
0C00
0C00
0C00
0C00
FFC0
FFC0
ENDCHAR
STARTCHAR 012B
ENCODING 299
SWIDTH 541 0
DWIDTH 13 0
BBX 9 17 2 0
BITMAP
3F00
3F00
0000
0000
0000
FC00
FC00
0C00
0C00
0C00
0C00
0C00
0C00
0C00
0C00
FF80
FF80
ENDCHAR
STARTCHAR 012C
ENCODING 300
SWIDTH 541 0
DWIDTH 13 0
BBX 10 20 2 0
BITMAP
6300
7F00
3E00
0000
0000
FFC0
FFC0
0C00
0C00
0C00
0C00
0C00
0C00
0C00
0C00
0C00
0C00
0C00
FFC0
FFC0
ENDCHAR
STARTCHAR 012D
ENCODING 301
SWIDTH 541 0
DWIDTH 13 0
BBX 9 17 2 0
BITMAP
6300
7F00
3E00
0000
0000
FC00
FC00
0C00
0C00
0C00
0C00
0C00
0C00
0C00
0C00
FF80
FF80
ENDCHAR
STARTCHAR 012E
ENCODING 302
SWIDTH 541 0
DWIDTH 13 0
BBX 11 20 2 -5
BITMAP
FFC0
FFC0
0C00
0C00
0C00
0C00
0C00
0C00
0C00
0C00
0C00
0C00
0C00
FFC0
FFC0
00C0
0180
0180
0180
00E0
ENDCHAR
STARTCHAR 012F
ENCODING 303
SWIDTH 541 0
DWIDTH 13 0
BBX 10 22 2 -5
BITMAP
1C00
1C00
1C00
0000
0000
FC00
FC00
0C00
0C00
0C00
0C00
0C00
0C00
0C00
0C00
FF80
FF80
0180
0300
0300
0300
01C0
ENDCHAR
STARTCHAR 0130
ENCODING 304
SWIDTH 541 0
DWIDTH 13 0
BBX 10 19 2 0
BITMAP
1C00
1C00
1C00
0000
FFC0
FFC0
0C00
0C00
0C00
0C00
0C00
0C00
0C00
0C00
0C00
0C00
0C00
FFC0
FFC0
ENDCHAR
STARTCHAR 0131
ENCODING 305
SWIDTH 541 0
DWIDTH 13 0
BBX 9 12 2 0
BITMAP
FC00
FC00
0C00
0C00
0C00
0C00
0C00
0C00
0C00
0C00
FF80
FF80
ENDCHAR
STARTCHAR 0132
ENCODING 306
SWIDTH 541 0
DWIDTH 13 0
BBX 11 15 1 0
BITMAP
C060
C060
C060
C060
C060
C060
C060
C060
C060
C060
C060
C060
C0E0
CFC0
CF80
ENDCHAR
STARTCHAR 0133
ENCODING 307
SWIDTH 541 0
DWIDTH 13 0
BBX 11 22 1 -5
BITMAP
E0E0
E0E0
E0E0
0000
0000
60C0
60C0
60C0
60C0
60C0
60C0
60C0
60C0
60C0
60C0
60C0
60C0
00C0
00C0
11C0
1F80
1F00
ENDCHAR
STARTCHAR 0134
ENCODING 308
SWIDTH 541 0
DWIDTH 13 0
BBX 8 19 2 0
BITMAP
1C
77
00
00
FF
FF
03
03
03
03
03
03
03
03
03
03
87
FE
7C
ENDCHAR
STARTCHAR 0135
ENCODING 309
SWIDTH 541 0
DWIDTH 13 0
BBX 8 22 2 -5
BITMAP
1C
36
63
00
00
FF
FF
03
03
03
03
03
03
03
03
03
03
03
03
86
FE
78
ENDCHAR
STARTCHAR 0136
ENCODING 310
SWIDTH 541 0
DWIDTH 13 0
BBX 10 20 2 -5
BITMAP
C0C0
C180
C300
C600
CE00
CC00
D800
F000
D800
CC00
CE00
C700
C300
C180
C0C0
0000
0C00
0C00
1800
1800
ENDCHAR
STARTCHAR 0137
ENCODING 311
SWIDTH 541 0
DWIDTH 13 0
BBX 10 22 2 -5
BITMAP
C000
C000
C000
C000
C000
C1C0
C380
C700
CE00
D800
F000
D800
CC00
C600
C300
C180
C0C0
0000
0C00
0C00
1800
1800
ENDCHAR
STARTCHAR 0138
ENCODING 312
SWIDTH 541 0
DWIDTH 13 0
BBX 10 12 2 0
BITMAP
C180
C300
C600
CC00
D800
F000
D800
CC00
C600
C300
C180
C0C0
ENDCHAR
STARTCHAR 0139
ENCODING 313
SWIDTH 541 0
DWIDTH 13 0
BBX 9 19 3 0
BITMAP
1C00
3800
0000
0000
C000
C000
C000
C000
C000
C000
C000
C000
C000
C000
C000
C000
C000
FF80
FF80
ENDCHAR
STARTCHAR 013A
ENCODING 314
SWIDTH 541 0
DWIDTH 13 0
BBX 9 21 2 0
BITMAP
0E00
1C00
0000
0000
FC00
FC00
0C00
0C00
0C00
0C00
0C00
0C00
0C00
0C00
0C00
0C00
0C00
0C00
0C00
FF80
FF80
ENDCHAR
STARTCHAR 013B
ENCODING 315
SWIDTH 541 0
DWIDTH 13 0
BBX 9 20 3 -5
BITMAP
C000
C000
C000
C000
C000
C000
C000
C000
C000
C000
C000
C000
C000
FF80
FF80
0000
1800
1800
3000
3000
ENDCHAR
STARTCHAR 013C
ENCODING 316
SWIDTH 541 0
DWIDTH 13 0
BBX 9 22 2 -5
BITMAP
FC00
FC00
0C00
0C00
0C00
0C00
0C00
0C00
0C00
0C00
0C00
0C00
0C00
0C00
0C00
FF80
FF80
0000
0C00
0C00
1800
1800
ENDCHAR
STARTCHAR 013D
ENCODING 317
SWIDTH 541 0
DWIDTH 13 0
BBX 9 18 3 0
BITMAP
0180
0180
0300
C300
C000
C000
C000
C000
C000
C000
C000
C000
C000
C000
C000
C000
FF80
FF80
ENDCHAR
STARTCHAR 013E
ENCODING 318
SWIDTH 541 0
DWIDTH 13 0
BBX 11 18 2 0
BITMAP
0060
FC60
FCC0
0CC0
0C00
0C00
0C00
0C00
0C00
0C00
0C00
0C00
0C00
0C00
0C00
0C00
FF80
FF80
ENDCHAR
STARTCHAR 013F
ENCODING 319
SWIDTH 541 0
DWIDTH 13 0
BBX 11 15 3 0
BITMAP
C000
C000
C000
C000
C000
C000
C0C0
C1E0
C1E0
C0C0
C000
C000
C000
FF80
FF80
ENDCHAR
STARTCHAR 0140
ENCODING 320
SWIDTH 541 0
DWIDTH 13 0
BBX 14 17 1 0
BITMAP
FC00
FC00
0C00
0C00
0C00
0C00
0C00
0C00
0C18
0C3C
0C3C
0C18
0C00
0C00
0C00
FF80
FF80
ENDCHAR
STARTCHAR 0141
ENCODING 321
SWIDTH 541 0
DWIDTH 13 0
BBX 11 15 1 0
BITMAP
3000
3000
3000
3080
3780
3F00
7800
F000
B000
3000
3000
3000
3000
3FE0
3FE0
ENDCHAR
STARTCHAR 0142
ENCODING 322
SWIDTH 541 0
DWIDTH 13 0
BBX 10 17 2 0
BITMAP
FC00
FC00
0C00
0C00
0C40
0DC0
0F80
1E00
3C00
6C00
4C00
0C00
0C00
0C00
0C00
FFC0
FFC0
ENDCHAR
STARTCHAR 0143
ENCODING 323
SWIDTH 541 0
DWIDTH 13 0
BBX 11 19 1 0
BITMAP
0700
0E00
0000
0000
E060
F060
F060
D060
D860
C860
CC60
C460
C660
C660
C360
C360
C1E0
C1E0
C0E0
ENDCHAR
STARTCHAR 0144
ENCODING 324
SWIDTH 541 0
DWIDTH 13 0
BBX 9 17 2 0
BITMAP
0700
0E00
1C00
0000
0000
CE00
FF00
F380
E180
C180
C180
C180
C180
C180
C180
C180
C180
ENDCHAR
STARTCHAR 0145
ENCODING 325
SWIDTH 541 0
DWIDTH 13 0
BBX 11 20 1 -5
BITMAP
E060
F060
F060
D060
D860
C860
CC60
C460
C660
C660
C360
C360
C1E0
C1E0
C0E0
0000
0600
0600
0C00
0C00
ENDCHAR
STARTCHAR 0146
ENCODING 326
SWIDTH 541 0
DWIDTH 13 0
BBX 9 17 2 -5
BITMAP
CE00
FF00
F380
E180
C180
C180
C180
C180
C180
C180
C180
C180
0000
0C00
0C00
1800
1800
ENDCHAR
STARTCHAR 0147
ENCODING 327
SWIDTH 541 0
DWIDTH 13 0
BBX 11 19 1 0
BITMAP
3B80
0E00
0000
0000
E060
F060
F060
D060
D860
C860
CC60
C460
C660
C660
C360
C360
C1E0
C1E0
C0E0
ENDCHAR
STARTCHAR 0148
ENCODING 328
SWIDTH 541 0
DWIDTH 13 0
BBX 9 17 2 0
BITMAP
6300
3E00
1C00
0000
0000
CE00
FF00
F380
E180
C180
C180
C180
C180
C180
C180
C180
C180
ENDCHAR
STARTCHAR 0149
ENCODING 329
SWIDTH 541 0
DWIDTH 13 0
BBX 11 18 0 0
BITMAP
6000
7000
3000
3000
6000
C000
3380
3FC0
3CE0
3860
3060
3060
3060
3060
3060
3060
3060
3060
ENDCHAR
STARTCHAR 014A
ENCODING 330
SWIDTH 541 0
DWIDTH 13 0
BBX 10 20 1 -5
BITMAP
E0C0
E0C0
F0C0
F0C0
D8C0
D8C0
CCC0
CCC0
C6C0
C6C0
C3C0
C3C0
C1C0
C1C0
C0C0
00C0
00C0
0180
0780
0700
ENDCHAR
STARTCHAR 014B
ENCODING 331
SWIDTH 541 0
DWIDTH 13 0
BBX 9 17 2 -5
BITMAP
CE00
FF00
F380
E180
C180
C180
C180
C180
C180
C180
C180
C180
0180
0180
0380
0700
0600
ENDCHAR
STARTCHAR 014C
ENCODING 332
SWIDTH 541 0
DWIDTH 13 0
BBX 12 19 1 0
BITMAP
3F80
3F80
0000
0000
0F80
3FC0
70E0
6060
E030
C030
C030
C030
C030
C030
C070
6060
70E0
3FC0
1F00
ENDCHAR
STARTCHAR 014D
ENCODING 333
SWIDTH 541 0
DWIDTH 13 0
BBX 11 17 1 0
BITMAP
1F80
1F80
0000
0000
0000
1F00
3FC0
71C0
E0E0
C060
C060
C060
C060
E0E0
71C0
7F80
1F00
ENDCHAR
STARTCHAR 014E
ENCODING 334
SWIDTH 541 0
DWIDTH 13 0
BBX 12 20 1 0
BITMAP
3180
3F80
1F00
0000
0000
0F80
3FC0
70E0
6060
E030
C030
C030
C030
C030
C030
C070
6060
70E0
3FC0
1F00
ENDCHAR
STARTCHAR 014F
ENCODING 335
SWIDTH 541 0
DWIDTH 13 0
BBX 11 17 1 0
BITMAP
3180
3F80
1F00
0000
0000
1F00
3FC0
71C0
E0E0
C060
C060
C060
C060
E0E0
71C0
7F80
1F00
ENDCHAR
STARTCHAR 0150
ENCODING 336
SWIDTH 541 0
DWIDTH 13 0
BBX 12 19 1 0
BITMAP
0CE0
19C0
0000
0000
0F80
3FC0
70E0
6060
E030
C030
C030
C030
C030
C030
C070
6060
70E0
3FC0
1F00
ENDCHAR
STARTCHAR 0151
ENCODING 337
SWIDTH 541 0
DWIDTH 13 0
BBX 12 17 1 0
BITMAP
0E70
1CE0
39C0
0000
0000
1F00
3FC0
71C0
E0E0
C060
C060
C060
C060
E0E0
71C0
7F80
1F00
ENDCHAR
STARTCHAR 0152
ENCODING 338
SWIDTH 541 0
DWIDTH 13 0
BBX 12 15 0 0
BITMAP
1FF0
3FF0
7300
6300
C300
C300
C3F0
C3F0
C300
C300
C300
6300
7300
3FF0
1FF0
ENDCHAR
STARTCHAR 0153
ENCODING 339
SWIDTH 541 0
DWIDTH 13 0
BBX 12 12 0 0
BITMAP
39C0
7FE0
EF70
C630
C630
C7F0
C7F0
C600
C600
EF00
7FF0
39F0
ENDCHAR
STARTCHAR 0154
ENCODING 340
SWIDTH 541 0
DWIDTH 13 0
BBX 10 19 2 0
BITMAP
0E00
1C00
0000
0000
FE00
FF00
C380
C180
C180
C180
C300
FF00
FC00
C600
C700
C300
C380
C180
C1C0
ENDCHAR
STARTCHAR 0155
ENCODING 341
SWIDTH 541 0
DWIDTH 13 0
BBX 10 17 2 0
BITMAP
0700
0E00
1C00
0000
0000
CF00
DF80
F1C0
E0C0
C0C0
C000
C000
C000
C000
C000
C000
C000
ENDCHAR
STARTCHAR 0156
ENCODING 342
SWIDTH 541 0
DWIDTH 13 0
BBX 10 20 2 -5
BITMAP
FE00
FF00
C380
C180
C180
C180
C300
FF00
FC00
C600
C700
C300
C380
C180
C1C0
0000
0C00
0C00
1800
1800
ENDCHAR
STARTCHAR 0157
ENCODING 343
SWIDTH 541 0
DWIDTH 13 0
BBX 10 17 2 -5
BITMAP
CF00
DF80
F1C0
E0C0
C0C0
C000
C000
C000
C000
C000
C000
C000
0000
0C00
0C00
1800
1800
ENDCHAR
STARTCHAR 0158
ENCODING 344
SWIDTH 541 0
DWIDTH 13 0
BBX 10 19 2 0
BITMAP
7700
1C00
0000
0000
FE00
FF00
C380
C180
C180
C180
C300
FF00
FC00
C600
C700
C300
C380
C180
C1C0
ENDCHAR
STARTCHAR 0159
ENCODING 345
SWIDTH 541 0
DWIDTH 13 0
BBX 10 17 2 0
BITMAP
6300
3E00
1C00
0000
0000
CF00
DF80
F1C0
E0C0
C0C0
C000
C000
C000
C000
C000
C000
C000
ENDCHAR
STARTCHAR 015A
ENCODING 346
SWIDTH 541 0
DWIDTH 13 0
BBX 10 19 1 0
BITMAP
0700
0E00
0000
0000
1F00
7F80
E080
C000
C000
E000
7800
1F00
0780
01C0
00C0
00C0
81C0
FF80
7E00
ENDCHAR
STARTCHAR 015B
ENCODING 347
SWIDTH 541 0
DWIDTH 13 0
BBX 9 17 2 0
BITMAP
0700
0E00
1C00
0000
0000
3E00
7F00
C100
C000
E000
7C00
1F00
0380
0180
8180
FF00
7E00
ENDCHAR
STARTCHAR 015C
ENCODING 348
SWIDTH 541 0
DWIDTH 13 0
BBX 10 19 1 0
BITMAP
0E00
3B80
0000
0000
1F00
7F80
E080
C000
C000
E000
7800
1F00
0780
01C0
00C0
00C0
81C0
FF80
7E00
ENDCHAR
STARTCHAR 015D
ENCODING 349
SWIDTH 541 0
DWIDTH 13 0
BBX 9 17 2 0
BITMAP
1C00
3600
6300
0000
0000
3E00
7F00
C100
C000
E000
7C00
1F00
0380
0180
8180
FF00
7E00
ENDCHAR
STARTCHAR 015E
ENCODING 350
SWIDTH 541 0
DWIDTH 13 0
BBX 10 18 1 -3
BITMAP
1F00
7F80
E080
C000
C000
E000
7800
1F00
0780
01C0
00C0
00C0
81C0
FF80
7F00
0C00
1C00
1800
ENDCHAR
STARTCHAR 015F
ENCODING 351
SWIDTH 541 0
DWIDTH 13 0
BBX 9 15 2 -3
BITMAP
3E00
7F00
C100
C000
E000
7C00
1F00
0380
0180
8180
FF00
7E00
0C00
1C00
1800
ENDCHAR
STARTCHAR 0160
ENCODING 352
SWIDTH 541 0
DWIDTH 13 0
BBX 10 19 1 0
BITMAP
3B80
0E00
0000
0000
1F00
7F80
E080
C000
C000
E000
7800
1F00
0780
01C0
00C0
00C0
81C0
FF80
7E00
ENDCHAR
STARTCHAR 0161
ENCODING 353
SWIDTH 541 0
DWIDTH 13 0
BBX 9 17 2 0
BITMAP
6300
3E00
1C00
0000
0000
3E00
7F00
C100
C000
E000
7C00
1F00
0380
0180
8180
FF00
7E00
ENDCHAR
STARTCHAR 0162
ENCODING 354
SWIDTH 541 0
DWIDTH 13 0
BBX 12 18 1 -3
BITMAP
FFF0
FFF0
0600
0600
0600
0600
0600
0600
0600
0600
0600
0600
0600
0600
0600
0600
0E00
0C00
ENDCHAR
STARTCHAR 0163
ENCODING 355
SWIDTH 541 0
DWIDTH 13 0
BBX 11 19 1 -3
BITMAP
0800
1800
1800
1800
FFE0
FFE0
1800
1800
1800
1800
1800
1800
1C00
0C00
0FE0
07E0
0300
0700
0600
ENDCHAR
STARTCHAR 0164
ENCODING 356
SWIDTH 541 0
DWIDTH 13 0
BBX 12 19 1 0
BITMAP
3B80
0E00
0000
0000
FFF0
FFF0
0600
0600
0600
0600
0600
0600
0600
0600
0600
0600
0600
0600
0600
ENDCHAR
STARTCHAR 0165
ENCODING 357
SWIDTH 541 0
DWIDTH 13 0
BBX 12 18 1 0
BITMAP
0030
0030
0860
1860
1800
1800
FFE0
FFE0
1800
1800
1800
1800
1800
1800
1C00
0C00
0FE0
07E0
ENDCHAR
STARTCHAR 0166
ENCODING 358
SWIDTH 541 0
DWIDTH 13 0
BBX 12 15 1 0
BITMAP
FFF0
FFF0
0600
0600
0600
0600
3FC0
3FC0
0600
0600
0600
0600
0600
0600
0600
ENDCHAR
STARTCHAR 0167
ENCODING 359
SWIDTH 541 0
DWIDTH 13 0
BBX 11 16 1 0
BITMAP
1800
1800
1800
1800
FFE0
FFE0
1800
1800
1800
7FC0
7FC0
1800
1800
1C00
0FE0
07E0
ENDCHAR
STARTCHAR 0168
ENCODING 360
SWIDTH 541 0
DWIDTH 13 0
BBX 11 20 1 0
BITMAP
3C80
7FC0
2780
0000
0000
C060
C060
C060
C060
C060
C060
C060
C060
C060
C060
C060
C060
E0C0
7FC0
1F00
ENDCHAR
STARTCHAR 0169
ENCODING 361
SWIDTH 541 0
DWIDTH 13 0
BBX 9 17 2 0
BITMAP
7900
FF80
4F00
0000
0000
C180
C180
C180
C180
C180
C180
C180
C180
C380
E780
7F80
3980
ENDCHAR
STARTCHAR 016A
ENCODING 362
SWIDTH 541 0
DWIDTH 13 0
BBX 11 19 1 0
BITMAP
3F80
3F80
0000
0000
C060
C060
C060
C060
C060
C060
C060
C060
C060
C060
C060
C060
E0C0
7FC0
1F00
ENDCHAR
STARTCHAR 016B
ENCODING 363
SWIDTH 541 0
DWIDTH 13 0
BBX 9 17 2 0
BITMAP
3F00
3F00
0000
0000
0000
C180
C180
C180
C180
C180
C180
C180
C180
C380
E780
7F80
3980
ENDCHAR
STARTCHAR 016C
ENCODING 364
SWIDTH 541 0
DWIDTH 13 0
BBX 11 20 1 0
BITMAP
3180
3F80
1F00
0000
0000
C060
C060
C060
C060
C060
C060
C060
C060
C060
C060
C060
C060
E0C0
7FC0
1F00
ENDCHAR
STARTCHAR 016D
ENCODING 365
SWIDTH 541 0
DWIDTH 13 0
BBX 9 17 2 0
BITMAP
6300
7F00
3E00
0000
0000
C180
C180
C180
C180
C180
C180
C180
C180
C380
E780
7F80
3980
ENDCHAR
STARTCHAR 016E
ENCODING 366
SWIDTH 541 0
DWIDTH 13 0
BBX 11 20 1 0
BITMAP
0600
0900
0900
0600
0000
C060
C060
C060
C060
C060
C060
C060
C060
C060
C060
C060
C060
E0C0
7FC0
1F00
ENDCHAR
STARTCHAR 016F
ENCODING 367
SWIDTH 541 0
DWIDTH 13 0
BBX 9 17 2 0
BITMAP
1800
2400
2400
1800
0000
C180
C180
C180
C180
C180
C180
C180
C180
C380
E780
7F80
3980
ENDCHAR
STARTCHAR 0170
ENCODING 368
SWIDTH 541 0
DWIDTH 13 0
BBX 11 19 1 0
BITMAP
0CE0
19C0
0000
0000
C060
C060
C060
C060
C060
C060
C060
C060
C060
C060
C060
C060
E0C0
7FC0
1F00
ENDCHAR
STARTCHAR 0171
ENCODING 369
SWIDTH 541 0
DWIDTH 13 0
BBX 11 17 2 0
BITMAP
1CE0
39C0
7380
0000
0000
C180
C180
C180
C180
C180
C180
C180
C180
C380
E780
7F80
3980
ENDCHAR
STARTCHAR 0172
ENCODING 370
SWIDTH 541 0
DWIDTH 13 0
BBX 11 20 1 -5
BITMAP
C060
C060
C060
C060
C060
C060
C060
C060
C060
C060
C060
C060
E0C0
7FC0
1F00
0600
0C00
0C00
0C00
0700
ENDCHAR
STARTCHAR 0173
ENCODING 371
SWIDTH 541 0
DWIDTH 13 0
BBX 10 17 2 -5
BITMAP
C180
C180
C180
C180
C180
C180
C180
C180
C380
E780
7F80
3980
0180
0300
0300
0300
01C0
ENDCHAR
STARTCHAR 0174
ENCODING 372
SWIDTH 541 0
DWIDTH 13 0
BBX 11 19 1 0
BITMAP
0E00
3B80
0000
0000
C060
C060
C060
C060
C060
C460
C660
CA60
CA60
CA60
6B40
7BC0
7BC0
71C0
71C0
ENDCHAR
STARTCHAR 0175
ENCODING 373
SWIDTH 541 0
DWIDTH 13 0
BBX 11 17 1 0
BITMAP
0E00
1B00
3180
0000
0000
C060
C060
C060
C460
CE60
CA60
CA60
DB60
5B40
5140
71C0
71C0
ENDCHAR
STARTCHAR 0176
ENCODING 374
SWIDTH 541 0
DWIDTH 13 0
BBX 14 19 -1 0
BITMAP
0380
0EE0
0000
0000
C00C
6018
3038
3030
1860
1C60
0CC0
07C0
0780
0300
0300
0300
0300
0300
0300
ENDCHAR
STARTCHAR 0177
ENCODING 375
SWIDTH 541 0
DWIDTH 13 0
BBX 12 22 0 -5
BITMAP
0700
0D80
18C0
0000
0000
6030
6030
3060
3060
3060
18C0
18C0
0D80
0D80
0D00
0700
0700
0600
0E00
1C00
F800
F000
ENDCHAR
STARTCHAR 0178
ENCODING 376
SWIDTH 541 0
DWIDTH 13 0
BBX 14 20 -1 0
BITMAP
0C60
0C60
0C60
0000
0000
C00C
6018
3038
3030
1860
1C60
0CC0
07C0
0780
0300
0300
0300
0300
0300
0300
ENDCHAR
STARTCHAR 0179
ENCODING 377
SWIDTH 541 0
DWIDTH 13 0
BBX 11 19 1 0
BITMAP
0700
0E00
0000
0000
FFC0
FFC0
0180
0380
0300
0600
0600
0C00
1800
1800
3000
7000
6000
FFE0
FFE0
ENDCHAR
STARTCHAR 017A
ENCODING 378
SWIDTH 541 0
DWIDTH 13 0
BBX 9 17 2 0
BITMAP
0700
0E00
1C00
0000
0000
FF80
FF80
0300
0600
0600
0C00
1800
3000
3000
6000
FF80
FF80
ENDCHAR
STARTCHAR 017B
ENCODING 379
SWIDTH 541 0
DWIDTH 13 0
BBX 11 19 1 0
BITMAP
0E00
0E00
0E00
0000
FFC0
FFC0
0180
0380
0300
0600
0600
0C00
1800
1800
3000
7000
6000
FFE0
FFE0
ENDCHAR
STARTCHAR 017C
ENCODING 380
SWIDTH 541 0
DWIDTH 13 0
BBX 9 17 2 0
BITMAP
1C00
1C00
1C00
0000
0000
FF80
FF80
0300
0600
0600
0C00
1800
3000
3000
6000
FF80
FF80
ENDCHAR
STARTCHAR 017D
ENCODING 381
SWIDTH 541 0
DWIDTH 13 0
BBX 11 19 1 0
BITMAP
3B80
0E00
0000
0000
FFC0
FFC0
0180
0380
0300
0600
0600
0C00
1800
1800
3000
7000
6000
FFE0
FFE0
ENDCHAR
STARTCHAR 017E
ENCODING 382
SWIDTH 541 0
DWIDTH 13 0
BBX 9 17 2 0
BITMAP
6300
3E00
1C00
0000
0000
FF80
FF80
0300
0600
0600
0C00
1800
3000
3000
6000
FF80
FF80
ENDCHAR
STARTCHAR 017F
ENCODING 383
SWIDTH 541 0
DWIDTH 13 0
BBX 9 17 3 0
BITMAP
1F80
7F80
6000
C000
C000
C000
C000
C000
C000
C000
C000
C000
C000
C000
C000
C000
C000
ENDCHAR
STARTCHAR 0180
ENCODING 384
SWIDTH 541 0
DWIDTH 13 0
BBX 12 17 0 0
BITMAP
3000
3000
FE00
FE00
3000
33C0
3FE0
3C60
3830
3030
3030
3030
3030
3070
30E0
3FC0
1F80
ENDCHAR
STARTCHAR 0181
ENCODING 385
SWIDTH 541 0
DWIDTH 13 0
BBX 12 15 0 0
BITMAP
7F80
FFC0
D8E0
D860
1860
18C0
1F80
1FC0
1860
1830
1830
1830
1860
1FE0
1F80
ENDCHAR
STARTCHAR 0182
ENCODING 386
SWIDTH 541 0
DWIDTH 13 0
BBX 10 15 2 0
BITMAP
FF80
FF80
C000
C000
C000
C000
FE00
FF80
C1C0
C0C0
C0C0
C0C0
C180
FF80
FE00
ENDCHAR
STARTCHAR 0183
ENCODING 387
SWIDTH 541 0
DWIDTH 13 0
BBX 10 17 2 0
BITMAP
FF80
FF80
C000
C000
C000
CF00
FF80
F180
E0C0
C0C0
C0C0
C0C0
C0C0
C1C0
C380
FF00
7E00
ENDCHAR
STARTCHAR 0184
ENCODING 388
SWIDTH 541 0
DWIDTH 13 0
BBX 11 15 1 0
BITMAP
6000
E000
E000
6000
6000
6000
7F00
7FC0
60E0
6060
6060
6060
60C0
7FC0
7F00
ENDCHAR
STARTCHAR 0185
ENCODING 389
SWIDTH 541 0
DWIDTH 13 0
BBX 12 15 0 0
BITMAP
3000
F000
F000
33C0
3FE0
3C60
3830
3030
3030
3030
3030
3070
30E0
3FC0
1F80
ENDCHAR
STARTCHAR 0186
ENCODING 390
SWIDTH 541 0
DWIDTH 13 0
BBX 10 15 2 0
BITMAP
7C00
FF00
8380
0180
01C0
00C0
00C0
00C0
00C0
00C0
01C0
0180
8380
FF00
7C00
ENDCHAR
STARTCHAR 0187
ENCODING 391
SWIDTH 541 0
DWIDTH 13 0
BBX 12 18 1 0
BITMAP
0070
00F0
00C0
0FC0
3FC0
7040
6000
E000
C000
C000
C000
C000
C000
C000
6000
7040
3FC0
0F80
ENDCHAR
STARTCHAR 0188
ENCODING 392
SWIDTH 541 0
DWIDTH 13 0
BBX 11 15 2 0
BITMAP
00E0
01E0
0180
1F80
3F80
7080
E000
C000
C000
C000
C000
E000
7080
7F80
1F00
ENDCHAR
STARTCHAR 0189
ENCODING 393
SWIDTH 541 0
DWIDTH 13 0
BBX 13 15 0 0
BITMAP
3F80
3FE0
3070
3030
3018
3018
FE18
FE18
3018
3018
3038
3030
30F0
3FE0
3F80
ENDCHAR
STARTCHAR 018A
ENCODING 394
SWIDTH 541 0
DWIDTH 13 0
BBX 12 15 0 0
BITMAP
7F00
FFC0
D8E0
D860
D830
1830
1830
1830
1830
1830
1870
1860
18E0
1FC0
1F00
ENDCHAR
STARTCHAR 018B
ENCODING 395
SWIDTH 541 0
DWIDTH 13 0
BBX 10 15 1 0
BITMAP
7FC0
7FC0
00C0
00C0
00C0
00C0
1FC0
7FC0
E0C0
C0C0
C0C0
C0C0
60C0
7FC0
1FC0
ENDCHAR
STARTCHAR 018C
ENCODING 396
SWIDTH 541 0
DWIDTH 13 0
BBX 10 17 1 0
BITMAP
7FC0
7FC0
00C0
00C0
00C0
1FC0
3FC0
70C0
E0C0
C0C0
C0C0
C0C0
C0C0
C1C0
63C0
7EC0
3CC0
ENDCHAR
STARTCHAR 018D
ENCODING 397
SWIDTH 541 0
DWIDTH 13 0
BBX 10 17 1 0
BITMAP
1E00
7F80
6180
C1C0
C0C0
C0C0
C0C0
C0C0
6180
7380
3F00
1E00
0700
0300
0300
7F00
7C00
ENDCHAR
STARTCHAR 018E
ENCODING 398
SWIDTH 541 0
DWIDTH 13 0
BBX 9 15 2 0
BITMAP
FF80
FF80
0180
0180
0180
0180
FF80
FF80
0180
0180
0180
0180
0180
FF80
FF80
ENDCHAR
STARTCHAR 018F
ENCODING 399
SWIDTH 541 0
DWIDTH 13 0
BBX 12 15 1 0
BITMAP
3F00
7FC0
00E0
0060
0030
0030
FFF0
FFF0
C030
C030
C030
6060
70E0
3FC0
1F00
ENDCHAR
STARTCHAR 0190
ENCODING 400
SWIDTH 541 0
DWIDTH 13 0
BBX 10 15 1 0
BITMAP
1FC0
3FC0
7040
6000
6000
3000
1F80
3F80
6000
C000
C000
C000
E040
7FC0
1F80
ENDCHAR
STARTCHAR 0191
ENCODING 401
SWIDTH 541 0
DWIDTH 13 0
BBX 12 19 -1 -4
BITMAP
1FF0
1FF0
1800
1800
1800
1800
1800
1FF0
1FF0
1800
1800
1800
1800
1800
1800
1800
1800
F800
F000
ENDCHAR
STARTCHAR 0192
ENCODING 402
SWIDTH 541 0
DWIDTH 13 0
BBX 12 20 1 -3
BITMAP
00F0
03F0
0300
0700
0600
0600
0600
7FE0
7FE0
0E00
0E00
0C00
0C00
0C00
0C00
0C00
1C00
1800
F800
F000
ENDCHAR
STARTCHAR 0193
ENCODING 403
SWIDTH 541 0
DWIDTH 13 0
BBX 13 18 1 0
BITMAP
0038
0078
0060
0FE0
1FE0
3820
6000
E000
C000
C3E0
C3E0
C060
C060
E060
6060
7860
3FE0
0FC0
ENDCHAR
STARTCHAR 0194
ENCODING 404
SWIDTH 541 0
DWIDTH 13 0
BBX 13 15 0 0
BITMAP
C018
6030
6030
3060
38C0
18C0
1D80
0D80
0F00
0700
0F00
0D80
18C0
3FC0
3FE0
ENDCHAR
STARTCHAR 0195
ENCODING 405
SWIDTH 541 0
DWIDTH 13 0
BBX 11 17 1 0
BITMAP
C000
C000
C000
C000
C000
DC60
FE60
E660
C660
C660
C660
C660
C660
C660
C660
C7E0
C3C0
ENDCHAR
STARTCHAR 0196
ENCODING 406
SWIDTH 541 0
DWIDTH 13 0
BBX 6 17 5 0
BITMAP
C0
C0
C0
C0
C0
C0
C0
C0
C0
C0
C0
C0
C0
C0
E0
FC
3C
ENDCHAR
STARTCHAR 0197
ENCODING 407
SWIDTH 541 0
DWIDTH 13 0
BBX 10 15 2 0
BITMAP
FFC0
FFC0
0C00
0C00
0C00
0C00
7F00
7F00
0C00
0C00
0C00
0C00
0C00
FFC0
FFC0
ENDCHAR
STARTCHAR 0198
ENCODING 408
SWIDTH 541 0
DWIDTH 13 0
BBX 10 15 2 0
BITMAP
C1C0
C3C0
C700
C600
CC00
D800
F800
F000
D800
CC00
CE00
C700
C380
C180
C0C0
ENDCHAR
STARTCHAR 0199
ENCODING 409
SWIDTH 541 0
DWIDTH 13 0
BBX 10 17 2 0
BITMAP
3C00
7C00
E000
C000
C000
C1C0
C380
C700
CE00
D800
F000
D800
CC00
C600
C300
C180
C0C0
ENDCHAR
STARTCHAR 019A
ENCODING 410
SWIDTH 541 0
DWIDTH 13 0
BBX 9 17 2 0
BITMAP
FC00
FC00
0C00
0C00
0C00
0C00
0C00
7F00
7F00
0C00
0C00
0C00
0C00
0C00
0C00
FF80
FF80
ENDCHAR
STARTCHAR 019B
ENCODING 411
SWIDTH 541 0
DWIDTH 13 0
BBX 12 17 1 0
BITMAP
7800
7F00
0E00
3C00
2600
0600
0E00
0F00
1B00
1B00
3380
3180
6180
61C0
60C0
C0F0
C070
ENDCHAR
STARTCHAR 019C
ENCODING 412
SWIDTH 541 0
DWIDTH 13 0
BBX 11 15 1 0
BITMAP
C660
C660
C660
C660
C660
C660
C660
C660
C660
C660
C660
C660
CEE0
FFE0
7360
ENDCHAR
STARTCHAR 019D
ENCODING 413
SWIDTH 541 0
DWIDTH 13 0
BBX 13 20 -1 -5
BITMAP
3818
3C18
3C18
3418
3618
3218
3318
3118
3198
3198
30D8
30D8
3078
3078
3038
3000
3000
3000
E000
E000
ENDCHAR
STARTCHAR 019E
ENCODING 414
SWIDTH 541 0
DWIDTH 13 0
BBX 10 17 1 -5
BITMAP
C700
DF80
79C0
70C0
60C0
60C0
60C0
60C0
60C0
60C0
60C0
60C0
00C0
00C0
00C0
00C0
00C0
ENDCHAR
STARTCHAR 019F
ENCODING 415
SWIDTH 541 0
DWIDTH 13 0
BBX 12 15 1 0
BITMAP
0F80
3FC0
70E0
6060
C030
C030
FFF0
FFF0
C030
C030
C070
6060
70E0
3FC0
1F00
ENDCHAR
STARTCHAR 01A0
ENCODING 416
SWIDTH 541 0
DWIDTH 13 0
BBX 13 17 1 0
BITMAP
0018
0018
0F98
3FF0
70E0
6060
E030
C030
C030
C030
C030
C030
C070
6060
70E0
3FC0
1F00
ENDCHAR
STARTCHAR 01A1
ENCODING 417
SWIDTH 541 0
DWIDTH 13 0
BBX 13 14 1 0
BITMAP
0018
0018
1F18
3FF0
71E0
E0E0
C060
C060
C060
C060
E0E0
71C0
7F80
1F00
ENDCHAR
STARTCHAR 01A2
ENCODING 418
SWIDTH 541 0
DWIDTH 13 0
BBX 11 15 1 0
BITMAP
3FE0
7FE0
6660
C660
C660
C660
C660
C660
C660
C660
C660
C660
6660
7E60
3C60
ENDCHAR
STARTCHAR 01A3
ENCODING 419
SWIDTH 541 0
DWIDTH 13 0
BBX 11 12 1 0
BITMAP
3FE0
7FE0
E660
C660
C660
C660
C660
C660
C660
E660
7E60
3C60
ENDCHAR
STARTCHAR 01A4
ENCODING 420
SWIDTH 541 0
DWIDTH 13 0
BBX 12 15 0 0
BITMAP
7F80
FFE0
CC70
CC30
0C30
0C30
0C30
0C60
0FE0
0F80
0C00
0C00
0C00
0C00
0C00
ENDCHAR
STARTCHAR 01A5
ENCODING 421
SWIDTH 541 0
DWIDTH 13 0
BBX 10 22 2 -5
BITMAP
3C00
7C00
E000
C000
C000
CF00
FF80
F180
E0C0
C0C0
C0C0
C0C0
C0C0
C1C0
C380
FF00
FE00
C000
C000
C000
C000
C000
ENDCHAR
STARTCHAR 01A6
ENCODING 422
SWIDTH 541 0
DWIDTH 13 0
BBX 10 17 2 -2
BITMAP
C000
C000
FE00
FF00
C380
C180
C180
C180
C300
FF00
FC00
C600
C700
C300
C380
0180
01C0
ENDCHAR
STARTCHAR 01A7
ENCODING 423
SWIDTH 541 0
DWIDTH 13 0
BBX 10 15 2 0
BITMAP
7F00
7F80
01C0
00C0
00C0
0380
0F00
3E00
7000
E000
C000
C000
E040
7FC0
3FC0
ENDCHAR
STARTCHAR 01A8
ENCODING 424
SWIDTH 541 0
DWIDTH 13 0
BBX 9 12 2 0
BITMAP
FE00
FF00
0180
0180
0380
1F00
7C00
E000
C000
C080
7F80
3F00
ENDCHAR
STARTCHAR 01A9
ENCODING 425
SWIDTH 541 0
DWIDTH 13 0
BBX 11 15 1 0
BITMAP
FFE0
FFE0
6000
3000
1800
1C00
0E00
0600
0C00
1800
3800
7000
6000
FFE0
FFE0
ENDCHAR
STARTCHAR 01AA
ENCODING 426
SWIDTH 541 0
DWIDTH 13 0
BBX 10 23 1 -5
BITMAP
3800
7C00
C600
C600
C600
FE00
3E00
0600
0600
0600
0600
0600
0600
0600
0600
0600
0600
0600
0600
0600
0600
07C0
03C0
ENDCHAR
STARTCHAR 01AB
ENCODING 427
SWIDTH 541 0
DWIDTH 13 0
BBX 11 21 1 -5
BITMAP
1800
1800
1800
1800
FFE0
FFE0
1800
1800
1800
1800
1800
1800
1800
1C00
0FE0
07E0
0060
0060
0060
03E0
03C0
ENDCHAR
STARTCHAR 01AC
ENCODING 428
SWIDTH 541 0
DWIDTH 13 0
BBX 12 15 1 0
BITMAP
7FF0
FFF0
C600
C600
0600
0600
0600
0600
0600
0600
0600
0600
0600
0600
0600
ENDCHAR
STARTCHAR 01AD
ENCODING 429
SWIDTH 541 0
DWIDTH 13 0
BBX 10 17 1 0
BITMAP
0780
0F80
1C00
1800
1800
FFC0
FFC0
1800
1800
1800
1800
1800
1800
1800
1C00
0FC0
07C0
ENDCHAR
STARTCHAR 01AE
ENCODING 430
SWIDTH 541 0
DWIDTH 13 0
BBX 12 20 1 -5
BITMAP
FFF0
FFF0
0600
0600
0600
0600
0600
0600
0600
0600
0600
0600
0600
0600
0600
0600
0600
0700
07E0
01E0
ENDCHAR
STARTCHAR 01AF
ENCODING 431
SWIDTH 541 0
DWIDTH 13 0
BBX 12 17 1 0
BITMAP
0030
0030
C1B0
C1B0
C1E0
C180
C180
C180
C180
C180
C180
C180
C180
C180
E380
7F00
3E00
ENDCHAR
STARTCHAR 01B0
ENCODING 432
SWIDTH 541 0
DWIDTH 13 0
BBX 12 14 1 0
BITMAP
0030
0030
C1B0
C1B0
C1E0
C180
C180
C180
C180
C180
C380
E780
7F80
3D80
ENDCHAR
STARTCHAR 01B1
ENCODING 433
SWIDTH 541 0
DWIDTH 13 0
BBX 12 15 1 0
BITMAP
F9F0
F9F0
30C0
6060
6060
C030
C030
C030
C030
C030
C030
6060
70E0
3FC0
1F00
ENDCHAR
STARTCHAR 01B2
ENCODING 434
SWIDTH 541 0
DWIDTH 13 0
BBX 11 15 1 0
BITMAP
C3C0
C3E0
C060
C060
C060
C060
C060
C060
C060
C060
C060
C060
E0C0
7FC0
1F00
ENDCHAR
STARTCHAR 01B3
ENCODING 435
SWIDTH 541 0
DWIDTH 13 0
BBX 13 15 1 0
BITMAP
C038
6078
6060
30E0
30C0
1980
1980
0F00
0F00
0600
0600
0600
0600
0600
0600
ENDCHAR
STARTCHAR 01B4
ENCODING 436
SWIDTH 541 0
DWIDTH 13 0
BBX 13 17 0 -5
BITMAP
6038
6078
3060
30E0
38C0
18C0
19C0
1D80
0D80
0D80
0700
0700
0600
0E00
1C00
F800
F000
ENDCHAR
STARTCHAR 01B5
ENCODING 437
SWIDTH 541 0
DWIDTH 13 0
BBX 10 15 1 0
BITMAP
FFC0
FFC0
0180
0380
0300
0600
7FC0
7FC0
1C00
1800
3000
7000
6000
FFC0
FFC0
ENDCHAR
STARTCHAR 01B6
ENCODING 438
SWIDTH 541 0
DWIDTH 13 0
BBX 9 12 2 0
BITMAP
FF80
FF80
0380
0300
0600
7F80
7F80
3800
7000
6000
FF80
FF80
ENDCHAR
STARTCHAR 01B7
ENCODING 439
SWIDTH 541 0
DWIDTH 13 0
BBX 9 15 2 0
BITMAP
FF00
FF00
0600
0400
0800
1800
3C00
3F00
0380
0180
0180
0180
0300
FF00
FC00
ENDCHAR
STARTCHAR 01B8
ENCODING 440
SWIDTH 541 0
DWIDTH 13 0
BBX 9 15 2 0
BITMAP
7F80
7F80
2000
1000
0800
0400
1E00
7E00
E000
C000
C000
C000
E000
7F80
1F80
ENDCHAR
STARTCHAR 01B9
ENCODING 441
SWIDTH 541 0
DWIDTH 13 0
BBX 9 16 2 -4
BITMAP
7F80
7F80
2000
1000
0800
0400
1E00
7E00
7000
C000
C000
C000
C000
6000
7F80
1F80
ENDCHAR
STARTCHAR 01BA
ENCODING 442
SWIDTH 541 0
DWIDTH 13 0
BBX 9 17 2 -5
BITMAP
FF00
FF00
0600
0C00
1800
3E00
3F00
0380
0180
0180
0180
0700
7E00
C000
C000
FC00
7C00
ENDCHAR
STARTCHAR 01BB
ENCODING 443
SWIDTH 541 0
DWIDTH 13 0
BBX 10 15 2 0
BITMAP
3E00
FF00
4380
0180
0180
0180
0380
FFC0
FFC0
0E00
1C00
3800
7000
FFC0
FFC0
ENDCHAR
STARTCHAR 01BC
ENCODING 444
SWIDTH 541 0
DWIDTH 13 0
BBX 11 15 0 0
BITMAP
FFC0
FFC0
1800
1800
1000
3000
3F00
3FC0
00E0
0060
0060
0060
00C0
3F80
3F00
ENDCHAR
STARTCHAR 01BD
ENCODING 445
SWIDTH 541 0
DWIDTH 13 0
BBX 9 12 2 0
BITMAP
FF00
FF00
3000
2000
7E00
7F00
0380
0180
0180
0380
FF00
FC00
ENDCHAR
STARTCHAR 01BE
ENCODING 446
SWIDTH 541 0
DWIDTH 13 0
BBX 8 14 2 0
BITMAP
30
30
FE
FE
30
38
1E
07
03
03
03
0F
7E
78
ENDCHAR
STARTCHAR 01BF
ENCODING 447
SWIDTH 541 0
DWIDTH 13 0
BBX 10 17 2 -5
BITMAP
CF00
DF80
F1C0
E0C0
C0C0
C0C0
C0C0
C1C0
C180
C700
FE00
F800
C000
C000
C000
C000
C000
ENDCHAR
STARTCHAR 01C0
ENCODING 448
SWIDTH 541 0
DWIDTH 13 0
BBX 2 24 6 -5
BITMAP
C0
C0
C0
C0
C0
C0
C0
C0
C0
C0
C0
C0
C0
C0
C0
C0
C0
C0
C0
C0
C0
C0
C0
C0
ENDCHAR
STARTCHAR 01C1
ENCODING 449
SWIDTH 541 0
DWIDTH 13 0
BBX 6 24 4 -5
BITMAP
CC
CC
CC
CC
CC
CC
CC
CC
CC
CC
CC
CC
CC
CC
CC
CC
CC
CC
CC
CC
CC
CC
CC
CC
ENDCHAR
STARTCHAR 01C2
ENCODING 450
SWIDTH 541 0
DWIDTH 13 0
BBX 9 24 2 -5
BITMAP
1800
1800
1800
1800
1800
1800
1800
1800
FF80
FF80
1800
1800
1800
FF80
FF80
1800
1800
1800
1800
1800
1800
1800
1800
1800
ENDCHAR
STARTCHAR 01C3
ENCODING 451
SWIDTH 541 0
DWIDTH 13 0
BBX 3 17 5 0
BITMAP
C0
C0
C0
C0
C0
C0
C0
C0
C0
C0
C0
C0
00
00
E0
E0
E0
ENDCHAR
STARTCHAR 01C4
ENCODING 452
SWIDTH 541 0
DWIDTH 13 0
BBX 12 19 1 0
BITMAP
00F0
0060
0000
0000
F1F0
FDF0
CC30
CE30
C660
C660
C660
C660
C6C0
C6C0
C6C0
CD80
CD80
F9F0
F1F0
ENDCHAR
STARTCHAR 01C5
ENCODING 453
SWIDTH 541 0
DWIDTH 13 0
BBX 12 17 1 0
BITMAP
0330
01E0
F0C0
FC00
CC00
CFF0
C7F0
C630
C660
C660
C660
C6C0
C6C0
CCC0
CD80
F9F0
F1F0
ENDCHAR
STARTCHAR 01C6
ENCODING 454
SWIDTH 541 0
DWIDTH 13 0
BBX 12 17 1 0
BITMAP
0DB0
0CA0
0C40
0C00
0C00
3DF0
7DF0
CC30
CC60
CC60
CC60
CCC0
CCC0
CCC0
CD80
7DF0
7DF0
ENDCHAR
STARTCHAR 01C7
ENCODING 455
SWIDTH 541 0
DWIDTH 13 0
BBX 10 15 1 0
BITMAP
C7C0
C7C0
C0C0
C0C0
C0C0
C0C0
C0C0
C0C0
C0C0
C0C0
C0C0
C0C0
C0C0
FB80
FB00
ENDCHAR
STARTCHAR 01C8
ENCODING 456
SWIDTH 541 0
DWIDTH 13 0
BBX 10 22 1 -5
BITMAP
01C0
01C0
C1C0
C000
C000
C7C0
C7C0
C0C0
C0C0
C0C0
C0C0
C0C0
C0C0
C0C0
C0C0
F8C0
F8C0
00C0
00C0
01C0
0F80
0F00
ENDCHAR
STARTCHAR 01C9
ENCODING 457
SWIDTH 541 0
DWIDTH 13 0
BBX 11 22 1 -5
BITMAP
F0E0
F0E0
30E0
3000
3000
33E0
33E0
3060
3060
3060
3060
3060
3060
3060
3060
FE60
FE60
0060
0060
00E0
07C0
0780
ENDCHAR
STARTCHAR 01CA
ENCODING 458
SWIDTH 541 0
DWIDTH 13 0
BBX 12 15 1 0
BITMAP
E6F0
E6F0
E630
E630
F630
F630
F630
D630
DE30
DE30
DE30
CE30
CE30
CEE0
CEC0
ENDCHAR
STARTCHAR 01CB
ENCODING 459
SWIDTH 541 0
DWIDTH 13 0
BBX 12 22 1 -5
BITMAP
0070
0070
E670
E600
E600
E6F0
F6F0
F630
F630
D630
DE30
DE30
DE30
CE30
CE30
CE30
CE30
0030
0030
0070
03E0
03C0
ENDCHAR
STARTCHAR 01CC
ENCODING 460
SWIDTH 541 0
DWIDTH 13 0
BBX 12 22 1 -5
BITMAP
0070
0070
0070
0000
0000
DCF0
FEF0
E630
C630
C630
C630
C630
C630
C630
C630
C630
C630
0030
0030
0070
03E0
03C0
ENDCHAR
STARTCHAR 01CD
ENCODING 461
SWIDTH 541 0
DWIDTH 13 0
BBX 12 19 1 0
BITMAP
3B80
0E00
0000
0000
0E00
0B00
1B00
1B00
1980
3180
3180
30C0
30C0
60C0
7FE0
7FE0
C070
C030
C030
ENDCHAR
STARTCHAR 01CE
ENCODING 462
SWIDTH 541 0
DWIDTH 13 0
BBX 10 17 2 0
BITMAP
6300
3E00
1C00
0000
0000
3F00
7F80
41C0
00C0
00C0
3FC0
7FC0
E0C0
C0C0
C3C0
FFC0
3CC0
ENDCHAR
STARTCHAR 01CF
ENCODING 463
SWIDTH 541 0
DWIDTH 13 0
BBX 10 19 2 0
BITMAP
7700
1C00
0000
0000
FFC0
FFC0
0C00
0C00
0C00
0C00
0C00
0C00
0C00
0C00
0C00
0C00
0C00
FFC0
FFC0
ENDCHAR
STARTCHAR 01D0
ENCODING 464
SWIDTH 541 0
DWIDTH 13 0
BBX 9 17 2 0
BITMAP
6300
3E00
1C00
0000
0000
FC00
FC00
0C00
0C00
0C00
0C00
0C00
0C00
0C00
0C00
FF80
FF80
ENDCHAR
STARTCHAR 01D1
ENCODING 465
SWIDTH 541 0
DWIDTH 13 0
BBX 12 19 1 0
BITMAP
3B80
0E00
0000
0000
0F80
3FC0
70E0
6060
E030
C030
C030
C030
C030
C030
C070
6060
70E0
3FC0
1F00
ENDCHAR
STARTCHAR 01D2
ENCODING 466
SWIDTH 541 0
DWIDTH 13 0
BBX 11 17 1 0
BITMAP
3180
1F00
0E00
0000
0000
1F00
3FC0
71C0
E0E0
C060
C060
C060
C060
E0E0
71C0
7F80
1F00
ENDCHAR
STARTCHAR 01D3
ENCODING 467
SWIDTH 541 0
DWIDTH 13 0
BBX 11 19 1 0
BITMAP
3B80
0E00
0000
0000
C060
C060
C060
C060
C060
C060
C060
C060
C060
C060
C060
C060
E0C0
7FC0
1F00
ENDCHAR
STARTCHAR 01D4
ENCODING 468
SWIDTH 541 0
DWIDTH 13 0
BBX 9 17 2 0
BITMAP
6300
3E00
1C00
0000
0000
C180
C180
C180
C180
C180
C180
C180
C180
C380
E780
7F80
3980
ENDCHAR
STARTCHAR 01D5
ENCODING 469
SWIDTH 541 0
DWIDTH 13 0
BBX 11 23 1 0
BITMAP
1F00
1F00
0000
3180
3180
3180
0000
0000
C060
C060
C060
C060
C060
C060
C060
C060
C060
C060
C060
C060
E0C0
7FC0
1F00
ENDCHAR
STARTCHAR 01D6
ENCODING 470
SWIDTH 541 0
DWIDTH 13 0
BBX 9 19 2 0
BITMAP
3E00
3E00
0000
6300
6300
6300
0000
C180
C180
C180
C180
C180
C180
C180
C180
C380
E780
7F80
3980
ENDCHAR
STARTCHAR 01D7
ENCODING 471
SWIDTH 541 0
DWIDTH 13 0
BBX 11 23 1 0
BITMAP
0300
0600
0000
3180
3180
3180
0000
0000
C060
C060
C060
C060
C060
C060
C060
C060
C060
C060
C060
C060
E0C0
7FC0
1F00
ENDCHAR
STARTCHAR 01D8
ENCODING 472
SWIDTH 541 0
DWIDTH 13 0
BBX 9 19 2 0
BITMAP
0600
0C00
0000
6300
6300
6300
0000
C180
C180
C180
C180
C180
C180
C180
C180
C380
E780
7F80
3980
ENDCHAR
STARTCHAR 01D9
ENCODING 473
SWIDTH 541 0
DWIDTH 13 0
BBX 11 23 1 0
BITMAP
3180
1B00
0E00
0000
3180
3180
0000
0000
C060
C060
C060
C060
C060
C060
C060
C060
C060
C060
C060
C060
E0C0
7FC0
1F00
ENDCHAR
STARTCHAR 01DA
ENCODING 474
SWIDTH 541 0
DWIDTH 13 0
BBX 9 21 2 0
BITMAP
6300
3600
1C00
0000
6300
6300
6300
0000
0000
C180
C180
C180
C180
C180
C180
C180
C180
C380
E780
7F80
3980
ENDCHAR
STARTCHAR 01DB
ENCODING 475
SWIDTH 541 0
DWIDTH 13 0
BBX 11 23 1 0
BITMAP
1800
0C00
0000
3180
3180
3180
0000
0000
C060
C060
C060
C060
C060
C060
C060
C060
C060
C060
C060
C060
E0C0
7FC0
1F00
ENDCHAR
STARTCHAR 01DC
ENCODING 476
SWIDTH 541 0
DWIDTH 13 0
BBX 9 19 2 0
BITMAP
3000
1800
0000
6300
6300
6300
0000
C180
C180
C180
C180
C180
C180
C180
C180
C380
E780
7F80
3980
ENDCHAR
STARTCHAR 01DD
ENCODING 477
SWIDTH 541 0
DWIDTH 13 0
BBX 11 12 1 0
BITMAP
7F00
7FC0
01C0
0060
0060
FFE0
FFE0
C060
C060
61C0
7F80
1F00
ENDCHAR
STARTCHAR 01DE
ENCODING 478
SWIDTH 541 0
DWIDTH 13 0
BBX 12 23 1 0
BITMAP
1F00
1F00
0000
3180
3180
3180
0000
0000
0E00
0B00
1B00
1B00
1980
3180
3180
30C0
30C0
60C0
7FE0
7FE0
C070
C030
C030
ENDCHAR
STARTCHAR 01DF
ENCODING 479
SWIDTH 541 0
DWIDTH 13 0
BBX 10 19 2 0
BITMAP
3E00
3E00
0000
6300
6300
6300
0000
3F00
7F80
41C0
00C0
00C0
3FC0
7FC0
E0C0
C0C0
C3C0
FFC0
3CC0
ENDCHAR
STARTCHAR 01E0
ENCODING 480
SWIDTH 541 0
DWIDTH 13 0
BBX 12 23 1 0
BITMAP
3F80
3F80
0000
0C00
0C00
0C00
0000
0000
0E00
0B00
1B00
1B00
1980
3180
3180
30C0
30C0
60C0
7FE0
7FE0
C070
C030
C030
ENDCHAR
STARTCHAR 01E1
ENCODING 481
SWIDTH 541 0
DWIDTH 13 0
BBX 10 19 2 0
BITMAP
3F00
3F00
0000
1800
1800
1800
0000
3F00
7F80
41C0
00C0
00C0
3FC0
7FC0
E0C0
C0C0
C3C0
FFC0
3CC0
ENDCHAR
STARTCHAR 01E2
ENCODING 482
SWIDTH 541 0
DWIDTH 13 0
BBX 13 19 0 0
BITMAP
07F0
07F0
0000
0000
03F8
07F8
0780
0580
0D80
0D80
19F8
19F8
1180
3180
3F80
7F80
6180
61F8
C1F8
ENDCHAR
STARTCHAR 01E3
ENCODING 483
SWIDTH 541 0
DWIDTH 13 0
BBX 12 17 0 0
BITMAP
0FC0
0FC0
0000
0000
0000
39C0
7FE0
4730
0630
0630
3FF0
FFF0
C600
C600
CF00
FBF0
71F0
ENDCHAR
STARTCHAR 01E4
ENCODING 484
SWIDTH 541 0
DWIDTH 13 0
BBX 12 15 1 0
BITMAP
0FC0
1FE0
3820
6000
E000
C000
C000
C3E0
C3E0
C060
E3F0
63F0
7860
3FE0
0FC0
ENDCHAR
STARTCHAR 01E5
ENCODING 485
SWIDTH 541 0
DWIDTH 13 0
BBX 12 17 1 -5
BITMAP
1FE0
3FE0
71C0
60C0
60C0
60C0
31C0
3F80
7F00
6000
7F80
3FC0
6060
FFF0
70E0
3FC0
1F80
ENDCHAR
STARTCHAR 01E6
ENCODING 486
SWIDTH 541 0
DWIDTH 13 0
BBX 11 19 1 0
BITMAP
3B80
0E00
0000
0000
0FC0
1FE0
3820
6000
E000
C000
C3E0
C3E0
C060
C060
E060
6060
7860
3FE0
0FC0
ENDCHAR
STARTCHAR 01E7
ENCODING 487
SWIDTH 541 0
DWIDTH 13 0
BBX 11 22 1 -5
BITMAP
3180
1F00
0E00
0000
0000
1FE0
3FE0
71C0
60C0
60C0
71C0
3F80
7F00
C000
C000
7F80
7FE0
C060
C060
E0E0
FFC0
3F00
ENDCHAR
STARTCHAR 01E8
ENCODING 488
SWIDTH 541 0
DWIDTH 13 0
BBX 10 19 2 0
BITMAP
7700
1C00
0000
0000
C0C0
C180
C300
C600
CE00
CC00
D800
F000
D800
CC00
CE00
C700
C300
C180
C0C0
ENDCHAR
STARTCHAR 01E9
ENCODING 489
SWIDTH 541 0
DWIDTH 13 0
BBX 10 19 2 0
BITMAP
3B80
0E00
C000
C000
C000
C000
C000
C1C0
C380
C700
CE00
D800
F000
D800
CC00
C600
C300
C180
C0C0
ENDCHAR
STARTCHAR 01EA
ENCODING 490
SWIDTH 541 0
DWIDTH 13 0
BBX 12 20 1 -5
BITMAP
0F80
3FC0
70E0
6060
E030
C030
C030
C030
C030
C030
C070
6060
70E0
3FC0
1F00
0600
0C00
0C00
0C00
0700
ENDCHAR
STARTCHAR 01EB
ENCODING 491
SWIDTH 541 0
DWIDTH 13 0
BBX 11 17 1 -5
BITMAP
1F00
3FC0
71C0
E0E0
C060
C060
C060
C060
E0E0
71C0
7F80
1F00
0600
0C00
0C00
0C00
0700
ENDCHAR
STARTCHAR 01EC
ENCODING 492
SWIDTH 541 0
DWIDTH 13 0
BBX 12 24 1 -5
BITMAP
3F80
3F80
0000
0000
0F80
3FC0
70E0
6060
E030
C030
C030
C030
C030
C030
C070
6060
70E0
3FC0
1F00
0600
0C00
0C00
0C00
0700
ENDCHAR
STARTCHAR 01ED
ENCODING 493
SWIDTH 541 0
DWIDTH 13 0
BBX 11 22 1 -5
BITMAP
1F80
1F80
0000
0000
0000
1F00
3FC0
71C0
E0E0
C060
C060
C060
C060
E0E0
71C0
7F80
1F00
0600
0C00
0C00
0C00
0700
ENDCHAR
STARTCHAR 01EE
ENCODING 494
SWIDTH 541 0
DWIDTH 13 0
BBX 9 19 2 0
BITMAP
7700
1C00
0000
0000
FF00
FF00
0600
0400
0800
1800
3C00
3F00
0380
0180
0180
0180
0300
FF00
FC00
ENDCHAR
STARTCHAR 01EF
ENCODING 495
SWIDTH 541 0
DWIDTH 13 0
BBX 9 21 2 -4
BITMAP
6300
3E00
1C00
0000
0000
FF00
FF00
0600
0400
0800
1000
3C00
3F00
0700
0180
0180
0180
0180
0300
FF00
FC00
ENDCHAR
STARTCHAR 01F0
ENCODING 496
SWIDTH 541 0
DWIDTH 13 0
BBX 8 22 2 -5
BITMAP
C6
7C
38
00
00
FF
FF
03
03
03
03
03
03
03
03
03
03
03
03
86
FE
78
ENDCHAR
STARTCHAR 01F1
ENCODING 497
SWIDTH 541 0
DWIDTH 13 0
BBX 12 15 1 0
BITMAP
F3F0
FFF0
CC30
CE60
C660
C660
C6C0
C6C0
C6C0
C780
C780
CD80
CF00
FBF0
F3F0
ENDCHAR
STARTCHAR 01F2
ENCODING 498
SWIDTH 541 0
DWIDTH 13 0
BBX 12 15 1 0
BITMAP
F000
FC00
CC00
CFF0
C7F0
C630
C660
C660
C660
C6C0
C6C0
CCC0
CD80
F9F0
F1F0
ENDCHAR
STARTCHAR 01F3
ENCODING 499
SWIDTH 541 0
DWIDTH 13 0
BBX 12 17 1 0
BITMAP
0C00
0C00
0C00
0C00
0C00
3DF0
7DF0
CC30
CC60
CC60
CC60
CCC0
CCC0
CCC0
CD80
7DF0
7DF0
ENDCHAR
STARTCHAR 01F4
ENCODING 500
SWIDTH 541 0
DWIDTH 13 0
BBX 11 19 1 0
BITMAP
0700
0E00
0000
0000
0FC0
1FE0
3820
6000
E000
C000
C3E0
C3E0
C060
C060
E060
6060
7860
3FE0
0FC0
ENDCHAR
STARTCHAR 01F5
ENCODING 501
SWIDTH 541 0
DWIDTH 13 0
BBX 11 22 1 -5
BITMAP
0700
0E00
1C00
0000
0000
1FE0
3FE0
71C0
60C0
60C0
71C0
3F80
7F00
C000
C000
7F80
7FE0
C060
C060
E0E0
FFC0
3F00
ENDCHAR
STARTCHAR 01F6
ENCODING 502
SWIDTH 541 0
DWIDTH 13 0
BBX 11 15 1 0
BITMAP
C600
C600
C600
C660
C660
C660
FE60
FE60
C660
C660
C660
C660
C660
C7E0
C3C0
ENDCHAR
STARTCHAR 01F7
ENCODING 503
SWIDTH 541 0
DWIDTH 13 0
BBX 11 20 1 -5
BITMAP
CF80
FFC0
E0E0
C060
C060
C060
C060
C060
C0C0
C1C0
C380
C700
DE00
F800
E000
C000
C000
C000
C000
C000
ENDCHAR
STARTCHAR 01F8
ENCODING 504
SWIDTH 541 0
DWIDTH 13 0
BBX 11 19 1 0
BITMAP
1C00
0E00
0000
0000
E060
F060
F060
D060
D860
C860
CC60
C460
C660
C660
C360
C360
C1E0
C1E0
C0E0
ENDCHAR
STARTCHAR 01F9
ENCODING 505
SWIDTH 541 0
DWIDTH 13 0
BBX 9 17 2 0
BITMAP
3800
1C00
0E00
0000
0000
CE00
FF00
F380
E180
C180
C180
C180
C180
C180
C180
C180
C180
ENDCHAR
STARTCHAR 01FA
ENCODING 506
SWIDTH 541 0
DWIDTH 13 0
BBX 12 22 1 0
BITMAP
0380
0000
0C00
1200
1200
0C00
0000
0E00
0B00
1B00
1B00
1980
3180
3180
30C0
30C0
60C0
7FE0
7FE0
C070
C030
C030
ENDCHAR
STARTCHAR 01FB
ENCODING 507
SWIDTH 541 0
DWIDTH 13 0
BBX 10 20 2 0
BITMAP
0E00
1C00
0000
1800
2400
2400
1800
0000
3F00
7F80
41C0
00C0
00C0
3FC0
7FC0
E0C0
C0C0
C3C0
FFC0
3CC0
ENDCHAR
STARTCHAR 01FC
ENCODING 508
SWIDTH 541 0
DWIDTH 13 0
BBX 13 19 0 0
BITMAP
01C0
0380
0000
0000
03F8
07F8
0780
0580
0D80
0D80
19F8
19F8
1180
3180
3F80
7F80
6180
61F8
C1F8
ENDCHAR
STARTCHAR 01FD
ENCODING 509
SWIDTH 541 0
DWIDTH 13 0
BBX 12 17 0 0
BITMAP
01C0
0380
0700
0000
0000
39C0
7FE0
4730
0630
0630
3FF0
FFF0
C600
C600
CF00
FBF0
71F0
ENDCHAR
STARTCHAR 01FE
ENCODING 510
SWIDTH 541 0
DWIDTH 13 0
BBX 12 22 1 -3
BITMAP
0E00
1CC0
00C0
0080
0F80
3FC0
71E0
6360
E330
C230
C630
C630
C630
C430
CC70
6C60
78E0
3FC0
1F00
1000
3000
3000
ENDCHAR
STARTCHAR 01FF
ENCODING 511
SWIDTH 541 0
DWIDTH 13 0
BBX 11 20 1 -3
BITMAP
0700
0E00
1C00
0180
0180
1F00
3F80
73C0
E2E0
C660
C660
C460
CC60
ECE0
79C0
3F80
1F00
1800
3000
3000
ENDCHAR
STARTCHAR 0200
ENCODING 512
SWIDTH 541 0
DWIDTH 13 0
BBX 12 19 1 0
BITMAP
C300
6180
0000
0000
0E00
0B00
1B00
1B00
1980
3180
3180
30C0
30C0
60C0
7FE0
7FE0
C070
C030
C030
ENDCHAR
STARTCHAR 0201
ENCODING 513
SWIDTH 541 0
DWIDTH 13 0
BBX 12 17 0 0
BITMAP
E380
31C0
18E0
0000
0000
0FC0
1FE0
1070
0030
0030
0FF0
1FF0
3830
3030
30F0
3FF0
0F30
ENDCHAR
STARTCHAR 0202
ENCODING 514
SWIDTH 541 0
DWIDTH 13 0
BBX 12 20 1 0
BITMAP
1E00
3F00
3300
0000
0000
0E00
0B00
1B00
1B00
1980
3180
3180
30C0
30C0
60C0
7FE0
7FE0
C070
C030
C030
ENDCHAR
STARTCHAR 0203
ENCODING 515
SWIDTH 541 0
DWIDTH 13 0
BBX 10 17 2 0
BITMAP
1E00
3F00
3300
0000
0000
3F00
7F80
41C0
00C0
00C0
3FC0
7FC0
E0C0
C0C0
C3C0
FFC0
3CC0
ENDCHAR
STARTCHAR 0204
ENCODING 516
SWIDTH 541 0
DWIDTH 13 0
BBX 10 19 1 0
BITMAP
C300
6180
0000
0000
7FC0
7FC0
6000
6000
6000
6000
7FC0
7FC0
6000
6000
6000
6000
6000
7FC0
7FC0
ENDCHAR
STARTCHAR 0205
ENCODING 517
SWIDTH 541 0
DWIDTH 13 0
BBX 11 17 0 0
BITMAP
E380
31C0
18E0
0000
0000
0F00
1FC0
30C0
6060
6060
7FE0
7FE0
6000
6000
3040
3FC0
0F80
ENDCHAR
STARTCHAR 0206
ENCODING 518
SWIDTH 541 0
DWIDTH 13 0
BBX 9 20 2 0
BITMAP
3C00
7E00
6600
0000
0000
FF80
FF80
C000
C000
C000
C000
FF80
FF80
C000
C000
C000
C000
C000
FF80
FF80
ENDCHAR
STARTCHAR 0207
ENCODING 519
SWIDTH 541 0
DWIDTH 13 0
BBX 10 17 1 0
BITMAP
0F00
1F80
1980
0000
0000
1E00
3F80
6180
C0C0
C0C0
FFC0
FFC0
C000
C000
6080
7F80
1F00
ENDCHAR
STARTCHAR 0208
ENCODING 520
SWIDTH 541 0
DWIDTH 13 0
BBX 11 19 1 0
BITMAP
C300
6180
0000
0000
7FE0
7FE0
0600
0600
0600
0600
0600
0600
0600
0600
0600
0600
0600
7FE0
7FE0
ENDCHAR
STARTCHAR 0209
ENCODING 521
SWIDTH 541 0
DWIDTH 13 0
BBX 11 17 0 0
BITMAP
E380
31C0
18E0
0000
0000
3F00
3F00
0300
0300
0300
0300
0300
0300
0300
0300
3FE0
3FE0
ENDCHAR
STARTCHAR 020A
ENCODING 522
SWIDTH 541 0
DWIDTH 13 0
BBX 10 20 2 0
BITMAP
3C00
7E00
6600
0000
0000
FFC0
FFC0
0C00
0C00
0C00
0C00
0C00
0C00
0C00
0C00
0C00
0C00
0C00
FFC0
FFC0
ENDCHAR
STARTCHAR 020B
ENCODING 523
SWIDTH 541 0
DWIDTH 13 0
BBX 9 17 2 0
BITMAP
1E00
3F00
3300
0000
0000
FC00
FC00
0C00
0C00
0C00
0C00
0C00
0C00
0C00
0C00
FF80
FF80
ENDCHAR
STARTCHAR 020C
ENCODING 524
SWIDTH 541 0
DWIDTH 13 0
BBX 12 19 1 0
BITMAP
C300
6180
0000
0000
0F80
3FC0
70E0
6060
E030
C030
C030
C030
C030
C030
C070
6060
70E0
3FC0
1F00
ENDCHAR
STARTCHAR 020D
ENCODING 525
SWIDTH 541 0
DWIDTH 13 0
BBX 12 17 0 0
BITMAP
E380
31C0
18E0
0000
0000
0F80
1FE0
38E0
7070
6030
6030
6030
6030
7070
38E0
3FC0
0F80
ENDCHAR
STARTCHAR 020E
ENCODING 526
SWIDTH 541 0
DWIDTH 13 0
BBX 12 20 1 0
BITMAP
1E00
3F00
3300
0000
0000
0F80
3FC0
70E0
6060
E030
C030
C030
C030
C030
C030
C070
6060
70E0
3FC0
1F00
ENDCHAR
STARTCHAR 020F
ENCODING 527
SWIDTH 541 0
DWIDTH 13 0
BBX 11 17 1 0
BITMAP
0F00
1F80
1980
0000
0000
1F00
3FC0
71C0
E0E0
C060
C060
C060
C060
E0E0
71C0
7F80
1F00
ENDCHAR
STARTCHAR 0210
ENCODING 528
SWIDTH 541 0
DWIDTH 13 0
BBX 11 19 1 0
BITMAP
C300
6180
0000
0000
7F00
7F80
61C0
60C0
60C0
60C0
6180
7F80
7E00
6300
6380
6180
61C0
60C0
60E0
ENDCHAR
STARTCHAR 0211
ENCODING 529
SWIDTH 541 0
DWIDTH 13 0
BBX 12 17 0 0
BITMAP
E380
31C0
18E0
0000
0000
33C0
37E0
3C70
3830
3030
3000
3000
3000
3000
3000
3000
3000
ENDCHAR
STARTCHAR 0212
ENCODING 530
SWIDTH 541 0
DWIDTH 13 0
BBX 10 20 2 0
BITMAP
3C00
7E00
6600
0000
0000
FE00
FF00
C380
C180
C180
C180
C300
FF00
FC00
C600
C700
C300
C380
C180
C1C0
ENDCHAR
STARTCHAR 0213
ENCODING 531
SWIDTH 541 0
DWIDTH 13 0
BBX 10 17 2 0
BITMAP
1E00
3F00
3300
0000
0000
CF00
DF80
F1C0
E0C0
C0C0
C000
C000
C000
C000
C000
C000
C000
ENDCHAR
STARTCHAR 0214
ENCODING 532
SWIDTH 541 0
DWIDTH 13 0
BBX 11 19 1 0
BITMAP
C300
6180
0000
0000
C060
C060
C060
C060
C060
C060
C060
C060
C060
C060
C060
C060
E0C0
7FC0
1F00
ENDCHAR
STARTCHAR 0215
ENCODING 533
SWIDTH 541 0
DWIDTH 13 0
BBX 11 17 0 0
BITMAP
E380
31C0
18E0
0000
0000
3060
3060
3060
3060
3060
3060
3060
3060
30E0
39E0
1FE0
0E60
ENDCHAR
STARTCHAR 0216
ENCODING 534
SWIDTH 541 0
DWIDTH 13 0
BBX 11 20 1 0
BITMAP
1E00
3F00
3300
0000
0000
C060
C060
C060
C060
C060
C060
C060
C060
C060
C060
C060
C060
E0C0
7FC0
1F00
ENDCHAR
STARTCHAR 0217
ENCODING 535
SWIDTH 541 0
DWIDTH 13 0
BBX 9 17 2 0
BITMAP
1E00
3F00
3300
0000
0000
C180
C180
C180
C180
C180
C180
C180
C180
C380
E780
7F80
3980
ENDCHAR
STARTCHAR 0218
ENCODING 536
SWIDTH 541 0
DWIDTH 13 0
BBX 10 20 1 -5
BITMAP
1F00
7F80
E080
C000
C000
E000
7800
1F00
0780
01C0
00C0
00C0
81C0
FF80
7E00
0000
0600
0600
0C00
0C00
ENDCHAR
STARTCHAR 0219
ENCODING 537
SWIDTH 541 0
DWIDTH 13 0
BBX 9 17 2 -5
BITMAP
3E00
7F00
C100
C000
E000
7C00
1F00
0380
0180
8180
FF00
7E00
0000
0C00
0C00
1800
1800
ENDCHAR
STARTCHAR 021A
ENCODING 538
SWIDTH 541 0
DWIDTH 13 0
BBX 12 20 1 -5
BITMAP
FFF0
FFF0
0600
0600
0600
0600
0600
0600
0600
0600
0600
0600
0600
0600
0600
0000
0600
0600
0C00
0C00
ENDCHAR
STARTCHAR 021B
ENCODING 539
SWIDTH 541 0
DWIDTH 13 0
BBX 11 21 1 -5
BITMAP
0800
1800
1800
1800
FFE0
FFE0
1800
1800
1800
1800
1800
1800
1C00
0C00
0FE0
07E0
0000
0600
0600
0C00
0C00
ENDCHAR
STARTCHAR 021C
ENCODING 540
SWIDTH 541 0
DWIDTH 13 0
BBX 9 15 2 0
BITMAP
FF00
FF00
0600
0400
0800
1800
3C00
3F00
0380
0180
0180
0180
0300
FF00
FC00
ENDCHAR
STARTCHAR 021D
ENCODING 541
SWIDTH 541 0
DWIDTH 13 0
BBX 9 15 2 -3
BITMAP
FF00
FF00
0600
0400
0800
1000
3C00
3F00
0380
0180
0180
0180
0380
FF00
FC00
ENDCHAR
STARTCHAR 021E
ENCODING 542
SWIDTH 541 0
DWIDTH 13 0
BBX 11 19 1 0
BITMAP
3B80
0E00
0000
0000
C060
C060
C060
C060
C060
C060
FFE0
FFE0
C060
C060
C060
C060
C060
C060
C060
ENDCHAR
STARTCHAR 021F
ENCODING 543
SWIDTH 541 0
DWIDTH 13 0
BBX 9 19 2 0
BITMAP
7700
1C00
C000
C000
C000
C000
C000
CE00
FF00
F380
E180
C180
C180
C180
C180
C180
C180
C180
C180
ENDCHAR
STARTCHAR 0220
ENCODING 544
SWIDTH 541 0
DWIDTH 13 0
BBX 11 20 1 -5
BITMAP
CF80
DFC0
F0E0
E060
C060
C060
C060
C060
C060
C060
C060
C060
C060
C060
C060
0060
0060
0060
0060
0060
ENDCHAR
STARTCHAR 0221
ENCODING 545
SWIDTH 541 0
DWIDTH 13 0
BBX 15 21 1 -4
BITMAP
00C0
00C0
00C0
00C0
00C0
1FC0
3FC0
70C0
E0C0
C0C0
C0C0
C0C0
C0C0
C1C0
63C0
7EC0
3CC0
00DC
0066
0066
00DC
ENDCHAR
STARTCHAR 0222
ENCODING 546
SWIDTH 541 0
DWIDTH 13 0
BBX 11 15 1 0
BITMAP
60C0
60C0
60C0
71C0
3B80
1F00
1F00
3B80
60C0
C060
C060
C060
E0E0
7FC0
3F00
ENDCHAR
STARTCHAR 0223
ENCODING 547
SWIDTH 541 0
DWIDTH 13 0
BBX 11 17 1 0
BITMAP
60C0
60C0
60C0
71C0
3B80
1E00
1F00
3B80
3180
60C0
C060
C060
C060
C060
60C0
7FC0
1F00
ENDCHAR
STARTCHAR 0224
ENCODING 548
SWIDTH 541 0
DWIDTH 13 0
BBX 11 20 1 -5
BITMAP
FFE0
FFE0
00C0
01C0
0380
0300
0700
0E00
1C00
1C00
3800
7000
6000
FFE0
FFE0
0060
0060
0060
01E0
01C0
ENDCHAR
STARTCHAR 0225
ENCODING 549
SWIDTH 541 0
DWIDTH 13 0
BBX 9 17 2 -5
BITMAP
FF80
FF80
0180
0300
0600
0C00
1C00
3800
7000
6000
FF80
FF80
0180
0180
0180
0F00
0F00
ENDCHAR
STARTCHAR 0226
ENCODING 550
SWIDTH 541 0
DWIDTH 13 0
BBX 12 19 1 0
BITMAP
0E00
0E00
0E00
0000
0E00
0B00
1B00
1B00
1980
3180
3180
30C0
30C0
60C0
7FE0
7FE0
C070
C030
C030
ENDCHAR
STARTCHAR 0227
ENCODING 551
SWIDTH 541 0
DWIDTH 13 0
BBX 10 17 2 0
BITMAP
1C00
1C00
1C00
0000
0000
3F00
7F80
41C0
00C0
00C0
3FC0
7FC0
E0C0
C0C0
C3C0
FFC0
3CC0
ENDCHAR
STARTCHAR 0228
ENCODING 552
SWIDTH 541 0
DWIDTH 13 0
BBX 9 18 2 -3
BITMAP
FF80
FF80
C000
C000
C000
C000
FF80
FF80
C000
C000
C000
C000
C000
FF80
FF80
0C00
1C00
1800
ENDCHAR
STARTCHAR 0229
ENCODING 553
SWIDTH 541 0
DWIDTH 13 0
BBX 10 15 1 -3
BITMAP
1E00
3F80
6180
C0C0
C0C0
FFC0
FFC0
C000
C000
6080
7F80
1F00
0600
0E00
0C00
ENDCHAR
STARTCHAR 022A
ENCODING 554
SWIDTH 541 0
DWIDTH 13 0
BBX 12 23 1 0
BITMAP
1F00
1F00
0000
3180
3180
3180
0000
0000
0F80
3FC0
70E0
6060
E030
C030
C030
C030
C030
C030
C070
6060
70E0
3FC0
1F00
ENDCHAR
STARTCHAR 022B
ENCODING 555
SWIDTH 541 0
DWIDTH 13 0
BBX 11 19 1 0
BITMAP
1F00
1F00
0000
3180
3180
3180
0000
1F00
3FC0
71C0
E0E0
C060
C060
C060
C060
E0E0
71C0
7F80
1F00
ENDCHAR
STARTCHAR 022C
ENCODING 556
SWIDTH 541 0
DWIDTH 13 0
BBX 12 22 1 0
BITMAP
3F80
3F80
0000
3C80
7FC0
2780
0000
0F80
3FC0
70E0
6060
E030
C030
C030
C030
C030
C030
C070
6060
70E0
3FC0
1F00
ENDCHAR
STARTCHAR 022D
ENCODING 557
SWIDTH 541 0
DWIDTH 13 0
BBX 11 20 1 0
BITMAP
1F80
1F80
0000
3C80
7FC0
2780
0000
0000
1F00
3FC0
71C0
E0E0
C060
C060
C060
C060
E0E0
71C0
7F80
1F00
ENDCHAR
STARTCHAR 022E
ENCODING 558
SWIDTH 541 0
DWIDTH 13 0
BBX 12 19 1 0
BITMAP
0E00
0E00
0E00
0000
0F80
3FC0
70E0
6060
E030
C030
C030
C030
C030
C030
C070
6060
70E0
3FC0
1F00
ENDCHAR
STARTCHAR 022F
ENCODING 559
SWIDTH 541 0
DWIDTH 13 0
BBX 11 17 1 0
BITMAP
0E00
0E00
0E00
0000
0000
1F00
3FC0
71C0
E0E0
C060
C060
C060
C060
E0E0
71C0
7F80
1F00
ENDCHAR
STARTCHAR 0230
ENCODING 560
SWIDTH 541 0
DWIDTH 13 0
BBX 12 23 1 0
BITMAP
3F80
3F80
0000
0C00
0C00
0C00
0000
0000
0F80
3FC0
70E0
6060
E030
C030
C030
C030
C030
C030
C070
6060
70E0
3FC0
1F00
ENDCHAR
STARTCHAR 0231
ENCODING 561
SWIDTH 541 0
DWIDTH 13 0
BBX 11 19 1 0
BITMAP
1F80
1F80
0000
0C00
0C00
0C00
0000
1F00
3FC0
71C0
E0E0
C060
C060
C060
C060
E0E0
71C0
7F80
1F00
ENDCHAR
STARTCHAR 0232
ENCODING 562
SWIDTH 541 0
DWIDTH 13 0
BBX 14 19 -1 0
BITMAP
0FE0
0FE0
0000
0000
C00C
6018
3038
3030
1860
1C60
0CC0
07C0
0780
0300
0300
0300
0300
0300
0300
ENDCHAR
STARTCHAR 0233
ENCODING 563
SWIDTH 541 0
DWIDTH 13 0
BBX 12 22 0 -5
BITMAP
0FC0
0FC0
0000
0000
0000
6030
6030
3060
3060
3060
18C0
18C0
0D80
0D80
0D00
0700
0700
0600
0E00
1C00
F800
F000
ENDCHAR
STARTCHAR 0234
ENCODING 564
SWIDTH 541 0
DWIDTH 13 0
BBX 10 22 3 -5
BITMAP
F800
F800
1800
1800
1800
1800
1800
1800
1800
1800
1800
1800
1800
1800
1800
1800
1800
1B80
1CC0
0CC0
1CC0
1B80
ENDCHAR
STARTCHAR 0235
ENCODING 565
SWIDTH 541 0
DWIDTH 13 0
BBX 15 17 2 -5
BITMAP
CE00
FF00
F380
C180
C180
C180
C180
C180
C180
C180
C180
C180
01BC
01E6
00C6
01E6
01BC
ENDCHAR
STARTCHAR 0236
ENCODING 566
SWIDTH 541 0
DWIDTH 13 0
BBX 10 21 1 -5
BITMAP
1800
1800
1800
1800
FFC0
FFC0
1800
1800
1800
1800
1800
1800
1800
1800
1800
1800
1B80
1CC0
0CC0
1CC0
1B80
ENDCHAR
STARTCHAR 0237
ENCODING 567
SWIDTH 541 0
DWIDTH 13 0
BBX 8 17 2 -5
BITMAP
FF
FF
03
03
03
03
03
03
03
03
03
03
03
03
86
FE
78
ENDCHAR
STARTCHAR 0238
ENCODING 568
SWIDTH 541 0
DWIDTH 13 0
BBX 12 17 1 0
BITMAP
0600
0600
0600
0600
0600
3FC0
7FE0
E670
C630
C630
C630
C630
C630
C630
E670
7FE0
3FC0
ENDCHAR
STARTCHAR 0239
ENCODING 569
SWIDTH 541 0
DWIDTH 13 0
BBX 11 17 1 -5
BITMAP
75C0
7FC0
E660
C660
C660
C660
C660
C660
C660
E660
7FC0
3F80
0600
0600
0600
0600
0600
ENDCHAR
STARTCHAR 023A
ENCODING 570
SWIDTH 541 0
DWIDTH 13 0
BBX 15 19 -1 -2
BITMAP
0006
000C
0398
02F8
06F0
06E0
06E0
0CE0
0DE0
0FB0
1F30
1E30
1FF8
1FF8
381C
380C
300C
6000
E000
ENDCHAR
STARTCHAR 023B
ENCODING 571
SWIDTH 541 0
DWIDTH 13 0
BBX 15 19 -1 -2
BITMAP
0006
000C
03F8
0FF8
1C30
1860
38E0
30C0
3180
3380
3300
3600
3E00
1C00
1C10
3FF0
33E0
6000
E000
ENDCHAR
STARTCHAR 023C
ENCODING 572
SWIDTH 541 0
DWIDTH 13 0
BBX 12 15 1 -2
BITMAP
0030
0FE0
1FC0
38C0
7180
6300
6300
6600
6C00
7C00
3840
3FC0
3F80
6000
C000
ENDCHAR
STARTCHAR 023D
ENCODING 573
SWIDTH 541 0
DWIDTH 13 0
BBX 11 15 1 0
BITMAP
3000
3000
3000
3000
3000
3000
FE00
FE00
3000
3000
3000
3000
3000
3FE0
3FE0
ENDCHAR
STARTCHAR 023E
ENCODING 574
SWIDTH 541 0
DWIDTH 13 0
BBX 15 19 0 -2
BITMAP
0006
000C
7FF8
7FF8
0330
0360
03E0
03C0
0380
0380
0300
0700
0F00
0F00
1B00
3B00
3300
6000
E000
ENDCHAR
STARTCHAR 023F
ENCODING 575
SWIDTH 541 0
DWIDTH 13 0
BBX 9 17 2 -5
BITMAP
3F00
7F00
C000
C000
E000
7C00
1F00
0380
0180
0180
FF00
FE00
3800
1800
0C00
0F00
0700
ENDCHAR
STARTCHAR 0240
ENCODING 576
SWIDTH 541 0
DWIDTH 13 0
BBX 10 17 2 -5
BITMAP
FF80
FF80
0100
0300
0600
0C00
1800
3000
6000
4000
F000
FC00
0C00
0600
0600
03C0
01C0
ENDCHAR
STARTCHAR 0241
ENCODING 577
SWIDTH 541 0
DWIDTH 13 0
BBX 7 17 3 0
BITMAP
E0
F8
1C
0C
06
06
06
06
06
0E
0C
7C
70
60
60
60
60
ENDCHAR
STARTCHAR 0242
ENCODING 578
SWIDTH 541 0
DWIDTH 13 0
BBX 7 12 3 0
BITMAP
E0
F8
1C
0E
06
06
06
0E
7C
78
60
60
ENDCHAR
STARTCHAR 0243
ENCODING 579
SWIDTH 541 0
DWIDTH 13 0
BBX 12 15 0 0
BITMAP
3F80
3FC0
30E0
3060
3060
30E0
3FC0
3FE0
3070
3030
FE30
FE30
3060
3FE0
3F80
ENDCHAR
STARTCHAR 0244
ENCODING 580
SWIDTH 541 0
DWIDTH 13 0
BBX 13 15 0 0
BITMAP
6030
6030
6030
6030
6030
6030
FFF8
FFF8
6030
6030
6030
6030
7060
3FE0
0F80
ENDCHAR
STARTCHAR 0245
ENCODING 581
SWIDTH 541 0
DWIDTH 13 0
BBX 13 15 0 0
BITMAP
0700
0780
0D80
0D80
1DC0
18C0
18C0
38E0
3060
3060
6030
6030
E038
C018
C018
ENDCHAR
STARTCHAR 0246
ENCODING 582
SWIDTH 541 0
DWIDTH 13 0
BBX 15 19 -1 -2
BITMAP
0006
000C
1FF8
1FF8
1830
1860
18E0
18C0
1FF0
1FF0
1B00
1E00
1E00
1C00
1800
3FF0
3FF0
6000
E000
ENDCHAR
STARTCHAR 0247
ENCODING 583
SWIDTH 541 0
DWIDTH 13 0
BBX 12 15 1 -2
BITMAP
0030
1E60
3FC0
61C0
C1C0
C3C0
FFC0
FFC0
CC00
CC00
7880
7F80
3F00
6000
C000
ENDCHAR
STARTCHAR 0248
ENCODING 584
SWIDTH 541 0
DWIDTH 13 0
BBX 10 15 2 0
BITMAP
FF00
FF00
0300
0300
0300
0300
1FC0
1FC0
0300
0300
0300
0300
8700
FE00
7C00
ENDCHAR
STARTCHAR 0249
ENCODING 585
SWIDTH 541 0
DWIDTH 13 0
BBX 10 22 2 -5
BITMAP
0700
0700
0700
0000
0000
FF00
FF00
0300
0300
0300
1FC0
1FC0
0300
0300
0300
0300
0300
0300
0300
8600
FE00
7800
ENDCHAR
STARTCHAR 024A
ENCODING 586
SWIDTH 541 0
DWIDTH 13 0
BBX 13 20 1 -5
BITMAP
0FE0
3FE0
70E0
6060
C060
C060
C060
C060
C060
C060
C060
60E0
71E0
3FE0
1E60
0060
0060
0060
0078
0038
ENDCHAR
STARTCHAR 024B
ENCODING 587
SWIDTH 541 0
DWIDTH 13 0
BBX 12 17 1 -4
BITMAP
1FC0
3FC0
70C0
E0C0
C0C0
C0C0
C0C0
C0C0
C1C0
63C0
7EC0
3CC0
00C0
00C0
00C0
00F0
0070
ENDCHAR
STARTCHAR 024C
ENCODING 588
SWIDTH 541 0
DWIDTH 13 0
BBX 12 15 0 0
BITMAP
3F80
3FC0
30E0
3060
3060
3060
30C0
FFC0
FF00
3180
31C0
30C0
30E0
3060
3070
ENDCHAR
STARTCHAR 024D
ENCODING 589
SWIDTH 541 0
DWIDTH 13 0
BBX 12 12 1 0
BITMAP
33C0
37E0
3C70
3830
3030
FE00
FE00
3000
3000
3000
3000
3000
ENDCHAR
STARTCHAR 024E
ENCODING 590
SWIDTH 541 0
DWIDTH 13 0
BBX 14 15 0 0
BITMAP
E01C
6018
3030
FFFC
FFFC
1CE0
0CC0
0780
0780
0300
0300
0300
0300
0300
0300
ENDCHAR
STARTCHAR 024F
ENCODING 591
SWIDTH 541 0
DWIDTH 13 0
BBX 13 17 0 -5
BITMAP
6030
6030
7070
3060
3060
FFF8
FFF8
19C0
0D80
0D80
0780
0700
0700
0E00
1E00
FC00
F000
ENDCHAR
STARTCHAR 0250
ENCODING 592
SWIDTH 541 0
DWIDTH 13 0
BBX 10 12 2 0
BITMAP
CF00
FFC0
F0C0
C0C0
C1C0
FF80
FF00
C000
C000
E080
7F80
3F00
ENDCHAR
STARTCHAR 0251
ENCODING 593
SWIDTH 541 0
DWIDTH 13 0
BBX 10 12 1 0
BITMAP
1FC0
3FC0
70C0
E0C0
C0C0
C0C0
C0C0
C0C0
C1C0
63C0
7EC0
3CC0
ENDCHAR
STARTCHAR 0252
ENCODING 594
SWIDTH 541 0
DWIDTH 13 0
BBX 10 12 2 0
BITMAP
CF00
FF80
F180
E0C0
C0C0
C0C0
C0C0
C0C0
C1C0
C380
FF00
7E00
ENDCHAR
STARTCHAR 0253
ENCODING 595
SWIDTH 541 0
DWIDTH 13 0
BBX 10 17 2 0
BITMAP
3C00
7C00
E000
C000
C000
CF00
FF80
F180
E0C0
C0C0
C0C0
C0C0
C0C0
C1C0
C380
FF00
7E00
ENDCHAR
STARTCHAR 0254
ENCODING 596
SWIDTH 541 0
DWIDTH 13 0
BBX 9 12 2 0
BITMAP
FC00
FE00
8700
0380
0180
0180
0180
0180
0380
8700
FE00
FC00
ENDCHAR
STARTCHAR 0255
ENCODING 597
SWIDTH 541 0
DWIDTH 13 0
BBX 11 14 2 -2
BITMAP
0FC0
3FC0
7040
E000
C000
C000
C000
C1C0
E3E0
7660
3FE0
1F80
0600
0600
ENDCHAR
STARTCHAR 0256
ENCODING 598
SWIDTH 541 0
DWIDTH 13 0
BBX 13 22 1 -5
BITMAP
00C0
00C0
00C0
00C0
00C0
1FC0
3FC0
70C0
E0C0
C0C0
C0C0
C0C0
C0C0
C1C0
63C0
7EC0
3CC0
00C0
00C0
00C0
00F8
0078
ENDCHAR
STARTCHAR 0257
ENCODING 599
SWIDTH 541 0
DWIDTH 13 0
BBX 13 17 1 0
BITMAP
0038
0078
00E0
00C0
00C0
1FC0
3FC0
70C0
E0C0
C0C0
C0C0
C0C0
C0C0
C1C0
63C0
7EC0
3CC0
ENDCHAR
STARTCHAR 0258
ENCODING 600
SWIDTH 541 0
DWIDTH 13 0
BBX 10 12 1 0
BITMAP
1E00
7F00
6180
C0C0
C0C0
FFC0
FFC0
00C0
00C0
0180
7F80
7E00
ENDCHAR
STARTCHAR 0259
ENCODING 601
SWIDTH 541 0
DWIDTH 13 0
BBX 10 12 1 0
BITMAP
7E00
7F80
0180
00C0
00C0
FFC0
FFC0
C0C0
C0C0
6180
7F00
1E00
ENDCHAR
STARTCHAR 025A
ENCODING 602
SWIDTH 541 0
DWIDTH 13 0
BBX 12 12 1 0
BITMAP
7C00
7E00
0600
0300
03C0
07C0
3F70
F300
C300
E700
7E00
3C00
ENDCHAR
STARTCHAR 025B
ENCODING 603
SWIDTH 541 0
DWIDTH 13 0
BBX 10 12 2 0
BITMAP
1F80
3FC0
7040
6000
7000
3F00
7F00
E000
C000
E040
7FC0
3F80
ENDCHAR
STARTCHAR 025C
ENCODING 604
SWIDTH 541 0
DWIDTH 13 0
BBX 10 12 2 0
BITMAP
7E00
FF80
8380
0180
0180
3F00
3F80
01C0
00C0
81C0
FF80
7F00
ENDCHAR
STARTCHAR 025D
ENCODING 605
SWIDTH 541 0
DWIDTH 13 0
BBX 11 12 2 0
BITMAP
FE00
FF80
0380
01C0
03C0
7E60
7F00
0380
0180
0380
FF00
FE00
ENDCHAR
STARTCHAR 025E
ENCODING 606
SWIDTH 541 0
DWIDTH 13 0
BBX 11 12 1 0
BITMAP
0F80
3FC0
70E0
E060
C0E0
C7C0
C7C0
C060
E060
70E0
3FC0
1F80
ENDCHAR
STARTCHAR 025F
ENCODING 607
SWIDTH 541 0
DWIDTH 13 0
BBX 11 17 2 -5
BITMAP
FF00
FF00
0300
0300
0300
1FE0
1FE0
0300
0300
0300
0300
0300
0300
0300
8600
FE00
F800
ENDCHAR
STARTCHAR 0260
ENCODING 608
SWIDTH 541 0
DWIDTH 13 0
BBX 13 22 1 -5
BITMAP
0038
0078
00E0
00C0
00C0
1FC0
3FC0
70C0
E0C0
C0C0
C0C0
C0C0
C0C0
C1C0
63C0
7EC0
3CC0
00C0
00C0
01C0
7F80
7F00
ENDCHAR
STARTCHAR 0261
ENCODING 609
SWIDTH 541 0
DWIDTH 13 0
BBX 10 17 1 -5
BITMAP
1FC0
3FC0
70C0
E0C0
C0C0
C0C0
C0C0
C0C0
C1C0
63C0
7EC0
3CC0
00C0
00C0
01C0
7F80
7F00
ENDCHAR
STARTCHAR 0262
ENCODING 610
SWIDTH 541 0
DWIDTH 13 0
BBX 9 12 2 0
BITMAP
1F00
3F80
7080
E000
C000
C780
C780
C180
E180
7180
7F80
1F00
ENDCHAR
STARTCHAR 0263
ENCODING 611
SWIDTH 541 0
DWIDTH 13 0
BBX 11 17 1 -5
BITMAP
C060
60C0
60C0
71C0
3180
3180
1B00
1B00
0A00
0E00
0E00
0E00
1B00
1B00
1B00
1F00
0E00
ENDCHAR
STARTCHAR 0264
ENCODING 612
SWIDTH 541 0
DWIDTH 13 0
BBX 11 12 1 0
BITMAP
E0E0
E0E0
3180
3B80
1B00
0E00
0E00
0E00
1B00
1B00
1F00
0E00
ENDCHAR
STARTCHAR 0265
ENCODING 613
SWIDTH 541 0
DWIDTH 13 0
BBX 9 17 2 -5
BITMAP
C180
C180
C180
C180
C180
C180
C180
C180
C380
E780
7F80
3980
0180
0180
0180
0180
0180
ENDCHAR
STARTCHAR 0266
ENCODING 614
SWIDTH 541 0
DWIDTH 13 0
BBX 9 17 2 0
BITMAP
7800
F800
C000
C000
C000
CE00
FF00
F380
E180
C180
C180
C180
C180
C180
C180
C180
C180
ENDCHAR
STARTCHAR 0267
ENCODING 615
SWIDTH 541 0
DWIDTH 13 0
BBX 9 22 2 -5
BITMAP
7C00
7C00
C000
C000
C000
CE00
FF00
F380
E180
C180
C180
C180
C180
C180
C180
C180
C180
0180
0180
0180
0F80
0F00
ENDCHAR
STARTCHAR 0268
ENCODING 616
SWIDTH 541 0
DWIDTH 13 0
BBX 9 17 2 0
BITMAP
1C00
1C00
1C00
0000
0000
FC00
FC00
0C00
0C00
0C00
7F00
7F00
0C00
0C00
0C00
FF80
FF80
ENDCHAR
STARTCHAR 0269
ENCODING 617
SWIDTH 541 0
DWIDTH 13 0
BBX 10 12 2 0
BITMAP
FC00
FC00
0C00
0C00
0C00
0C00
0C00
0C00
0C00
0E00
07C0
03C0
ENDCHAR
STARTCHAR 026A
ENCODING 618
SWIDTH 541 0
DWIDTH 13 0
BBX 8 12 3 0
BITMAP
FF
FF
18
18
18
18
18
18
18
18
FF
FF
ENDCHAR
STARTCHAR 026B
ENCODING 619
SWIDTH 541 0
DWIDTH 13 0
BBX 9 17 2 0
BITMAP
FC00
FC00
0C00
0C00
0C00
0C00
0C00
7D00
FF80
4F00
0C00
0C00
0C00
0C00
0C00
FF80
FF80
ENDCHAR
STARTCHAR 026C
ENCODING 620
SWIDTH 541 0
DWIDTH 13 0
BBX 12 17 0 0
BITMAP
3F00
3F00
0300
0300
0300
0300
0300
7300
8B00
FFE0
7FE0
0300
0300
0300
0300
3FF0
3FF0
ENDCHAR
STARTCHAR 026D
ENCODING 621
SWIDTH 541 0
DWIDTH 13 0
BBX 10 22 2 -5
BITMAP
FC00
FC00
0C00
0C00
0C00
0C00
0C00
0C00
0C00
0C00
0C00
0C00
0C00
0C00
0C00
0C00
0C00
0C00
0C00
0E00
0FC0
03C0
ENDCHAR
STARTCHAR 026E
ENCODING 622
SWIDTH 541 0
DWIDTH 13 0
BBX 12 21 0 -4
BITMAP
F800
F800
1800
1800
1800
1FE0
1FE0
1860
18C0
1980
1B00
1B80
18E0
1870
1830
1830
1830
0030
0060
0FE0
0F80
ENDCHAR
STARTCHAR 026F
ENCODING 623
SWIDTH 541 0
DWIDTH 13 0
BBX 11 12 1 0
BITMAP
C660
C660
C660
C660
C660
C660
C660
C660
CE60
CEE0
FFE0
7360
ENDCHAR
STARTCHAR 0270
ENCODING 624
SWIDTH 541 0
DWIDTH 13 0
BBX 11 17 1 -5
BITMAP
C660
C660
C660
C660
C660
C660
C660
C660
CE60
CEE0
FFE0
7360
0060
0060
0060
0060
0060
ENDCHAR
STARTCHAR 0271
ENCODING 625
SWIDTH 541 0
DWIDTH 13 0
BBX 11 17 1 -5
BITMAP
DCC0
FFE0
E760
C660
C660
C660
C660
C660
C660
C660
C660
C660
0060
0060
0060
01E0
01C0
ENDCHAR
STARTCHAR 0272
ENCODING 626
SWIDTH 541 0
DWIDTH 13 0
BBX 12 17 -1 -5
BITMAP
19C0
1BE0
1E70
1C30
1830
1830
1830
1830
1830
1830
1830
1830
1800
1800
3800
F000
E000
ENDCHAR
STARTCHAR 0273
ENCODING 627
SWIDTH 541 0
DWIDTH 13 0
BBX 12 17 2 -5
BITMAP
CE00
FF00
F380
C180
C180
C180
C180
C180
C180
C180
C180
C180
0180
0180
0180
01F0
00F0
ENDCHAR
STARTCHAR 0274
ENCODING 628
SWIDTH 541 0
DWIDTH 13 0
BBX 9 12 2 0
BITMAP
C180
E180
E180
F180
D180
D980
CD80
CD80
C780
C380
C380
C180
ENDCHAR
STARTCHAR 0275
ENCODING 629
SWIDTH 541 0
DWIDTH 13 0
BBX 11 12 1 0
BITMAP
1F00
3FC0
71C0
E060
C060
FFE0
FFE0
C060
C0E0
60C0
7F80
1F00
ENDCHAR
STARTCHAR 0276
ENCODING 630
SWIDTH 541 0
DWIDTH 13 0
BBX 11 12 1 0
BITMAP
1FE0
7FE0
6600
C600
C600
C7E0
C7E0
C600
C600
6600
7FE0
3FE0
ENDCHAR
STARTCHAR 0277
ENCODING 631
SWIDTH 541 0
DWIDTH 13 0
BBX 11 12 1 0
BITMAP
1F00
3F80
71C0
E0E0
C060
C060
C660
C660
C660
E660
7FC0
3980
ENDCHAR
STARTCHAR 0278
ENCODING 632
SWIDTH 541 0
DWIDTH 13 0
BBX 12 22 1 -5
BITMAP
0600
0600
0600
0600
0600
1F80
3FE0
76E0
E670
C630
C630
C630
C630
E670
76E0
7FC0
1F80
0600
0600
0600
0600
0600
ENDCHAR
STARTCHAR 0279
ENCODING 633
SWIDTH 541 0
DWIDTH 13 0
BBX 10 12 1 0
BITMAP
00C0
00C0
00C0
00C0
00C0
00C0
00C0
C0C0
C1C0
E3C0
7EC0
3CC0
ENDCHAR
STARTCHAR 027A
ENCODING 634
SWIDTH 541 0
DWIDTH 13 0
BBX 10 17 1 0
BITMAP
00C0
00C0
00C0
00C0
00C0
00C0
00C0
00C0
00C0
00C0
00C0
00C0
C0C0
C1C0
E3C0
7EC0
3CC0
ENDCHAR
STARTCHAR 027B
ENCODING 635
SWIDTH 541 0
DWIDTH 13 0
BBX 13 17 1 -5
BITMAP
00C0
00C0
00C0
00C0
00C0
00C0
00C0
C0C0
C1C0
E3C0
7EC0
3CC0
00C0
00C0
00C0
00F8
0038
ENDCHAR
STARTCHAR 027C
ENCODING 636
SWIDTH 541 0
DWIDTH 13 0
BBX 10 17 2 -5
BITMAP
CF00
DF80
F1C0
E0C0
C0C0
C000
C000
C000
C000
C000
C000
C000
C000
C000
C000
C000
C000
ENDCHAR
STARTCHAR 027D
ENCODING 637
SWIDTH 541 0
DWIDTH 13 0
BBX 10 17 2 -5
BITMAP
CF00
DF80
F1C0
E0C0
C0C0
C000
C000
C000
C000
C000
C000
C000
C000
C000
C000
F800
7800
ENDCHAR
STARTCHAR 027E
ENCODING 638
SWIDTH 541 0
DWIDTH 13 0
BBX 10 12 2 0
BITMAP
3F00
7F80
E1C0
C0C0
C000
C000
C000
C000
C000
C000
C000
C000
ENDCHAR
STARTCHAR 027F
ENCODING 639
SWIDTH 541 0
DWIDTH 13 0
BBX 10 12 1 0
BITMAP
3F00
7F80
E1C0
C0C0
00C0
00C0
00C0
00C0
00C0
00C0
00C0
00C0
ENDCHAR
STARTCHAR 0280
ENCODING 640
SWIDTH 541 0
DWIDTH 13 0
BBX 10 12 2 0
BITMAP
FE00
FF00
C380
C180
C180
C380
FF00
FE00
C700
C300
C180
C0C0
ENDCHAR
STARTCHAR 0281
ENCODING 641
SWIDTH 541 0
DWIDTH 13 0
BBX 10 12 2 0
BITMAP
C0C0
C180
C300
C700
FE00
FF00
C380
C180
C180
C380
FF00
FE00
ENDCHAR
STARTCHAR 0282
ENCODING 642
SWIDTH 541 0
DWIDTH 13 0
BBX 9 17 2 -5
BITMAP
3F00
7F00
C000
C000
E000
7C00
1F00
0380
0180
0180
FF00
FE00
C000
C000
C000
F800
7800
ENDCHAR
STARTCHAR 0283
ENCODING 643
SWIDTH 541 0
DWIDTH 13 0
BBX 10 22 2 -5
BITMAP
03C0
07C0
0E00
0C00
0C00
0C00
0C00
0C00
0C00
0C00
0C00
0C00
0C00
0C00
0C00
0C00
0C00
0C00
0C00
1C00
F800
F000
ENDCHAR
STARTCHAR 0284
ENCODING 644
SWIDTH 541 0
DWIDTH 13 0
BBX 10 22 2 -5
BITMAP
03C0
07C0
0E00
0C00
0C00
0C00
0C00
0C00
0C00
0C00
0C00
0C00
0C00
0C00
0C00
7F80
7F80
0C00
0C00
1C00
F800
F000
ENDCHAR
STARTCHAR 0285
ENCODING 645
SWIDTH 541 0
DWIDTH 13 0
BBX 10 22 2 -5
BITMAP
F000
F800
1C00
0C00
0C00
0C00
0C00
0C00
0C00
0C00
0C00
0C00
0C00
0C00
0C00
0C00
0C00
0C00
0C00
0E00
07C0
03C0
ENDCHAR
STARTCHAR 0286
ENCODING 646
SWIDTH 541 0
DWIDTH 13 0
BBX 11 22 1 -5
BITMAP
01E0
03E0
0700
0600
0600
0600
0600
0600
0600
0600
0600
0600
0600
0600
0600
0600
0600
7E00
CE00
C600
CE00
7B00
ENDCHAR
STARTCHAR 0287
ENCODING 647
SWIDTH 541 0
DWIDTH 13 0
BBX 10 15 2 0
BITMAP
F800
FC00
0E00
0600
0600
0600
0600
0600
0600
0600
FFC0
FFC0
0600
0600
0600
ENDCHAR
STARTCHAR 0288
ENCODING 648
SWIDTH 541 0
DWIDTH 13 0
BBX 10 21 1 -5
BITMAP
1800
1800
1800
1800
FFC0
FFC0
1800
1800
1800
1800
1800
1800
1800
1800
1800
1800
1800
1800
1C00
0FC0
07C0
ENDCHAR
STARTCHAR 0289
ENCODING 649
SWIDTH 541 0
DWIDTH 13 0
BBX 13 12 0 0
BITMAP
3060
3060
3060
3060
FFF8
FFF8
3060
3060
30E0
39E0
1FE0
1E60
ENDCHAR
STARTCHAR 028A
ENCODING 650
SWIDTH 541 0
DWIDTH 13 0
BBX 11 12 1 0
BITMAP
F1E0
F1E0
60C0
4040
C060
C060
C060
C060
E0E0
71C0
7FC0
1F00
ENDCHAR
STARTCHAR 028B
ENCODING 651
SWIDTH 541 0
DWIDTH 13 0
BBX 10 12 2 0
BITMAP
C700
C780
C1C0
C0C0
C0C0
C0C0
C0C0
C0C0
C0C0
E180
7F80
3E00
ENDCHAR
STARTCHAR 028C
ENCODING 652
SWIDTH 541 0
DWIDTH 13 0
BBX 11 12 1 0
BITMAP
0E00
0E00
1B00
1B00
1B00
3180
3180
3180
60C0
60C0
60C0
C0E0
ENDCHAR
STARTCHAR 028D
ENCODING 653
SWIDTH 541 0
DWIDTH 13 0
BBX 13 12 0 0
BITMAP
38E0
38E0
28A0
6DB0
6DB0
6530
6730
6730
6230
C018
C018
C018
ENDCHAR
STARTCHAR 028E
ENCODING 654
SWIDTH 541 0
DWIDTH 13 0
BBX 12 17 1 0
BITMAP
00F0
01F0
0380
0700
0600
0E00
0E00
1B00
1B00
1B00
3180
3180
60C0
60C0
E0C0
C060
C060
ENDCHAR
STARTCHAR 028F
ENCODING 655
SWIDTH 541 0
DWIDTH 13 0
BBX 12 12 1 0
BITMAP
E070
6060
30C0
39C0
1980
0F00
0F00
0600
0600
0600
0600
0600
ENDCHAR
STARTCHAR 0290
ENCODING 656
SWIDTH 541 0
DWIDTH 13 0
BBX 11 17 2 -5
BITMAP
FF80
FF80
0100
0300
0600
0C00
1800
3000
6000
4000
FF80
FF80
0180
0180
0180
01E0
00E0
ENDCHAR
STARTCHAR 0291
ENCODING 657
SWIDTH 541 0
DWIDTH 13 0
BBX 11 14 2 -2
BITMAP
FF80
FF80
0100
0300
0600
0C00
1800
31C0
6360
4660
FFE0
FFC0
0C00
0C00
ENDCHAR
STARTCHAR 0292
ENCODING 658
SWIDTH 541 0
DWIDTH 13 0
BBX 9 16 2 -4
BITMAP
FF00
FF00
0600
0400
0800
1000
3C00
3F00
0700
0180
0180
0180
0180
0300
FF00
FC00
ENDCHAR
STARTCHAR 0293
ENCODING 659
SWIDTH 541 0
DWIDTH 13 0
BBX 10 17 1 -5
BITMAP
7F80
7F80
0300
0200
0400
0800
1E00
1F80
0380
00C0
78C0
FCC0
CCC0
C780
FF80
3F00
0300
ENDCHAR
STARTCHAR 0294
ENCODING 660
SWIDTH 541 0
DWIDTH 13 0
BBX 7 17 3 0
BITMAP
E0
F8
1C
0C
06
06
06
06
06
0E
0C
7C
70
60
60
60
60
ENDCHAR
STARTCHAR 0295
ENCODING 661
SWIDTH 541 0
DWIDTH 13 0
BBX 7 17 3 0
BITMAP
0E
3E
70
60
C0
C0
C0
C0
C0
E0
60
7C
1C
0C
0C
0C
0C
ENDCHAR
STARTCHAR 0296
ENCODING 662
SWIDTH 541 0
DWIDTH 13 0
BBX 7 17 3 0
BITMAP
60
60
60
60
70
7C
0C
0E
06
06
06
06
06
0C
1C
F8
E0
ENDCHAR
STARTCHAR 0297
ENCODING 663
SWIDTH 541 0
DWIDTH 13 0
BBX 9 17 2 -5
BITMAP
1F80
3F80
7080
6000
E000
C000
C000
C000
C000
C000
C000
C000
E000
6000
7080
3F80
1F80
ENDCHAR
STARTCHAR 0298
ENCODING 664
SWIDTH 541 0
DWIDTH 13 0
BBX 12 15 1 0
BITMAP
1F80
3FC0
70E0
6060
C030
C630
CF30
CF30
C630
C030
C030
6060
70E0
3FC0
1F00
ENDCHAR
STARTCHAR 0299
ENCODING 665
SWIDTH 541 0
DWIDTH 13 0
BBX 9 12 2 0
BITMAP
FF00
FF80
C180
C180
C380
FF00
FF00
C180
C180
C380
FF00
FE00
ENDCHAR
STARTCHAR 029A
ENCODING 666
SWIDTH 541 0
DWIDTH 13 0
BBX 11 12 1 0
BITMAP
3E00
7F80
E1C0
C0C0
E060
3C60
7C60
C060
C0E0
E1C0
7F80
3F00
ENDCHAR
STARTCHAR 029B
ENCODING 667
SWIDTH 541 0
DWIDTH 13 0
BBX 12 15 2 0
BITMAP
00F0
01F0
0180
1F80
3F80
7080
E000
C000
C780
C780
C180
E180
7180
7F80
1F00
ENDCHAR
STARTCHAR 029C
ENCODING 668
SWIDTH 541 0
DWIDTH 13 0
BBX 9 12 2 0
BITMAP
C180
C180
C180
C180
C180
FF80
FF80
C180
C180
C180
C180
C180
ENDCHAR
STARTCHAR 029D
ENCODING 669
SWIDTH 541 0
DWIDTH 13 0
BBX 9 22 1 -5
BITMAP
0380
0380
0380
0000
0000
7F80
7F80
0180
0180
0180
0180
0180
0180
0180
0180
7180
F980
CD80
C780
FF00
3E00
0600
ENDCHAR
STARTCHAR 029E
ENCODING 670
SWIDTH 541 0
DWIDTH 13 0
BBX 10 17 1 -5
BITMAP
E0C0
70C0
38C0
1CC0
0EC0
06C0
03C0
06C0
0CC0
18C0
30C0
60C0
00C0
00C0
00C0
00C0
00C0
ENDCHAR
STARTCHAR 029F
ENCODING 671
SWIDTH 541 0
DWIDTH 13 0
BBX 8 12 2 0
BITMAP
C0
C0
C0
C0
C0
C0
C0
C0
C0
C0
FF
FF
ENDCHAR
STARTCHAR 02A0
ENCODING 672
SWIDTH 541 0
DWIDTH 13 0
BBX 13 22 1 -5
BITMAP
0038
0078
00E0
00C0
00C0
1FC0
3FC0
70C0
E0C0
C0C0
C0C0
C0C0
C0C0
C1C0
63C0
7EC0
3CC0
00C0
00C0
00C0
00C0
00C0
ENDCHAR
STARTCHAR 02A1
ENCODING 673
SWIDTH 541 0
DWIDTH 13 0
BBX 8 17 2 0
BITMAP
70
7C
0E
06
03
03
03
03
03
07
06
3E
38
FE
FE
30
30
ENDCHAR
STARTCHAR 02A2
ENCODING 674
SWIDTH 541 0
DWIDTH 13 0
BBX 9 17 3 0
BITMAP
0E00
3E00
7000
6000
C000
C000
C000
C000
C000
E000
6000
7C00
1C00
3F80
3F80
0C00
0C00
ENDCHAR
STARTCHAR 02A3
ENCODING 675
SWIDTH 541 0
DWIDTH 13 0
BBX 12 17 1 0
BITMAP
0C00
0C00
0C00
0C00
0C00
7FF0
7FF0
CC30
CC60
CC60
CCC0
CCC0
CD80
CD80
CF00
7FF0
7FF0
ENDCHAR
STARTCHAR 02A4
ENCODING 676
SWIDTH 541 0
DWIDTH 13 0
BBX 12 21 1 -4
BITMAP
0600
0600
0600
0600
0600
3FF0
7FF0
E630
C660
C660
C6E0
C6C0
C6E0
C620
C630
7E30
3E30
0030
0030
01E0
01C0
ENDCHAR
STARTCHAR 02A5
ENCODING 677
SWIDTH 541 0
DWIDTH 13 0
BBX 13 19 1 -2
BITMAP
0600
0600
0600
0600
0600
3FF0
7FF0
E630
C670
C660
C660
C6E0
C6C0
C6F8
C7E8
7FC8
7FF8
0060
0060
ENDCHAR
STARTCHAR 02A6
ENCODING 678
SWIDTH 541 0
DWIDTH 13 0
BBX 12 16 0 0
BITMAP
3000
3000
3000
3000
FFF0
FFF0
3300
3300
3380
31C0
30E0
3070
3030
3830
1FF0
0FC0
ENDCHAR
STARTCHAR 02A7
ENCODING 679
SWIDTH 541 0
DWIDTH 13 0
BBX 13 22 0 -5
BITMAP
0078
3078
30C0
30C0
30C0
FFC0
FFC0
30C0
30C0
30C0
30C0
30C0
30C0
30C0
38C0
1FC0
0FC0
00C0
00C0
01C0
0F80
0F00
ENDCHAR
STARTCHAR 02A8
ENCODING 680
SWIDTH 541 0
DWIDTH 13 0
BBX 12 18 1 -2
BITMAP
6000
6000
6000
6000
FFE0
FFE0
6300
6600
6600
6600
6600
6600
6670
73B0
3FF0
1FE0
00C0
00C0
ENDCHAR
STARTCHAR 02A9
ENCODING 681
SWIDTH 541 0
DWIDTH 13 0
BBX 13 17 0 0
BITMAP
0F00
1F00
3800
3000
3000
3370
33F8
FF98
FF18
3318
3318
3318
3318
3318
3318
3318
3318
ENDCHAR
STARTCHAR 02AA
ENCODING 682
SWIDTH 541 0
DWIDTH 13 0
BBX 12 17 0 0
BITMAP
F000
F000
3000
3000
3000
31F0
33F0
3300
3300
3380
31C0
30E0
3030
3030
3030
3FF0
1FC0
ENDCHAR
STARTCHAR 02AB
ENCODING 683
SWIDTH 541 0
DWIDTH 13 0
BBX 11 17 1 0
BITMAP
F000
F000
3000
3000
3000
3FE0
3FE0
3060
30C0
3180
3180
3300
3300
3600
3C00
3FE0
3FE0
ENDCHAR
STARTCHAR 02AC
ENCODING 684
SWIDTH 541 0
DWIDTH 13 0
BBX 9 15 2 0
BITMAP
C180
C980
D980
D580
5500
5500
6700
0000
C180
C980
D980
D580
5580
5500
6700
ENDCHAR
STARTCHAR 02AD
ENCODING 685
SWIDTH 541 0
DWIDTH 13 0
BBX 10 15 2 0
BITMAP
FFC0
FFC0
C0C0
C0C0
C0C0
C0C0
0000
0000
0000
FFC0
FFC0
C0C0
C0C0
C0C0
C0C0
ENDCHAR
STARTCHAR 02AE
ENCODING 686
SWIDTH 541 0
DWIDTH 13 0
BBX 12 22 -1 -5
BITMAP
F000
F800
1800
1800
1800
1830
1830
1830
1830
1830
1830
1830
1830
1870
1CF0
0FF0
0730
0030
0030
0030
0030
0030
ENDCHAR
STARTCHAR 02AF
ENCODING 687
SWIDTH 541 0
DWIDTH 13 0
BBX 15 22 -1 -5
BITMAP
F000
F800
1800
1800
1800
1830
1830
1830
1830
1830
1830
1830
1830
1870
1CF0
0FF0
0730
0030
0030
0030
001E
000E
ENDCHAR
STARTCHAR 02B0
ENCODING 688
SWIDTH 541 0
DWIDTH 13 0
BBX 7 10 3 8
BITMAP
C0
C0
C0
DC
E6
C6
C6
C6
C6
C6
ENDCHAR
STARTCHAR 02B1
ENCODING 689
SWIDTH 541 0
DWIDTH 13 0
BBX 7 10 3 8
BITMAP
78
C0
C0
DC
E6
C6
C6
C6
C6
C6
ENDCHAR
STARTCHAR 02B2
ENCODING 690
SWIDTH 541 0
DWIDTH 13 0
BBX 5 13 4 5
BITMAP
18
18
00
F8
18
18
18
18
18
18
18
18
F0
ENDCHAR
STARTCHAR 02B3
ENCODING 691
SWIDTH 541 0
DWIDTH 13 0
BBX 7 7 3 8
BITMAP
DC
E6
C6
C0
C0
C0
C0
ENDCHAR
STARTCHAR 02B4
ENCODING 692
SWIDTH 541 0
DWIDTH 13 0
BBX 7 7 3 8
BITMAP
06
06
06
06
C6
CE
76
ENDCHAR
STARTCHAR 02B5
ENCODING 693
SWIDTH 541 0
DWIDTH 13 0
BBX 8 10 2 5
BITMAP
06
06
06
06
C6
CE
76
06
06
03
ENDCHAR
STARTCHAR 02B6
ENCODING 694
SWIDTH 541 0
DWIDTH 13 0
BBX 7 7 3 8
BITMAP
C6
CC
CC
F8
C6
C6
FC
ENDCHAR
STARTCHAR 02B7
ENCODING 695
SWIDTH 541 0
DWIDTH 13 0
BBX 9 7 2 8
BITMAP
8080
8880
9C80
9480
F680
E380
E380
ENDCHAR
STARTCHAR 02B8
ENCODING 696
SWIDTH 541 0
DWIDTH 13 0
BBX 8 10 3 5
BITMAP
C3
42
66
26
34
3C
18
18
30
E0
ENDCHAR
STARTCHAR 02B9
ENCODING 697
SWIDTH 541 0
DWIDTH 13 0
BBX 5 8 4 9
BITMAP
30
38
30
70
60
60
C0
C0
ENDCHAR
STARTCHAR 02BA
ENCODING 698
SWIDTH 541 0
DWIDTH 13 0
BBX 11 8 1 9
BITMAP
30C0
38E0
31C0
71C0
6180
6380
C300
C300
ENDCHAR
STARTCHAR 02BB
ENCODING 699
SWIDTH 541 0
DWIDTH 13 0
BBX 6 8 5 9
BITMAP
1C
3C
70
E0
E0
F0
F0
70
ENDCHAR
STARTCHAR 02BC
ENCODING 700
SWIDTH 541 0
DWIDTH 13 0
BBX 6 8 3 9
BITMAP
38
3C
3C
1C
1C
38
F0
E0
ENDCHAR
STARTCHAR 02BD
ENCODING 701
SWIDTH 541 0
DWIDTH 13 0
BBX 6 8 4 9
BITMAP
70
F0
F0
E0
E0
70
3C
1C
ENDCHAR
STARTCHAR 02BE
ENCODING 702
SWIDTH 541 0
DWIDTH 13 0
BBX 2 4 6 12
BITMAP
80
40
40
80
ENDCHAR
STARTCHAR 02BF
ENCODING 703
SWIDTH 541 0
DWIDTH 13 0
BBX 2 4 5 12
BITMAP
40
80
80
40
ENDCHAR
STARTCHAR 02C0
ENCODING 704
SWIDTH 541 0
DWIDTH 13 0
BBX 5 9 4 8
BITMAP
E0
F0
38
18
18
18
F0
C0
C0
ENDCHAR
STARTCHAR 02C1
ENCODING 705
SWIDTH 541 0
DWIDTH 13 0
BBX 6 9 4 8
BITMAP
1C
7C
E0
C0
C0
C0
78
18
18
ENDCHAR
STARTCHAR 02C2
ENCODING 706
SWIDTH 541 0
DWIDTH 13 0
BBX 9 13 2 0
BITMAP
0100
0380
0700
0C00
3800
7000
E000
7000
3800
0C00
0700
0380
0100
ENDCHAR
STARTCHAR 02C3
ENCODING 707
SWIDTH 541 0
DWIDTH 13 0
BBX 9 13 2 0
BITMAP
4000
E000
7000
1800
0E00
0700
0380
0700
0E00
1800
7000
E000
4000
ENDCHAR
STARTCHAR 02C4
ENCODING 708
SWIDTH 541 0
DWIDTH 13 0
BBX 13 9 0 9
BITMAP
0200
0700
0F80
0D80
18C0
3060
6030
E018
4010
ENDCHAR
STARTCHAR 02C5
ENCODING 709
SWIDTH 541 0
DWIDTH 13 0
BBX 13 9 0 9
BITMAP
4010
E018
6030
3060
18C0
0D80
0F80
0700
0200
ENDCHAR
STARTCHAR 02C6
ENCODING 710
SWIDTH 541 0
DWIDTH 13 0
BBX 7 3 3 12
BITMAP
38
6C
C6
ENDCHAR
STARTCHAR 02C7
ENCODING 711
SWIDTH 541 0
DWIDTH 13 0
BBX 7 3 3 12
BITMAP
C6
7C
38
ENDCHAR
STARTCHAR 02C8
ENCODING 712
SWIDTH 541 0
DWIDTH 13 0
BBX 2 5 6 13
BITMAP
C0
C0
C0
C0
C0
ENDCHAR
STARTCHAR 02C9
ENCODING 713
SWIDTH 541 0
DWIDTH 13 0
BBX 6 2 4 12
BITMAP
FC
FC
ENDCHAR
STARTCHAR 02CA
ENCODING 714
SWIDTH 541 0
DWIDTH 13 0
BBX 5 3 5 12
BITMAP
38
70
E0
ENDCHAR
STARTCHAR 02CB
ENCODING 715
SWIDTH 541 0
DWIDTH 13 0
BBX 5 3 3 12
BITMAP
E0
70
38
ENDCHAR
STARTCHAR 02CC
ENCODING 716
SWIDTH 541 0
DWIDTH 13 0
BBX 2 5 6 -6
BITMAP
C0
C0
C0
C0
C0
ENDCHAR
STARTCHAR 02CD
ENCODING 717
SWIDTH 541 0
DWIDTH 13 0
BBX 6 2 4 -5
BITMAP
FC
FC
ENDCHAR
STARTCHAR 02CE
ENCODING 718
SWIDTH 541 0
DWIDTH 13 0
BBX 5 3 3 -6
BITMAP
E0
70
38
ENDCHAR
STARTCHAR 02CF
ENCODING 719
SWIDTH 541 0
DWIDTH 13 0
BBX 5 3 5 -6
BITMAP
38
70
E0
ENDCHAR
STARTCHAR 02D0
ENCODING 720
SWIDTH 541 0
DWIDTH 13 0
BBX 3 11 5 0
BITMAP
E0
40
00
00
00
00
00
00
00
40
E0
ENDCHAR
STARTCHAR 02D1
ENCODING 721
SWIDTH 541 0
DWIDTH 13 0
BBX 3 2 5 5
BITMAP
E0
40
ENDCHAR
STARTCHAR 02D2
ENCODING 722
SWIDTH 541 0
DWIDTH 13 0
BBX 2 4 6 3
BITMAP
80
40
40
80
ENDCHAR
STARTCHAR 02D3
ENCODING 723
SWIDTH 541 0
DWIDTH 13 0
BBX 2 4 5 3
BITMAP
40
80
80
40
ENDCHAR
STARTCHAR 02D4
ENCODING 724
SWIDTH 541 0
DWIDTH 13 0
BBX 5 5 4 3
BITMAP
20
20
20
20
F8
ENDCHAR
STARTCHAR 02D5
ENCODING 725
SWIDTH 541 0
DWIDTH 13 0
BBX 5 5 4 3
BITMAP
F8
20
20
20
20
ENDCHAR
STARTCHAR 02D6
ENCODING 726
SWIDTH 541 0
DWIDTH 13 0
BBX 5 5 4 3
BITMAP
20
20
F8
20
20
ENDCHAR
STARTCHAR 02D7
ENCODING 727
SWIDTH 541 0
DWIDTH 13 0
BBX 5 1 4 5
BITMAP
F8
ENDCHAR
STARTCHAR 02D8
ENCODING 728
SWIDTH 541 0
DWIDTH 13 0
BBX 7 3 3 12
BITMAP
C6
FE
7C
ENDCHAR
STARTCHAR 02D9
ENCODING 729
SWIDTH 541 0
DWIDTH 13 0
BBX 3 3 5 12
BITMAP
E0
E0
E0
ENDCHAR
STARTCHAR 02DA
ENCODING 730
SWIDTH 541 0
DWIDTH 13 0
BBX 4 4 4 12
BITMAP
60
90
90
60
ENDCHAR
STARTCHAR 02DB
ENCODING 731
SWIDTH 541 0
DWIDTH 13 0
BBX 4 5 8 -5
BITMAP
60
C0
C0
C0
70
ENDCHAR
STARTCHAR 02DC
ENCODING 732
SWIDTH 541 0
DWIDTH 13 0
BBX 9 3 2 12
BITMAP
7900
FF80
4F00
ENDCHAR
STARTCHAR 02DD
ENCODING 733
SWIDTH 541 0
DWIDTH 13 0
BBX 10 3 3 12
BITMAP
39C0
7380
E700
ENDCHAR
STARTCHAR 02DE
ENCODING 734
SWIDTH 541 0
DWIDTH 13 0
BBX 6 3 4 5
BITMAP
60
F0
1C
ENDCHAR
STARTCHAR 02DF
ENCODING 735
SWIDTH 541 0
DWIDTH 13 0
BBX 5 4 4 13
BITMAP
D8
70
70
D8
ENDCHAR
STARTCHAR 02E0
ENCODING 736
SWIDTH 541 0
DWIDTH 13 0
BBX 8 10 3 5
BITMAP
C3
62
66
3C
18
18
3C
24
24
18
ENDCHAR
STARTCHAR 02E1
ENCODING 737
SWIDTH 541 0
DWIDTH 13 0
BBX 6 10 4 8
BITMAP
F0
30
30
30
30
30
30
30
30
FC
ENDCHAR
STARTCHAR 02E2
ENCODING 738
SWIDTH 541 0
DWIDTH 13 0
BBX 6 7 4 8
BITMAP
7C
C0
C0
78
0C
0C
F8
ENDCHAR
STARTCHAR 02E3
ENCODING 739
SWIDTH 541 0
DWIDTH 13 0
BBX 7 7 3 8
BITMAP
C6
6C
28
10
28
6C
C6
ENDCHAR
STARTCHAR 02E4
ENCODING 740
SWIDTH 541 0
DWIDTH 13 0
BBX 5 8 4 8
BITMAP
38
60
C0
C0
C0
70
10
10
ENDCHAR
STARTCHAR 02E5
ENCODING 741
SWIDTH 541 0
DWIDTH 13 0
BBX 6 16 4 0
BITMAP
FC
FC
0C
0C
0C
0C
0C
0C
0C
0C
0C
0C
0C
0C
0C
0C
ENDCHAR
STARTCHAR 02E6
ENCODING 742
SWIDTH 541 0
DWIDTH 13 0
BBX 6 16 4 0
BITMAP
0C
0C
0C
FC
FC
0C
0C
0C
0C
0C
0C
0C
0C
0C
0C
0C
ENDCHAR
STARTCHAR 02E7
ENCODING 743
SWIDTH 541 0
DWIDTH 13 0
BBX 6 16 4 0
BITMAP
0C
0C
0C
0C
0C
0C
0C
FC
FC
0C
0C
0C
0C
0C
0C
0C
ENDCHAR
STARTCHAR 02E8
ENCODING 744
SWIDTH 541 0
DWIDTH 13 0
BBX 6 16 4 0
BITMAP
0C
0C
0C
0C
0C
0C
0C
0C
0C
0C
0C
FC
FC
0C
0C
0C
ENDCHAR
STARTCHAR 02E9
ENCODING 745
SWIDTH 541 0
DWIDTH 13 0
BBX 6 16 4 0
BITMAP
0C
0C
0C
0C
0C
0C
0C
0C
0C
0C
0C
0C
0C
0C
FC
FC
ENDCHAR
STARTCHAR 02EA
ENCODING 746
SWIDTH 541 0
DWIDTH 13 0
BBX 6 10 4 0
BITMAP
80
80
80
80
80
80
80
80
80
FC
ENDCHAR
STARTCHAR 02EB
ENCODING 747
SWIDTH 541 0
DWIDTH 13 0
BBX 6 10 4 0
BITMAP
80
80
80
80
FC
80
80
80
80
80
ENDCHAR
STARTCHAR 02EC
ENCODING 748
SWIDTH 541 0
DWIDTH 13 0
BBX 7 3 3 -6
BITMAP
C6
7C
38
ENDCHAR
STARTCHAR 02ED
ENCODING 749
SWIDTH 541 0
DWIDTH 13 0
BBX 13 5 0 14
BITMAP
FFF8
FFF8
0000
FFF8
FFF8
ENDCHAR
STARTCHAR 02EE
ENCODING 750
SWIDTH 541 0
DWIDTH 13 0
BBX 11 7 1 10
BITMAP
30C0
38E0
1860
1860
38E0
F3C0
C300
ENDCHAR
STARTCHAR 02EF
ENCODING 751
SWIDTH 541 0
DWIDTH 13 0
BBX 5 3 4 -4
BITMAP
D8
50
20
ENDCHAR
STARTCHAR 02F0
ENCODING 752
SWIDTH 541 0
DWIDTH 13 0
BBX 5 3 4 -4
BITMAP
20
50
D8
ENDCHAR
STARTCHAR 02F1
ENCODING 753
SWIDTH 541 0
DWIDTH 13 0
BBX 3 5 5 -5
BITMAP
20
60
80
60
20
ENDCHAR
STARTCHAR 02F2
ENCODING 754
SWIDTH 541 0
DWIDTH 13 0
BBX 3 5 5 -5
BITMAP
80
C0
20
C0
80
ENDCHAR
STARTCHAR 02F3
ENCODING 755
SWIDTH 541 0
DWIDTH 13 0
BBX 5 4 4 -5
BITMAP
70
88
88
70
ENDCHAR
STARTCHAR 02F4
ENCODING 756
SWIDTH 541 0
DWIDTH 13 0
BBX 5 3 3 3
BITMAP
E0
70
38
ENDCHAR
STARTCHAR 02F5
ENCODING 757
SWIDTH 541 0
DWIDTH 13 0
BBX 10 3 0 5
BITMAP
E700
3380
19C0
ENDCHAR
STARTCHAR 02F6
ENCODING 758
SWIDTH 541 0
DWIDTH 13 0
BBX 10 3 3 3
BITMAP
39C0
7380
E700
ENDCHAR
STARTCHAR 02F7
ENCODING 759
SWIDTH 541 0
DWIDTH 13 0
BBX 9 3 2 -6
BITMAP
7900
FF80
4F00
ENDCHAR
STARTCHAR 02F8
ENCODING 760
SWIDTH 541 0
DWIDTH 13 0
BBX 3 12 5 4
BITMAP
40
E0
E0
40
00
00
00
00
40
E0
E0
40
ENDCHAR
STARTCHAR 02F9
ENCODING 761
SWIDTH 541 0
DWIDTH 13 0
BBX 4 4 4 12
BITMAP
F0
80
80
80
ENDCHAR
STARTCHAR 02FA
ENCODING 762
SWIDTH 541 0
DWIDTH 13 0
BBX 4 4 5 12
BITMAP
F0
10
10
10
ENDCHAR
STARTCHAR 02FB
ENCODING 763
SWIDTH 541 0
DWIDTH 13 0
BBX 4 4 4 0
BITMAP
80
80
80
F0
ENDCHAR
STARTCHAR 02FC
ENCODING 764
SWIDTH 541 0
DWIDTH 13 0
BBX 4 4 5 0
BITMAP
10
10
10
F0
ENDCHAR
STARTCHAR 02FD
ENCODING 765
SWIDTH 541 0
DWIDTH 13 0
BBX 13 5 0 -6
BITMAP
C018
C018
C018
FFF8
FFF8
ENDCHAR
STARTCHAR 02FE
ENCODING 766
SWIDTH 541 0
DWIDTH 13 0
BBX 13 5 0 -6
BITMAP
C000
C000
C000
FFF8
FFF8
ENDCHAR
STARTCHAR 02FF
ENCODING 767
SWIDTH 541 0
DWIDTH 13 0
BBX 5 4 4 -5
BITMAP
40
40
F8
40
ENDCHAR
STARTCHAR 0300
ENCODING 768
SWIDTH 541 0
DWIDTH 13 0
BBX 5 3 5 12
BITMAP
E0
70
38
ENDCHAR
STARTCHAR 0301
ENCODING 769
SWIDTH 541 0
DWIDTH 13 0
BBX 5 3 3 12
BITMAP
38
70
E0
ENDCHAR
STARTCHAR 0302
ENCODING 770
SWIDTH 541 0
DWIDTH 13 0
BBX 7 3 3 12
BITMAP
38
6C
C6
ENDCHAR
STARTCHAR 0303
ENCODING 771
SWIDTH 541 0
DWIDTH 13 0
BBX 9 3 2 12
BITMAP
7900
FF80
4F00
ENDCHAR
STARTCHAR 0304
ENCODING 772
SWIDTH 541 0
DWIDTH 13 0
BBX 6 2 4 12
BITMAP
FC
FC
ENDCHAR
STARTCHAR 0305
ENCODING 773
SWIDTH 541 0
DWIDTH 13 0
BBX 13 2 0 18
BITMAP
FFF8
FFF8
ENDCHAR
STARTCHAR 0306
ENCODING 774
SWIDTH 541 0
DWIDTH 13 0
BBX 7 3 3 12
BITMAP
C6
FE
7C
ENDCHAR
STARTCHAR 0307
ENCODING 775
SWIDTH 541 0
DWIDTH 13 0
BBX 3 3 5 12
BITMAP
E0
E0
E0
ENDCHAR
STARTCHAR 0308
ENCODING 776
SWIDTH 541 0
DWIDTH 13 0
BBX 8 3 3 12
BITMAP
E7
E7
E7
ENDCHAR
STARTCHAR 0309
ENCODING 777
SWIDTH 541 0
DWIDTH 13 0
BBX 3 5 5 13
BITMAP
C0
60
60
C0
80
ENDCHAR
STARTCHAR 030A
ENCODING 778
SWIDTH 541 0
DWIDTH 13 0
BBX 4 4 4 12
BITMAP
60
90
90
60
ENDCHAR
STARTCHAR 030B
ENCODING 779
SWIDTH 541 0
DWIDTH 13 0
BBX 10 3 2 12
BITMAP
39C0
7380
E700
ENDCHAR
STARTCHAR 030C
ENCODING 780
SWIDTH 541 0
DWIDTH 13 0
BBX 7 3 3 12
BITMAP
C6
7C
38
ENDCHAR
STARTCHAR 030D
ENCODING 781
SWIDTH 541 0
DWIDTH 13 0
BBX 2 6 6 12
BITMAP
C0
C0
C0
C0
C0
C0
ENDCHAR
STARTCHAR 030E
ENCODING 782
SWIDTH 541 0
DWIDTH 13 0
BBX 6 6 4 12
BITMAP
CC
CC
CC
CC
CC
CC
ENDCHAR
STARTCHAR 030F
ENCODING 783
SWIDTH 541 0
DWIDTH 13 0
BBX 11 3 0 12
BITMAP
E380
31C0
18E0
ENDCHAR
STARTCHAR 0310
ENCODING 784
SWIDTH 541 0
DWIDTH 13 0
BBX 8 5 2 14
BITMAP
18
DB
E7
7E
3C
ENDCHAR
STARTCHAR 0311
ENCODING 785
SWIDTH 541 0
DWIDTH 13 0
BBX 6 3 4 12
BITMAP
78
FC
CC
ENDCHAR
STARTCHAR 0312
ENCODING 786
SWIDTH 541 0
DWIDTH 13 0
BBX 3 3 5 12
BITMAP
60
E0
C0
ENDCHAR
STARTCHAR 0313
ENCODING 787
SWIDTH 541 0
DWIDTH 13 0
BBX 3 4 5 13
BITMAP
E0
E0
60
C0
ENDCHAR
STARTCHAR 0314
ENCODING 788
SWIDTH 541 0
DWIDTH 13 0
BBX 3 4 5 13
BITMAP
E0
E0
C0
60
ENDCHAR
STARTCHAR 0315
ENCODING 789
SWIDTH 541 0
DWIDTH 13 0
BBX 3 4 12 12
BITMAP
60
60
C0
C0
ENDCHAR
STARTCHAR 0316
ENCODING 790
SWIDTH 541 0
DWIDTH 13 0
BBX 5 3 5 -5
BITMAP
E0
70
38
ENDCHAR
STARTCHAR 0317
ENCODING 791
SWIDTH 541 0
DWIDTH 13 0
BBX 5 3 3 -5
BITMAP
38
70
E0
ENDCHAR
STARTCHAR 0318
ENCODING 792
SWIDTH 541 0
DWIDTH 13 0
BBX 5 5 4 -6
BITMAP
08
08
F8
08
08
ENDCHAR
STARTCHAR 0319
ENCODING 793
SWIDTH 541 0
DWIDTH 13 0
BBX 5 5 4 -6
BITMAP
80
80
F8
80
80
ENDCHAR
STARTCHAR 031A
ENCODING 794
SWIDTH 541 0
DWIDTH 13 0
BBX 4 4 5 13
BITMAP
F0
10
10
10
ENDCHAR
STARTCHAR 031B
ENCODING 795
SWIDTH 541 0
DWIDTH 13 0
BBX 4 5 4 8
BITMAP
30
30
30
60
C0
ENDCHAR
STARTCHAR 031C
ENCODING 796
SWIDTH 541 0
DWIDTH 13 0
BBX 2 4 5 -5
BITMAP
40
80
80
40
ENDCHAR
STARTCHAR 031D
ENCODING 797
SWIDTH 541 0
DWIDTH 13 0
BBX 5 4 4 -5
BITMAP
20
20
20
F8
ENDCHAR
STARTCHAR 031E
ENCODING 798
SWIDTH 541 0
DWIDTH 13 0
BBX 5 4 4 -5
BITMAP
F8
20
20
20
ENDCHAR
STARTCHAR 031F
ENCODING 799
SWIDTH 541 0
DWIDTH 13 0
BBX 5 5 4 -6
BITMAP
20
20
F8
20
20
ENDCHAR
STARTCHAR 0320
ENCODING 800
SWIDTH 541 0
DWIDTH 13 0
BBX 5 1 4 -4
BITMAP
F8
ENDCHAR
STARTCHAR 0321
ENCODING 801
SWIDTH 541 0
DWIDTH 13 0
BBX 5 5 4 -5
BITMAP
18
18
18
F8
70
ENDCHAR
STARTCHAR 0322
ENCODING 802
SWIDTH 541 0
DWIDTH 13 0
BBX 5 5 4 -5
BITMAP
C0
C0
C0
F8
70
ENDCHAR
STARTCHAR 0323
ENCODING 803
SWIDTH 541 0
DWIDTH 13 0
BBX 3 3 5 -5
BITMAP
E0
E0
E0
ENDCHAR
STARTCHAR 0324
ENCODING 804
SWIDTH 541 0
DWIDTH 13 0
BBX 8 3 3 -4
BITMAP
E7
E7
E7
ENDCHAR
STARTCHAR 0325
ENCODING 805
SWIDTH 541 0
DWIDTH 13 0
BBX 4 4 4 -5
BITMAP
60
90
90
60
ENDCHAR
STARTCHAR 0326
ENCODING 806
SWIDTH 541 0
DWIDTH 13 0
BBX 3 4 5 -5
BITMAP
60
60
C0
C0
ENDCHAR
STARTCHAR 0327
ENCODING 807
SWIDTH 541 0
DWIDTH 13 0
BBX 3 3 5 -3
BITMAP
60
E0
C0
ENDCHAR
STARTCHAR 0328
ENCODING 808
SWIDTH 541 0
DWIDTH 13 0
BBX 4 5 5 -5
BITMAP
60
C0
C0
C0
70
ENDCHAR
STARTCHAR 0329
ENCODING 809
SWIDTH 541 0
DWIDTH 13 0
BBX 2 5 6 -6
BITMAP
C0
C0
C0
C0
C0
ENDCHAR
STARTCHAR 032A
ENCODING 810
SWIDTH 541 0
DWIDTH 13 0
BBX 7 3 3 -4
BITMAP
FE
82
82
ENDCHAR
STARTCHAR 032B
ENCODING 811
SWIDTH 541 0
DWIDTH 13 0
BBX 7 3 3 -4
BITMAP
92
92
6C
ENDCHAR
STARTCHAR 032C
ENCODING 812
SWIDTH 541 0
DWIDTH 13 0
BBX 7 3 3 -5
BITMAP
C6
7C
38
ENDCHAR
STARTCHAR 032D
ENCODING 813
SWIDTH 541 0
DWIDTH 13 0
BBX 7 3 3 -5
BITMAP
38
6C
C6
ENDCHAR
STARTCHAR 032E
ENCODING 814
SWIDTH 541 0
DWIDTH 13 0
BBX 7 3 3 -5
BITMAP
C6
FE
7C
ENDCHAR
STARTCHAR 032F
ENCODING 815
SWIDTH 541 0
DWIDTH 13 0
BBX 6 3 4 -5
BITMAP
78
FC
CC
ENDCHAR
STARTCHAR 0330
ENCODING 816
SWIDTH 541 0
DWIDTH 13 0
BBX 9 3 2 -5
BITMAP
7900
FF80
4F00
ENDCHAR
STARTCHAR 0331
ENCODING 817
SWIDTH 541 0
DWIDTH 13 0
BBX 6 2 4 -3
BITMAP
FC
FC
ENDCHAR
STARTCHAR 0332
ENCODING 818
SWIDTH 541 0
DWIDTH 13 0
BBX 13 2 0 -5
BITMAP
FFF8
FFF8
ENDCHAR
STARTCHAR 0333
ENCODING 819
SWIDTH 541 0
DWIDTH 13 0
BBX 13 5 0 -6
BITMAP
FFF8
FFF8
0000
FFF8
FFF8
ENDCHAR
STARTCHAR 0334
ENCODING 820
SWIDTH 541 0
DWIDTH 13 0
BBX 9 3 2 3
BITMAP
7900
FF80
4F00
ENDCHAR
STARTCHAR 0335
ENCODING 821
SWIDTH 541 0
DWIDTH 13 0
BBX 7 2 3 5
BITMAP
FE
FE
ENDCHAR
STARTCHAR 0336
ENCODING 822
SWIDTH 541 0
DWIDTH 13 0
BBX 10 2 2 5
BITMAP
FFC0
FFC0
ENDCHAR
STARTCHAR 0337
ENCODING 823
SWIDTH 541 0
DWIDTH 13 0
BBX 12 15 1 -2
BITMAP
0030
0060
00C0
00C0
0180
0300
0300
0600
0C00
0C00
1800
3000
3000
6000
C000
ENDCHAR
STARTCHAR 0338
ENCODING 824
SWIDTH 541 0
DWIDTH 13 0
BBX 15 19 -1 -2
BITMAP
0006
000C
0018
0038
0030
0060
00E0
00C0
0180
0380
0300
0600
0E00
0C00
1800
3800
3000
6000
E000
ENDCHAR
STARTCHAR 0339
ENCODING 825
SWIDTH 541 0
DWIDTH 13 0
BBX 2 4 6 -5
BITMAP
80
40
40
80
ENDCHAR
STARTCHAR 033A
ENCODING 826
SWIDTH 541 0
DWIDTH 13 0
BBX 8 3 3 -4
BITMAP
81
81
FF
ENDCHAR
STARTCHAR 033B
ENCODING 827
SWIDTH 541 0
DWIDTH 13 0
BBX 4 4 4 -5
BITMAP
F0
90
90
F0
ENDCHAR
STARTCHAR 033C
ENCODING 828
SWIDTH 541 0
DWIDTH 13 0
BBX 7 3 3 -4
BITMAP
6C
92
10
ENDCHAR
STARTCHAR 033D
ENCODING 829
SWIDTH 541 0
DWIDTH 13 0
BBX 5 5 4 12
BITMAP
D8
F8
70
F8
D8
ENDCHAR
STARTCHAR 033E
ENCODING 830
SWIDTH 541 0
DWIDTH 13 0
BBX 4 8 5 13
BITMAP
70
C0
C0
E0
70
30
30
E0
ENDCHAR
STARTCHAR 033F
ENCODING 831
SWIDTH 541 0
DWIDTH 13 0
BBX 13 5 0 16
BITMAP
FFF8
FFF8
0000
FFF8
FFF8
ENDCHAR
STARTCHAR 0340
ENCODING 832
SWIDTH 541 0
DWIDTH 13 0
BBX 5 3 5 12
BITMAP
E0
70
38
ENDCHAR
STARTCHAR 0341
ENCODING 833
SWIDTH 541 0
DWIDTH 13 0
BBX 5 3 3 12
BITMAP
38
70
E0
ENDCHAR
STARTCHAR 0342
ENCODING 834
SWIDTH 541 0
DWIDTH 13 0
BBX 9 3 2 12
BITMAP
7900
FF80
4F00
ENDCHAR
STARTCHAR 0343
ENCODING 835
SWIDTH 541 0
DWIDTH 13 0
BBX 3 4 5 13
BITMAP
E0
E0
60
C0
ENDCHAR
STARTCHAR 0344
ENCODING 836
SWIDTH 541 0
DWIDTH 13 0
BBX 9 4 2 12
BITMAP
0C00
CD80
D980
D980
ENDCHAR
STARTCHAR 0345
ENCODING 837
SWIDTH 541 0
DWIDTH 13 0
BBX 5 5 4 -5
BITMAP
C0
C0
C0
F8
70
ENDCHAR
STARTCHAR 0346
ENCODING 838
SWIDTH 541 0
DWIDTH 13 0
BBX 7 3 3 13
BITMAP
FE
82
82
ENDCHAR
STARTCHAR 0347
ENCODING 839
SWIDTH 541 0
DWIDTH 13 0
BBX 13 5 0 -6
BITMAP
FFF8
FFF8
0000
FFF8
FFF8
ENDCHAR
STARTCHAR 0348
ENCODING 840
SWIDTH 541 0
DWIDTH 13 0
BBX 6 6 4 -7
BITMAP
CC
CC
CC
CC
CC
CC
ENDCHAR
STARTCHAR 0349
ENCODING 841
SWIDTH 541 0
DWIDTH 13 0
BBX 4 4 5 -4
BITMAP
F0
10
10
10
ENDCHAR
STARTCHAR 034A
ENCODING 842
SWIDTH 541 0
DWIDTH 13 0
BBX 8 5 2 14
BITMAP
04
7C
FF
0E
18
ENDCHAR
STARTCHAR 034B
ENCODING 843
SWIDTH 541 0
DWIDTH 13 0
BBX 9 7 2 14
BITMAP
1800
1800
7800
FF80
0F00
1800
1800
ENDCHAR
STARTCHAR 034C
ENCODING 844
SWIDTH 541 0
DWIDTH 13 0
BBX 9 7 2 12
BITMAP
7900
FF80
4F00
0000
7900
FF80
4F00
ENDCHAR
STARTCHAR 034D
ENCODING 845
SWIDTH 541 0
DWIDTH 13 0
BBX 12 5 1 -6
BITMAP
2040
6060
FFF0
6060
2040
ENDCHAR
STARTCHAR 034E
ENCODING 846
SWIDTH 541 0
DWIDTH 13 0
BBX 3 4 5 -5
BITMAP
40
E0
40
40
ENDCHAR
STARTCHAR 034F
ENCODING 847
SWIDTH 541 0
DWIDTH 13 0
BBX 0 0 0 0
BITMAP
ENDCHAR
STARTCHAR 0350
ENCODING 848
SWIDTH 541 0
DWIDTH 13 0
BBX 3 5 5 13
BITMAP
80
40
20
40
80
ENDCHAR
STARTCHAR 0351
ENCODING 849
SWIDTH 541 0
DWIDTH 13 0
BBX 2 4 5 12
BITMAP
40
80
80
40
ENDCHAR
STARTCHAR 0352
ENCODING 850
SWIDTH 541 0
DWIDTH 13 0
BBX 8 6 2 13
BITMAP
3C
7E
E7
C3
18
18
ENDCHAR
STARTCHAR 0353
ENCODING 851
SWIDTH 541 0
DWIDTH 13 0
BBX 5 5 4 -6
BITMAP
D8
F8
70
F8
D8
ENDCHAR
STARTCHAR 0354
ENCODING 852
SWIDTH 541 0
DWIDTH 13 0
BBX 3 5 5 -5
BITMAP
20
40
80
40
20
ENDCHAR
STARTCHAR 0355
ENCODING 853
SWIDTH 541 0
DWIDTH 13 0
BBX 3 5 5 -5
BITMAP
80
40
20
40
80
ENDCHAR
STARTCHAR 0356
ENCODING 854
SWIDTH 541 0
DWIDTH 13 0
BBX 8 5 3 -5
BITMAP
80
44
2A
51
80
ENDCHAR
STARTCHAR 0357
ENCODING 855
SWIDTH 541 0
DWIDTH 13 0
BBX 2 5 6 12
BITMAP
80
40
40
C0
80
ENDCHAR
STARTCHAR 0358
ENCODING 856
SWIDTH 541 0
DWIDTH 13 0
BBX 3 3 5 12
BITMAP
E0
E0
E0
ENDCHAR
STARTCHAR 0359
ENCODING 857
SWIDTH 541 0
DWIDTH 13 0
BBX 5 5 4 -6
BITMAP
20
A8
70
F8
20
ENDCHAR
STARTCHAR 035A
ENCODING 858
SWIDTH 541 0
DWIDTH 13 0
BBX 7 4 3 -5
BITMAP
6C
92
92
6C
ENDCHAR
STARTCHAR 035B
ENCODING 859
SWIDTH 541 0
DWIDTH 13 0
BBX 4 5 4 13
BITMAP
40
C0
F0
30
20
ENDCHAR
STARTCHAR 035C
ENCODING 860
SWIDTH 541 0
DWIDTH 13 0
BBX 13 4 0 -5
BITMAP
8008
E030
3FE0
0F80
ENDCHAR
STARTCHAR 035D
ENCODING 861
SWIDTH 541 0
DWIDTH 13 0
BBX 13 4 0 12
BITMAP
8008
E030
3FE0
0F80
ENDCHAR
STARTCHAR 035E
ENCODING 862
SWIDTH 541 0
DWIDTH 13 0
BBX 12 2 0 12
BITMAP
FFF0
FFF0
ENDCHAR
STARTCHAR 035F
ENCODING 863
SWIDTH 541 0
DWIDTH 13 0
BBX 12 2 0 -7
BITMAP
FFF0
FFF0
ENDCHAR
STARTCHAR 0360
ENCODING 864
SWIDTH 541 0
DWIDTH 13 0
BBX 12 4 1 12
BITMAP
3C30
7E30
C7E0
C3C0
ENDCHAR
STARTCHAR 0361
ENCODING 865
SWIDTH 541 0
DWIDTH 13 0
BBX 13 4 0 12
BITMAP
0F80
3FE0
6030
8008
ENDCHAR
STARTCHAR 0362
ENCODING 866
SWIDTH 541 0
DWIDTH 13 0
BBX 13 5 0 -6
BITMAP
0020
0030
FFF8
0030
0020
ENDCHAR
STARTCHAR 0363
ENCODING 867
SWIDTH 541 0
DWIDTH 13 0
BBX 5 6 4 12
BITMAP
70
08
78
88
98
78
ENDCHAR
STARTCHAR 0364
ENCODING 868
SWIDTH 541 0
DWIDTH 13 0
BBX 6 6 4 12
BITMAP
78
84
FC
80
C0
7C
ENDCHAR
STARTCHAR 0365
ENCODING 869
SWIDTH 541 0
DWIDTH 13 0
BBX 5 9 4 12
BITMAP
60
60
00
E0
20
20
20
20
F8
ENDCHAR
STARTCHAR 0366
ENCODING 870
SWIDTH 541 0
DWIDTH 13 0
BBX 6 6 4 12
BITMAP
78
CC
84
84
CC
78
ENDCHAR
STARTCHAR 0367
ENCODING 871
SWIDTH 541 0
DWIDTH 13 0
BBX 5 6 4 12
BITMAP
88
88
88
88
98
68
ENDCHAR
STARTCHAR 0368
ENCODING 872
SWIDTH 541 0
DWIDTH 13 0
BBX 5 6 4 12
BITMAP
78
C0
80
80
C0
78
ENDCHAR
STARTCHAR 0369
ENCODING 873
SWIDTH 541 0
DWIDTH 13 0
BBX 5 8 4 12
BITMAP
08
08
78
88
88
88
98
68
ENDCHAR
STARTCHAR 036A
ENCODING 874
SWIDTH 541 0
DWIDTH 13 0
BBX 5 8 4 12
BITMAP
80
80
B0
C8
88
88
88
88
ENDCHAR
STARTCHAR 036B
ENCODING 875
SWIDTH 541 0
DWIDTH 13 0
BBX 7 6 3 12
BITMAP
BE
DA
92
92
92
92
ENDCHAR
STARTCHAR 036C
ENCODING 876
SWIDTH 541 0
DWIDTH 13 0
BBX 5 6 4 12
BITMAP
B8
C8
80
80
80
80
ENDCHAR
STARTCHAR 036D
ENCODING 877
SWIDTH 541 0
DWIDTH 13 0
BBX 6 8 3 12
BITMAP
20
20
FC
20
20
20
20
1C
ENDCHAR
STARTCHAR 036E
ENCODING 878
SWIDTH 541 0
DWIDTH 13 0
BBX 6 6 3 12
BITMAP
84
48
48
48
30
30
ENDCHAR
STARTCHAR 036F
ENCODING 879
SWIDTH 541 0
DWIDTH 13 0
BBX 6 6 3 12
BITMAP
CC
48
30
30
48
CC
ENDCHAR
STARTCHAR 0374
ENCODING 884
SWIDTH 541 0
DWIDTH 13 0
BBX 6 8 3 9
BITMAP
18
1C
1C
1C
18
38
E0
C0
ENDCHAR
STARTCHAR 0375
ENCODING 885
SWIDTH 541 0
DWIDTH 13 0
BBX 6 8 3 -4
BITMAP
0C
0C
0C
1C
18
78
F0
E0
ENDCHAR
STARTCHAR 037A
ENCODING 890
SWIDTH 541 0
DWIDTH 13 0
BBX 3 4 5 -5
BITMAP
C0
C0
C0
E0
ENDCHAR
STARTCHAR 037B
ENCODING 891
SWIDTH 541 0
DWIDTH 13 0
BBX 9 12 2 0
BITMAP
FC00
FE00
8700
0380
0180
0180
0180
0180
0380
8700
FE00
FC00
ENDCHAR
STARTCHAR 037C
ENCODING 892
SWIDTH 541 0
DWIDTH 13 0
BBX 9 12 2 0
BITMAP
1F00
3F80
7080
E000
CE00
CE00
CE00
C000
E000
7080
7F80
1F00
ENDCHAR
STARTCHAR 037D
ENCODING 893
SWIDTH 541 0
DWIDTH 13 0
BBX 9 12 2 0
BITMAP
FC00
FE00
8700
0380
3980
3980
3980
0180
0380
8700
FE00
FC00
ENDCHAR
STARTCHAR 037E
ENCODING 894
SWIDTH 541 0
DWIDTH 13 0
BBX 6 16 3 -4
BITMAP
10
38
38
10
00
00
00
00
38
3C
3C
1C
1C
38
F0
E0
ENDCHAR
STARTCHAR 0384
ENCODING 900
SWIDTH 541 0
DWIDTH 13 0
BBX 4 3 6 12
BITMAP
30
60
C0
ENDCHAR
STARTCHAR 0385
ENCODING 901
SWIDTH 541 0
DWIDTH 13 0
BBX 9 4 2 12
BITMAP
0C00
CD80
D980
D980
ENDCHAR
STARTCHAR 0386
ENCODING 902
SWIDTH 541 0
DWIDTH 13 0
BBX 13 16 0 0
BITMAP
6000
E700
C580
0D80
0D80
0CC0
18C0
18C0
1860
1860
3060
3FF0
3FF0
6038
6018
6018
ENDCHAR
STARTCHAR 0387
ENCODING 903
SWIDTH 541 0
DWIDTH 13 0
BBX 4 4 5 10
BITMAP
60
F0
F0
60
ENDCHAR
STARTCHAR 0388
ENCODING 904
SWIDTH 541 0
DWIDTH 13 0
BBX 13 16 -2 0
BITMAP
6000
EFF8
CFF8
0C00
0C00
0C00
0C00
0FF8
0FF8
0C00
0C00
0C00
0C00
0C00
0FF8
0FF8
ENDCHAR
STARTCHAR 0389
ENCODING 905
SWIDTH 541 0
DWIDTH 13 0
BBX 14 16 -2 0
BITMAP
6000
F80C
D80C
180C
180C
180C
180C
1FFC
1FFC
180C
180C
180C
180C
180C
180C
180C
ENDCHAR
STARTCHAR 038A
ENCODING 906
SWIDTH 541 0
DWIDTH 13 0
BBX 14 16 -2 0
BITMAP
6000
EFFC
CFFC
00C0
00C0
00C0
00C0
00C0
00C0
00C0
00C0
00C0
00C0
00C0
0FFC
0FFC
ENDCHAR
STARTCHAR 038C
ENCODING 908
SWIDTH 541 0
DWIDTH 13 0
BBX 14 16 -1 0
BITMAP
6000
E3E0
CFF0
1C38
1818
380C
300C
300C
300C
300C
300C
301C
1818
1C38
0FF0
07C0
ENDCHAR
STARTCHAR 038E
ENCODING 910
SWIDTH 541 0
DWIDTH 13 0
BBX 16 16 -3 0
BITMAP
6000
F003
D806
0C0E
0C0C
0618
0718
0330
01F0
01E0
00C0
00C0
00C0
00C0
00C0
00C0
ENDCHAR
STARTCHAR 038F
ENCODING 911
SWIDTH 541 0
DWIDTH 13 0
BBX 14 16 -1 0
BITMAP
6000
E3E0
CFF0
1C38
1818
300C
300C
300C
300C
300C
300C
1818
1818
0C30
3E7C
3E7C
ENDCHAR
STARTCHAR 0390
ENCODING 912
SWIDTH 541 0
DWIDTH 13 0
BBX 10 18 2 0
BITMAP
0C00
CD80
D980
D980
0000
0000
FC00
FC00
0C00
0C00
0C00
0C00
0C00
0C00
0C00
0E00
07C0
03C0
ENDCHAR
STARTCHAR 0391
ENCODING 913
SWIDTH 541 0
DWIDTH 13 0
BBX 12 15 1 0
BITMAP
0E00
0B00
1B00
1B00
1980
3180
3180
30C0
30C0
60C0
7FE0
7FE0
C070
C030
C030
ENDCHAR
STARTCHAR 0392
ENCODING 914
SWIDTH 541 0
DWIDTH 13 0
BBX 10 15 2 0
BITMAP
FE00
FF00
C380
C180
C180
C300
FE00
FF80
C180
C0C0
C0C0
C0C0
C180
FF80
FE00
ENDCHAR
STARTCHAR 0393
ENCODING 915
SWIDTH 541 0
DWIDTH 13 0
BBX 9 15 3 0
BITMAP
FF80
FF80
C000
C000
C000
C000
C000
C000
C000
C000
C000
C000
C000
C000
C000
ENDCHAR
STARTCHAR 0394
ENCODING 916
SWIDTH 541 0
DWIDTH 13 0
BBX 13 15 0 0
BITMAP
0700
0780
0D80
0D80
0DC0
18C0
18C0
18E0
3060
3060
7070
6030
6030
FFF8
FFF8
ENDCHAR
STARTCHAR 0395
ENCODING 917
SWIDTH 541 0
DWIDTH 13 0
BBX 9 15 2 0
BITMAP
FF80
FF80
C000
C000
C000
C000
FF80
FF80
C000
C000
C000
C000
C000
FF80
FF80
ENDCHAR
STARTCHAR 0396
ENCODING 918
SWIDTH 541 0
DWIDTH 13 0
BBX 11 15 1 0
BITMAP
FFC0
FFC0
0180
0380
0300
0600
0600
0C00
1800
1800
3000
7000
6000
FFE0
FFE0
ENDCHAR
STARTCHAR 0397
ENCODING 919
SWIDTH 541 0
DWIDTH 13 0
BBX 11 15 1 0
BITMAP
C060
C060
C060
C060
C060
C060
FFE0
FFE0
C060
C060
C060
C060
C060
C060
C060
ENDCHAR
STARTCHAR 0398
ENCODING 920
SWIDTH 541 0
DWIDTH 13 0
BBX 12 15 1 0
BITMAP
0F80
3FC0
70E0
6060
E030
C030
CF30
CF30
C030
C030
C070
6060
70E0
3FC0
1F00
ENDCHAR
STARTCHAR 0399
ENCODING 921
SWIDTH 541 0
DWIDTH 13 0
BBX 10 15 2 0
BITMAP
FFC0
FFC0
0C00
0C00
0C00
0C00
0C00
0C00
0C00
0C00
0C00
0C00
0C00
FFC0
FFC0
ENDCHAR
STARTCHAR 039A
ENCODING 922
SWIDTH 541 0
DWIDTH 13 0
BBX 10 15 2 0
BITMAP
C0C0
C180
C300
C600
CE00
CC00
D800
F000
D800
CC00
CE00
C700
C300
C180
C0C0
ENDCHAR
STARTCHAR 039B
ENCODING 923
SWIDTH 541 0
DWIDTH 13 0
BBX 13 15 0 0
BITMAP
0700
0780
0D80
0D80
1DC0
18C0
18C0
38E0
3060
3060
6030
6030
E038
C018
C018
ENDCHAR
STARTCHAR 039C
ENCODING 924
SWIDTH 541 0
DWIDTH 13 0
BBX 12 15 1 0
BITMAP
E0E0
E0E0
E0E0
F1E0
D160
DB60
DB60
CA60
CE60
C460
C060
C060
C070
C070
C070
ENDCHAR
STARTCHAR 039D
ENCODING 925
SWIDTH 541 0
DWIDTH 13 0
BBX 11 15 1 0
BITMAP
E060
F060
F060
D060
D860
C860
CC60
C460
C660
C660
C360
C360
C1E0
C1E0
C0E0
ENDCHAR
STARTCHAR 039E
ENCODING 926
SWIDTH 541 0
DWIDTH 13 0
BBX 9 15 2 0
BITMAP
FF80
FF80
0000
0000
0000
0000
7F00
7F00
0000
0000
0000
0000
0000
FF80
FF80
ENDCHAR
STARTCHAR 039F
ENCODING 927
SWIDTH 541 0
DWIDTH 13 0
BBX 12 15 1 0
BITMAP
0F80
3FC0
70E0
6060
E030
C030
C030
C030
C030
C030
C070
6060
70E0
3FC0
1F00
ENDCHAR
STARTCHAR 03A0
ENCODING 928
SWIDTH 541 0
DWIDTH 13 0
BBX 10 15 1 0
BITMAP
FFC0
FFC0
C0C0
C0C0
C0C0
C0C0
C0C0
C0C0
C0C0
C0C0
C0C0
C0C0
C0C0
C0C0
C0C0
ENDCHAR
STARTCHAR 03A1
ENCODING 929
SWIDTH 541 0
DWIDTH 13 0
BBX 10 15 2 0
BITMAP
FE00
FF80
C180
C0C0
C0C0
C0C0
C0C0
C180
FF00
FE00
C000
C000
C000
C000
C000
ENDCHAR
STARTCHAR 03A3
ENCODING 931
SWIDTH 541 0
DWIDTH 13 0
BBX 11 15 1 0
BITMAP
FFE0
FFE0
6000
3000
1800
1C00
0E00
0600
0C00
1800
3800
7000
6000
FFE0
FFE0
ENDCHAR
STARTCHAR 03A4
ENCODING 932
SWIDTH 541 0
DWIDTH 13 0
BBX 12 15 1 0
BITMAP
FFF0
FFF0
0600
0600
0600
0600
0600
0600
0600
0600
0600
0600
0600
0600
0600
ENDCHAR
STARTCHAR 03A5
ENCODING 933
SWIDTH 541 0
DWIDTH 13 0
BBX 14 15 -1 0
BITMAP
C00C
6018
3038
3030
1860
1C60
0CC0
07C0
0780
0300
0300
0300
0300
0300
0300
ENDCHAR
STARTCHAR 03A6
ENCODING 934
SWIDTH 541 0
DWIDTH 13 0
BBX 12 17 1 -1
BITMAP
0600
1F80
3FC0
76E0
6660
C630
C630
C630
C630
C630
C630
C630
6660
76E0
3FC0
1F80
0600
ENDCHAR
STARTCHAR 03A7
ENCODING 935
SWIDTH 541 0
DWIDTH 13 0
BBX 13 15 0 0
BITMAP
7038
3030
1860
1CE0
0DC0
0F80
0780
0700
0780
0DC0
1CC0
38E0
3060
7070
E038
ENDCHAR
STARTCHAR 03A8
ENCODING 936
SWIDTH 541 0
DWIDTH 13 0
BBX 12 15 1 0
BITMAP
C630
C630
C630
C630
C630
C630
C630
C630
66E0
7FC0
1F80
0600
0600
0600
0600
ENDCHAR
STARTCHAR 03A9
ENCODING 937
SWIDTH 541 0
DWIDTH 13 0
BBX 12 15 1 0
BITMAP
0F80
3FC0
70E0
6060
C030
C030
C030
C030
C030
C030
6060
6060
30C0
F9F0
F9F0
ENDCHAR
STARTCHAR 03AA
ENCODING 938
SWIDTH 541 0
DWIDTH 13 0
BBX 10 20 2 0
BITMAP
6300
6300
6300
0000
0000
FFC0
FFC0
0C00
0C00
0C00
0C00
0C00
0C00
0C00
0C00
0C00
0C00
0C00
FFC0
FFC0
ENDCHAR
STARTCHAR 03AB
ENCODING 939
SWIDTH 541 0
DWIDTH 13 0
BBX 14 20 -1 0
BITMAP
0C60
0C60
0C60
0000
0000
C00C
6018
3038
3030
1860
1C60
0CC0
07C0
0780
0300
0300
0300
0300
0300
0300
ENDCHAR
STARTCHAR 03AC
ENCODING 940
SWIDTH 541 0
DWIDTH 13 0
BBX 12 17 1 -1
BITMAP
0180
0300
0600
0000
0000
1E60
3F60
61E0
E1C0
C0C0
C0C0
C0C0
C0C0
C1C0
63E0
7F70
3E70
ENDCHAR
STARTCHAR 03AD
ENCODING 941
SWIDTH 541 0
DWIDTH 13 0
BBX 10 17 2 0
BITMAP
0300
0600
0C00
0000
0000
1F80
3FC0
7040
6000
7000
3F00
7F00
E000
C000
E040
7FC0
3F80
ENDCHAR
STARTCHAR 03AE
ENCODING 942
SWIDTH 541 0
DWIDTH 13 0
BBX 10 22 1 -5
BITMAP
0180
0300
0600
0000
0000
C700
DF80
79C0
70C0
60C0
60C0
60C0
60C0
60C0
60C0
60C0
60C0
00C0
00C0
00C0
00C0
00C0
ENDCHAR
STARTCHAR 03AF
ENCODING 943
SWIDTH 541 0
DWIDTH 13 0
BBX 10 17 2 0
BITMAP
0300
0600
0C00
0000
0000
FC00
FC00
0C00
0C00
0C00
0C00
0C00
0C00
0C00
0E00
07C0
03C0
ENDCHAR
STARTCHAR 03B0
ENCODING 944
SWIDTH 541 0
DWIDTH 13 0
BBX 10 18 2 0
BITMAP
0C00
CD80
D980
D980
0000
0000
C0C0
C0C0
C0C0
C0C0
C0C0
C0C0
C0C0
C0C0
C180
E380
7F00
3E00
ENDCHAR
STARTCHAR 03B1
ENCODING 945
SWIDTH 541 0
DWIDTH 13 0
BBX 12 12 1 -1
BITMAP
1E60
3F60
61E0
E1C0
C0C0
C0C0
C0C0
C0C0
C1C0
63E0
7F70
3E70
ENDCHAR
STARTCHAR 03B2
ENCODING 946
SWIDTH 541 0
DWIDTH 13 0
BBX 10 22 2 -5
BITMAP
3E00
7F00
E380
C180
C180
C180
C300
CE00
CF80
C180
C0C0
C0C0
C0C0
C0C0
E180
FF80
FE00
C000
C000
C000
C000
C000
ENDCHAR
STARTCHAR 03B3
ENCODING 947
SWIDTH 541 0
DWIDTH 13 0
BBX 11 17 1 -4
BITMAP
E060
E060
7060
3060
1840
18C0
18C0
0CC0
0D80
0D80
0F00
0700
0600
0600
0600
0600
0600
ENDCHAR
STARTCHAR 03B4
ENCODING 948
SWIDTH 541 0
DWIDTH 13 0
BBX 10 17 1 0
BITMAP
1F80
3F80
3000
3000
1C00
1E00
3F00
6380
6180
C0C0
C0C0
C0C0
C0C0
E0C0
6180
7F80
1E00
ENDCHAR
STARTCHAR 03B5
ENCODING 949
SWIDTH 541 0
DWIDTH 13 0
BBX 10 12 2 0
BITMAP
1F80
3FC0
7040
6000
7000
3F00
7F00
E000
C000
E040
7FC0
3F80
ENDCHAR
STARTCHAR 03B6
ENCODING 950
SWIDTH 541 0
DWIDTH 13 0
BBX 9 22 2 -5
BITMAP
7F80
7F80
0700
0E00
1C00
1800
3000
6000
6000
C000
C000
C000
C000
E000
7000
3E00
1F00
0380
0180
0180
0180
0300
ENDCHAR
STARTCHAR 03B7
ENCODING 951
SWIDTH 541 0
DWIDTH 13 0
BBX 10 17 1 -5
BITMAP
C700
DF80
79C0
70C0
60C0
60C0
60C0
60C0
60C0
60C0
60C0
60C0
00C0
00C0
00C0
00C0
00C0
ENDCHAR
STARTCHAR 03B8
ENCODING 952
SWIDTH 541 0
DWIDTH 13 0
BBX 11 17 1 0
BITMAP
0F00
3F80
71C0
60C0
6060
C060
C060
FFE0
FFE0
C060
C060
C060
C0C0
60C0
71C0
3F80
1E00
ENDCHAR
STARTCHAR 03B9
ENCODING 953
SWIDTH 541 0
DWIDTH 13 0
BBX 10 12 2 0
BITMAP
FC00
FC00
0C00
0C00
0C00
0C00
0C00
0C00
0C00
0E00
07C0
03C0
ENDCHAR
STARTCHAR 03BA
ENCODING 954
SWIDTH 541 0
DWIDTH 13 0
BBX 10 12 2 0
BITMAP
C180
C300
C600
CC00
D800
F000
D800
CC00
C600
C300
C180
C0C0
ENDCHAR
STARTCHAR 03BB
ENCODING 955
SWIDTH 541 0
DWIDTH 13 0
BBX 11 17 1 0
BITMAP
7000
7800
1C00
0C00
0E00
0E00
0E00
0F00
1B00
1B00
3380
3180
7180
61C0
60C0
C0E0
C060
ENDCHAR
STARTCHAR 03BC
ENCODING 956
SWIDTH 541 0
DWIDTH 13 0
BBX 10 17 2 -5
BITMAP
C180
C180
C180
C180
C180
C180
C180
C180
C380
E780
FFC0
FCC0
C000
C000
C000
C000
C000
ENDCHAR
STARTCHAR 03BD
ENCODING 957
SWIDTH 541 0
DWIDTH 13 0
BBX 10 12 1 0
BITMAP
C0C0
C0C0
E0C0
60C0
7080
3180
3180
3900
1B00
1B00
0E00
0E00
ENDCHAR
STARTCHAR 03BE
ENCODING 958
SWIDTH 541 0
DWIDTH 13 0
BBX 10 22 2 -5
BITMAP
FF80
FF80
1800
3000
6000
6000
7000
3F80
3F80
7000
C000
C000
C000
E000
7800
7F00
1F80
01C0
00C0
00C0
00C0
0180
ENDCHAR
STARTCHAR 03BF
ENCODING 959
SWIDTH 541 0
DWIDTH 13 0
BBX 11 12 1 0
BITMAP
1F00
3FC0
71C0
E0E0
C060
C060
C060
C060
E0E0
71C0
7F80
1F00
ENDCHAR
STARTCHAR 03C0
ENCODING 960
SWIDTH 541 0
DWIDTH 13 0
BBX 12 12 1 -1
BITMAP
FFF0
FFF0
30C0
30C0
30C0
30C0
30C0
30C0
60C0
60C0
60F0
C070
ENDCHAR
STARTCHAR 03C1
ENCODING 961
SWIDTH 541 0
DWIDTH 13 0
BBX 10 17 2 -5
BITMAP
1E00
7F80
6180
C0C0
C0C0
C0C0
C0C0
C0C0
C1C0
E180
FF00
FE00
C000
C000
C000
C000
C000
ENDCHAR
STARTCHAR 03C2
ENCODING 962
SWIDTH 541 0
DWIDTH 13 0
BBX 10 17 2 -5
BITMAP
0F80
3FC0
7040
E000
C000
C000
C000
C000
E000
7000
3F00
1F80
01C0
00C0
00C0
00C0
0180
ENDCHAR
STARTCHAR 03C3
ENCODING 963
SWIDTH 541 0
DWIDTH 13 0
BBX 12 12 1 0
BITMAP
1FF0
3FF0
70C0
E0C0
C060
C060
C060
C060
E0E0
71C0
7F80
1F00
ENDCHAR
STARTCHAR 03C4
ENCODING 964
SWIDTH 541 0
DWIDTH 13 0
BBX 10 12 1 0
BITMAP
FFC0
FFC0
1800
1800
1800
1800
1800
1800
1800
1C00
0FC0
07C0
ENDCHAR
STARTCHAR 03C5
ENCODING 965
SWIDTH 541 0
DWIDTH 13 0
BBX 10 12 2 0
BITMAP
C0C0
C0C0
C0C0
C0C0
C0C0
C0C0
C0C0
C0C0
C180
E380
7F00
3E00
ENDCHAR
STARTCHAR 03C6
ENCODING 966
SWIDTH 541 0
DWIDTH 13 0
BBX 12 22 1 -5
BITMAP
0600
0600
0600
0600
0600
1F80
3FE0
76E0
E670
C630
C630
C630
C630
E670
76E0
7FC0
1F80
0600
0600
0600
0600
0600
ENDCHAR
STARTCHAR 03C7
ENCODING 967
SWIDTH 541 0
DWIDTH 13 0
BBX 11 17 1 -5
BITMAP
E0C0
F0C0
3180
1980
1B80
1F00
0F00
0E00
0E00
0E00
1F00
1B00
3300
3180
7180
61E0
E0E0
ENDCHAR
STARTCHAR 03C8
ENCODING 968
SWIDTH 541 0
DWIDTH 13 0
BBX 12 22 1 -5
BITMAP
0600
0600
0600
0600
0600
C630
C630
C630
C630
C630
C630
C630
C630
C660
E6E0
7FC0
1F80
0600
0600
0600
0600
0600
ENDCHAR
STARTCHAR 03C9
ENCODING 969
SWIDTH 541 0
DWIDTH 13 0
BBX 12 12 1 0
BITMAP
6060
6060
C030
C030
C630
C630
C630
C630
C630
EE70
7FE0
39C0
ENDCHAR
STARTCHAR 03CA
ENCODING 970
SWIDTH 541 0
DWIDTH 13 0
BBX 10 17 2 0
BITMAP
7380
7380
7380
0000
0000
FC00
FC00
0C00
0C00
0C00
0C00
0C00
0C00
0C00
0E00
07C0
03C0
ENDCHAR
STARTCHAR 03CB
ENCODING 971
SWIDTH 541 0
DWIDTH 13 0
BBX 10 17 2 0
BITMAP
7380
7380
7380
0000
0000
C0C0
C0C0
C0C0
C0C0
C0C0
C0C0
C0C0
C0C0
C180
E380
7F00
3E00
ENDCHAR
STARTCHAR 03CC
ENCODING 972
SWIDTH 541 0
DWIDTH 13 0
BBX 11 17 1 0
BITMAP
0180
0300
0600
0000
0000
1F00
3FC0
71C0
E0E0
C060
C060
C060
C060
E0E0
71C0
7F80
1F00
ENDCHAR
STARTCHAR 03CD
ENCODING 973
SWIDTH 541 0
DWIDTH 13 0
BBX 10 17 2 0
BITMAP
0300
0600
0C00
0000
0000
C0C0
C0C0
C0C0
C0C0
C0C0
C0C0
C0C0
C0C0
C180
E380
7F00
3E00
ENDCHAR
STARTCHAR 03CE
ENCODING 974
SWIDTH 541 0
DWIDTH 13 0
BBX 12 17 1 0
BITMAP
0180
0300
0600
0000
0000
6060
6060
C030
C030
C630
C630
C630
C630
C630
EE70
7FE0
39C0
ENDCHAR
STARTCHAR 03D0
ENCODING 976
SWIDTH 541 0
DWIDTH 13 0
BBX 11 17 1 0
BITMAP
0F00
3FC0
70C0
60C0
60C0
C180
CF00
FF80
E0C0
C060
C060
C060
C060
60E0
71C0
3FC0
1F00
ENDCHAR
STARTCHAR 03D1
ENCODING 977
SWIDTH 541 0
DWIDTH 13 0
BBX 13 17 0 0
BITMAP
07C0
0C60
0C30
0C30
0E30
07F8
E1F8
F030
3030
3030
3030
3030
3070
3060
38E0
1FC0
0F80
ENDCHAR
STARTCHAR 03D2
ENCODING 978
SWIDTH 541 0
DWIDTH 13 0
BBX 12 15 1 0
BITMAP
C030
F0F0
39C0
1980
0F00
0F00
0600
0600
0600
0600
0600
0600
0600
0600
0600
ENDCHAR
STARTCHAR 03D3
ENCODING 979
SWIDTH 541 0
DWIDTH 13 0
BBX 16 16 -3 0
BITMAP
3000
6C03
CF0F
039C
0198
00F0
00F0
0060
0060
0060
0060
0060
0060
0060
0060
0060
ENDCHAR
STARTCHAR 03D4
ENCODING 980
SWIDTH 541 0
DWIDTH 13 0
BBX 12 20 1 0
BITMAP
3180
3180
3180
0000
0000
C030
F0F0
39C0
1980
0F00
0F00
0600
0600
0600
0600
0600
0600
0600
0600
0600
ENDCHAR
STARTCHAR 03D5
ENCODING 981
SWIDTH 541 0
DWIDTH 13 0
BBX 12 16 1 -4
BITMAP
23C0
67E0
6670
C630
C630
C630
C630
C630
E670
6660
7FC0
1F80
0600
0600
0600
0600
ENDCHAR
STARTCHAR 03D6
ENCODING 982
SWIDTH 541 0
DWIDTH 13 0
BBX 14 12 -1 1
BITMAP
7FFC
FFFC
1838
3018
3198
3198
3198
3198
3198
3B98
1EF0
0CE0
ENDCHAR
STARTCHAR 03D7
ENCODING 983
SWIDTH 541 0
DWIDTH 13 0
BBX 12 17 1 -5
BITMAP
E040
F0E0
31C0
31C0
3380
3780
3D80
3980
7180
7180
E1F0
40F0
0030
0030
0030
01F0
01E0
ENDCHAR
STARTCHAR 03D8
ENCODING 984
SWIDTH 541 0
DWIDTH 13 0
BBX 12 15 1 0
BITMAP
1F80
3FE0
70E0
E070
C030
C030
C030
C030
E070
70E0
7FC0
1F80
0600
0600
0600
ENDCHAR
STARTCHAR 03D9
ENCODING 985
SWIDTH 541 0
DWIDTH 13 0
BBX 11 17 2 -5
BITMAP
1F00
3FC0
71C0
E0E0
C060
C060
C060
C060
E0E0
71C0
7F80
3F00
0C00
0C00
0C00
0C00
0C00
ENDCHAR
STARTCHAR 03DA
ENCODING 986
SWIDTH 541 0
DWIDTH 13 0
BBX 11 21 1 -5
BITMAP
0020
00E0
0FE0
3E00
7000
6000
C000
C000
C000
C000
C000
C000
6000
7000
3C00
1FC0
03E0
0060
0060
0060
00C0
ENDCHAR
STARTCHAR 03DB
ENCODING 987
SWIDTH 541 0
DWIDTH 13 0
BBX 9 18 2 -5
BITMAP
0080
0780
3F00
7000
E000
C000
C000
C000
C000
E000
7000
7E00
1F00
0380
0180
0180
0180
0300
ENDCHAR
STARTCHAR 03DC
ENCODING 988
SWIDTH 541 0
DWIDTH 13 0
BBX 9 15 2 0
BITMAP
FF80
FF80
C000
C000
C000
C000
C000
FF00
FF00
C080
C000
C000
C000
C000
C000
ENDCHAR
STARTCHAR 03DD
ENCODING 989
SWIDTH 541 0
DWIDTH 13 0
BBX 9 17 3 -5
BITMAP
1F80
7F80
E080
C000
C000
C000
C000
FF00
FF00
C100
C000
C000
C000
C000
C000
C000
C000
ENDCHAR
STARTCHAR 03DE
ENCODING 990
SWIDTH 541 0
DWIDTH 13 0
BBX 12 15 1 0
BITMAP
0C00
1800
1800
3800
3000
7000
6000
7FF0
FFE0
0060
00C0
00C0
0180
0180
0300
ENDCHAR
STARTCHAR 03DF
ENCODING 991
SWIDTH 541 0
DWIDTH 13 0
BBX 10 17 1 -5
BITMAP
1800
3800
3000
3000
7000
6000
6000
FFC0
FF80
0180
0180
0300
0300
0600
0600
0600
0C00
ENDCHAR
STARTCHAR 03E0
ENCODING 992
SWIDTH 541 0
DWIDTH 13 0
BBX 12 15 1 0
BITMAP
7E00
FF80
81C0
03E0
0E60
1C70
30F0
03B0
0730
0C30
0030
0060
0060
00C0
01C0
ENDCHAR
STARTCHAR 03E1
ENCODING 993
SWIDTH 541 0
DWIDTH 13 0
BBX 12 20 1 -5
BITMAP
7E00
FF00
8380
01C0
03E0
0760
0E60
1C70
10F0
01B0
0330
0630
0430
0030
0070
0060
0060
00E0
00C0
0180
ENDCHAR
STARTCHAR 03E2
ENCODING 994
SWIDTH 541 0
DWIDTH 13 0
BBX 11 19 1 -5
BITMAP
C660
C660
C660
C660
C660
C660
C660
C660
C660
C660
C660
C660
C660
FFE0
79E0
0060
0060
1FE0
1FC0
ENDCHAR
STARTCHAR 03E3
ENCODING 995
SWIDTH 541 0
DWIDTH 13 0
BBX 11 16 1 -5
BITMAP
C660
C660
C660
C660
C660
C660
C660
C660
C660
CEE0
FFE0
7360
0060
0060
1FE0
1FC0
ENDCHAR
STARTCHAR 03E4
ENCODING 996
SWIDTH 541 0
DWIDTH 13 0
BBX 10 15 1 0
BITMAP
30C0
70C0
E0C0
C0C0
C0C0
C0C0
C0C0
60C0
7FC0
1FC0
00C0
00C0
00C0
00C0
00C0
ENDCHAR
STARTCHAR 03E5
ENCODING 997
SWIDTH 541 0
DWIDTH 13 0
BBX 10 17 1 -5
BITMAP
30C0
70C0
E0C0
C0C0
C0C0
C0C0
C0C0
C0C0
60C0
7FC0
1FC0
00C0
00C0
00C0
00C0
00C0
00C0
ENDCHAR
STARTCHAR 03E6
ENCODING 998
SWIDTH 541 0
DWIDTH 13 0
BBX 10 21 2 -5
BITMAP
C000
C000
C000
C000
C000
C000
C000
FF00
FF80
C1C0
C0C0
C0C0
C0C0
C0C0
C0C0
C0C0
C0C0
00C0
00C0
7FC0
7F80
ENDCHAR
STARTCHAR 03E7
ENCODING 999
SWIDTH 541 0
DWIDTH 13 0
BBX 11 12 1 0
BITMAP
1F60
3FC0
30C0
31E0
3F60
1E60
0060
0060
7060
F8C0
CFC0
C780
ENDCHAR
STARTCHAR 03E8
ENCODING 1000
SWIDTH 541 0
DWIDTH 13 0
BBX 10 15 2 0
BITMAP
1E00
3F00
6180
6180
0180
0700
1E00
7800
6000
C000
C000
C000
E040
7FC0
3F80
ENDCHAR
STARTCHAR 03E9
ENCODING 1001
SWIDTH 541 0
DWIDTH 13 0
BBX 9 12 2 0
BITMAP
7C00
FF00
C300
0300
0700
3C00
7000
C000
C000
C080
7F80
3F00
ENDCHAR
STARTCHAR 03EA
ENCODING 1002
SWIDTH 541 0
DWIDTH 13 0
BBX 12 15 1 0
BITMAP
70E0
79E0
1F80
0F00
0600
0600
0F00
0F00
1980
1980
30C0
30C0
6060
7FE0
FFF0
ENDCHAR
STARTCHAR 03EB
ENCODING 1003
SWIDTH 541 0
DWIDTH 13 0
BBX 12 12 0 0
BITMAP
70E0
1980
0F00
0600
0F00
0F00
1980
1980
30C0
6060
7FE0
FFF0
ENDCHAR
STARTCHAR 03EC
ENCODING 1004
SWIDTH 541 0
DWIDTH 13 0
BBX 12 17 1 0
BITMAP
0FF0
3FF0
7000
6000
4000
DF80
FFC0
E0E0
C070
C030
C030
C030
C030
6060
70E0
3FC0
1F00
ENDCHAR
STARTCHAR 03ED
ENCODING 1005
SWIDTH 541 0
DWIDTH 13 0
BBX 11 17 1 0
BITMAP
0FE0
3FE0
7000
6000
4000
CF00
DFC0
F0C0
E0E0
C060
C060
C060
C060
60E0
71C0
3F80
1F00
ENDCHAR
STARTCHAR 03EE
ENCODING 1006
SWIDTH 541 0
DWIDTH 13 0
BBX 11 15 1 0
BITMAP
0600
0600
7FE0
FFE0
8600
0600
0600
0600
0600
0600
0600
0600
0600
0600
0600
ENDCHAR
STARTCHAR 03EF
ENCODING 1007
SWIDTH 541 0
DWIDTH 13 0
BBX 11 20 1 -5
BITMAP
0600
0600
0600
FFE0
FFE0
0600
0600
0600
0600
0600
0600
0600
0600
0600
0600
0600
0600
0600
3E00
3C00
ENDCHAR
STARTCHAR 03F0
ENCODING 1008
SWIDTH 541 0
DWIDTH 13 0
BBX 11 12 1 0
BITMAP
E040
F0E0
31C0
31C0
3380
3780
3D80
3980
7180
7180
E1E0
40E0
ENDCHAR
STARTCHAR 03F1
ENCODING 1009
SWIDTH 541 0
DWIDTH 13 0
BBX 10 16 2 -5
BITMAP
1E00
7F80
6180
C0C0
C0C0
C0C0
C0C0
C0C0
C1C0
E180
FF00
FE00
C000
E000
7F80
3F80
ENDCHAR
STARTCHAR 03F2
ENCODING 1010
SWIDTH 541 0
DWIDTH 13 0
BBX 9 12 2 0
BITMAP
1F00
3F80
7080
E000
C000
C000
C000
C000
E000
7080
7F80
1F00
ENDCHAR
STARTCHAR 03F3
ENCODING 1011
SWIDTH 541 0
DWIDTH 13 0
BBX 8 22 2 -5
BITMAP
07
07
07
00
00
FF
FF
03
03
03
03
03
03
03
03
03
03
03
03
86
FE
78
ENDCHAR
STARTCHAR 03F4
ENCODING 1012
SWIDTH 541 0
DWIDTH 13 0
BBX 12 15 1 0
BITMAP
0F80
3FC0
70E0
6060
C030
C030
FFF0
FFF0
C030
C030
C070
6060
70E0
3FC0
1F00
ENDCHAR
STARTCHAR 03F5
ENCODING 1013
SWIDTH 541 0
DWIDTH 13 0
BBX 10 12 2 0
BITMAP
0FC0
3FC0
7000
E000
C000
FF80
FF80
C000
E000
7000
3FC0
1FC0
ENDCHAR
STARTCHAR 03F6
ENCODING 1014
SWIDTH 541 0
DWIDTH 13 0
BBX 9 12 2 0
BITMAP
F800
FE00
0700
0380
0180
7F80
7F80
0180
0380
0700
FF00
FC00
ENDCHAR
STARTCHAR 03F7
ENCODING 1015
SWIDTH 541 0
DWIDTH 13 0
BBX 10 15 2 0
BITMAP
C000
C000
FE00
FF80
C180
C0C0
C0C0
C0C0
C0C0
C380
FF00
FE00
C000
C000
C000
ENDCHAR
STARTCHAR 03F8
ENCODING 1016
SWIDTH 541 0
DWIDTH 13 0
BBX 13 22 -1 -5
BITMAP
0780
0F80
1C00
1800
1800
19E0
1FF0
1E30
1C18
1818
1818
1818
1818
1838
1870
1FE0
1FC0
1800
1800
3800
F000
E000
ENDCHAR
STARTCHAR 03F9
ENCODING 1017
SWIDTH 541 0
DWIDTH 13 0
BBX 10 15 1 0
BITMAP
0F80
3FC0
7040
6000
E000
C000
C000
C000
C000
C000
C000
6000
7040
3FC0
0F80
ENDCHAR
STARTCHAR 03FA
ENCODING 1018
SWIDTH 541 0
DWIDTH 13 0
BBX 11 15 1 0
BITMAP
E0E0
E1E0
F1E0
DB60
DB60
CE60
CC60
C060
C060
C060
C060
C060
C060
C060
C060
ENDCHAR
STARTCHAR 03FB
ENCODING 1019
SWIDTH 541 0
DWIDTH 13 0
BBX 10 17 2 -5
BITMAP
E1C0
E1C0
F3C0
DEC0
DEC0
CCC0
C0C0
C0C0
C0C0
C0C0
C0C0
C0C0
C000
C000
C000
C000
C000
ENDCHAR
STARTCHAR 03FC
ENCODING 1020
SWIDTH 541 0
DWIDTH 13 0
BBX 12 17 0 -5
BITMAP
0780
1FE0
1860
3030
3030
3030
3030
3030
3070
3860
3FC0
3F80
3000
3000
FF00
FF00
3000
ENDCHAR
STARTCHAR 03FD
ENCODING 1021
SWIDTH 541 0
DWIDTH 13 0
BBX 10 15 2 0
BITMAP
7E00
FF00
8380
0180
01C0
00C0
00C0
00C0
00C0
00C0
01C0
0180
8380
FF00
7C00
ENDCHAR
STARTCHAR 03FE
ENCODING 1022
SWIDTH 541 0
DWIDTH 13 0
BBX 10 15 1 0
BITMAP
0F80
3FC0
7040
6000
E000
C180
C3C0
C3C0
C180
C000
C000
6000
7040
3FC0
0F80
ENDCHAR
STARTCHAR 03FF
ENCODING 1023
SWIDTH 541 0
DWIDTH 13 0
BBX 10 15 2 0
BITMAP
7E00
FF00
8380
0180
01C0
30C0
78C0
78C0
30C0
00C0
01C0
0180
8380
FF00
7C00
ENDCHAR
STARTCHAR 0400
ENCODING 1024
SWIDTH 541 0
DWIDTH 13 0
BBX 9 19 2 0
BITMAP
7000
3800
0000
0000
FF80
FF80
C000
C000
C000
C000
FF80
FF80
C000
C000
C000
C000
C000
FF80
FF80
ENDCHAR
STARTCHAR 0401
ENCODING 1025
SWIDTH 541 0
DWIDTH 13 0
BBX 9 20 2 0
BITMAP
6300
6300
6300
0000
0000
FF80
FF80
C000
C000
C000
C000
FF80
FF80
C000
C000
C000
C000
C000
FF80
FF80
ENDCHAR
STARTCHAR 0402
ENCODING 1026
SWIDTH 541 0
DWIDTH 13 0
BBX 12 15 0 -1
BITMAP
FF00
FF00
1800
1800
1800
1F80
1FE0
1870
1830
1830
1830
1830
1860
19E0
1980
ENDCHAR
STARTCHAR 0403
ENCODING 1027
SWIDTH 541 0
DWIDTH 13 0
BBX 9 19 3 0
BITMAP
1C00
3800
0000
0000
FF80
FF80
C000
C000
C000
C000
C000
C000
C000
C000
C000
C000
C000
C000
C000
ENDCHAR
STARTCHAR 0404
ENCODING 1028
SWIDTH 541 0
DWIDTH 13 0
BBX 11 15 1 0
BITMAP
0FC0
3FE0
7020
6000
C000
C000
FFC0
FFC0
C000
C000
E000
6000
7820
3FE0
0FC0
ENDCHAR
STARTCHAR 0405
ENCODING 1029
SWIDTH 541 0
DWIDTH 13 0
BBX 10 15 1 0
BITMAP
1F00
7F80
E080
C000
C000
E000
7800
1F00
0780
01C0
00C0
00C0
81C0
FF80
7E00
ENDCHAR
STARTCHAR 0406
ENCODING 1030
SWIDTH 541 0
DWIDTH 13 0
BBX 10 15 2 0
BITMAP
FFC0
FFC0
0C00
0C00
0C00
0C00
0C00
0C00
0C00
0C00
0C00
0C00
0C00
FFC0
FFC0
ENDCHAR
STARTCHAR 0407
ENCODING 1031
SWIDTH 541 0
DWIDTH 13 0
BBX 10 20 2 0
BITMAP
6300
6300
6300
0000
0000
FFC0
FFC0
0C00
0C00
0C00
0C00
0C00
0C00
0C00
0C00
0C00
0C00
0C00
FFC0
FFC0
ENDCHAR
STARTCHAR 0408
ENCODING 1032
SWIDTH 541 0
DWIDTH 13 0
BBX 8 15 2 0
BITMAP
FF
FF
03
03
03
03
03
03
03
03
03
03
87
FE
7C
ENDCHAR
STARTCHAR 0409
ENCODING 1033
SWIDTH 541 0
DWIDTH 13 0
BBX 13 15 0 -1
BITMAP
1F00
1F00
1B00
1B00
1B00
1B00
1BE0
3BF0
3338
3318
3318
3318
7338
E3F0
C3E0
ENDCHAR
STARTCHAR 040A
ENCODING 1034
SWIDTH 541 0
DWIDTH 13 0
BBX 12 15 1 0
BITMAP
C600
C600
C600
C600
C600
C600
FFC0
FFE0
C670
C630
C630
C630
C670
C7E0
C7C0
ENDCHAR
STARTCHAR 040B
ENCODING 1035
SWIDTH 541 0
DWIDTH 13 0
BBX 13 15 0 0
BITMAP
FF80
FF80
1800
1800
1800
1FC0
1FF0
1838
1818
1818
1818
1818
1818
1818
1818
ENDCHAR
STARTCHAR 040C
ENCODING 1036
SWIDTH 541 0
DWIDTH 13 0
BBX 10 19 2 0
BITMAP
0E00
1C00
0000
0000
C0C0
C180
C300
C600
CE00
CC00
D800
F000
D800
CC00
CE00
C700
C300
C180
C0C0
ENDCHAR
STARTCHAR 040D
ENCODING 1037
SWIDTH 541 0
DWIDTH 13 0
BBX 10 19 1 0
BITMAP
3800
1C00
0000
0000
C0C0
C1C0
C1C0
C3C0
C3C0
C6C0
C6C0
CCC0
C8C0
D8C0
F0C0
F0C0
E0C0
E0C0
C0C0
ENDCHAR
STARTCHAR 040E
ENCODING 1038
SWIDTH 541 0
DWIDTH 13 0
BBX 11 19 1 0
BITMAP
30C0
39C0
1F00
0000
C060
E060
60E0
30C0
38C0
1980
1D80
0D80
0F00
0700
0700
0600
0E00
7C00
7800
ENDCHAR
STARTCHAR 040F
ENCODING 1039
SWIDTH 541 0
DWIDTH 13 0
BBX 10 18 2 -3
BITMAP
C0C0
C0C0
C0C0
C0C0
C0C0
C0C0
C0C0
C0C0
C0C0
C0C0
C0C0
C0C0
C0C0
FFC0
FFC0
0C00
0C00
0C00
ENDCHAR
STARTCHAR 0410
ENCODING 1040
SWIDTH 541 0
DWIDTH 13 0
BBX 12 15 1 0
BITMAP
0E00
0B00
1B00
1B00
1980
3180
3180
30C0
30C0
60C0
7FE0
7FE0
C070
C030
C030
ENDCHAR
STARTCHAR 0411
ENCODING 1041
SWIDTH 541 0
DWIDTH 13 0
BBX 10 15 2 0
BITMAP
FF80
FF80
C000
C000
C000
C000
FE00
FF80
C1C0
C0C0
C0C0
C0C0
C180
FF80
FE00
ENDCHAR
STARTCHAR 0412
ENCODING 1042
SWIDTH 541 0
DWIDTH 13 0
BBX 10 15 2 0
BITMAP
FE00
FF00
C380
C180
C180
C300
FE00
FF80
C180
C0C0
C0C0
C0C0
C180
FF80
FE00
ENDCHAR
STARTCHAR 0413
ENCODING 1043
SWIDTH 541 0
DWIDTH 13 0
BBX 9 15 3 0
BITMAP
FF80
FF80
C000
C000
C000
C000
C000
C000
C000
C000
C000
C000
C000
C000
C000
ENDCHAR
STARTCHAR 0414
ENCODING 1044
SWIDTH 541 0
DWIDTH 13 0
BBX 13 18 0 -3
BITMAP
0FE0
0FE0
0C60
0C60
0C60
1C60
1C60
1860
1860
1860
3860
3060
7060
FFF8
FFF8
C018
C018
C018
ENDCHAR
STARTCHAR 0415
ENCODING 1045
SWIDTH 541 0
DWIDTH 13 0
BBX 9 15 2 0
BITMAP
FF80
FF80
C000
C000
C000
C000
FF80
FF80
C000
C000
C000
C000
C000
FF80
FF80
ENDCHAR
STARTCHAR 0416
ENCODING 1046
SWIDTH 541 0
DWIDTH 13 0
BBX 14 15 0 0
BITMAP
C30C
6318
6318
3330
3330
1B60
0FC0
0FC0
1B60
1B60
3330
3330
6318
6318
C30C
ENDCHAR
STARTCHAR 0417
ENCODING 1047
SWIDTH 541 0
DWIDTH 13 0
BBX 10 15 1 0
BITMAP
7E00
FF00
8380
0180
0180
0300
7E00
7F80
0180
00C0
00C0
00C0
8180
FF80
7E00
ENDCHAR
STARTCHAR 0418
ENCODING 1048
SWIDTH 541 0
DWIDTH 13 0
BBX 10 15 1 0
BITMAP
C0C0
C1C0
C1C0
C3C0
C3C0
C6C0
C6C0
CCC0
C8C0
D8C0
F0C0
F0C0
E0C0
E0C0
C0C0
ENDCHAR
STARTCHAR 0419
ENCODING 1049
SWIDTH 541 0
DWIDTH 13 0
BBX 10 19 1 0
BITMAP
30C0
39C0
1F00
0000
C0C0
C1C0
C1C0
C3C0
C3C0
C6C0
C6C0
CCC0
C8C0
D8C0
F0C0
F0C0
E0C0
E0C0
C0C0
ENDCHAR
STARTCHAR 041A
ENCODING 1050
SWIDTH 541 0
DWIDTH 13 0
BBX 10 15 2 0
BITMAP
C0C0
C180
C300
C600
CE00
CC00
D800
F000
D800
CC00
CE00
C700
C300
C180
C0C0
ENDCHAR
STARTCHAR 041B
ENCODING 1051
SWIDTH 541 0
DWIDTH 13 0
BBX 11 15 0 0
BITMAP
0FE0
0FE0
0C60
0C60
0C60
0C60
1C60
1C60
1860
1860
1860
3860
7060
F060
E060
ENDCHAR
STARTCHAR 041C
ENCODING 1052
SWIDTH 541 0
DWIDTH 13 0
BBX 12 15 1 0
BITMAP
E0E0
E0E0
E0E0
F1E0
D160
DB60
DB60
CA60
CE60
C460
C060
C060
C070
C070
C070
ENDCHAR
STARTCHAR 041D
ENCODING 1053
SWIDTH 541 0
DWIDTH 13 0
BBX 11 15 1 0
BITMAP
C060
C060
C060
C060
C060
C060
FFE0
FFE0
C060
C060
C060
C060
C060
C060
C060
ENDCHAR
STARTCHAR 041E
ENCODING 1054
SWIDTH 541 0
DWIDTH 13 0
BBX 12 15 1 0
BITMAP
0F80
3FC0
70E0
6060
E030
C030
C030
C030
C030
C030
C070
6060
70E0
3FC0
1F00
ENDCHAR
STARTCHAR 041F
ENCODING 1055
SWIDTH 541 0
DWIDTH 13 0
BBX 10 15 1 0
BITMAP
FFC0
FFC0
C0C0
C0C0
C0C0
C0C0
C0C0
C0C0
C0C0
C0C0
C0C0
C0C0
C0C0
C0C0
C0C0
ENDCHAR
STARTCHAR 0420
ENCODING 1056
SWIDTH 541 0
DWIDTH 13 0
BBX 10 15 2 0
BITMAP
FE00
FF80
C180
C0C0
C0C0
C0C0
C0C0
C180
FF00
FE00
C000
C000
C000
C000
C000
ENDCHAR
STARTCHAR 0421
ENCODING 1057
SWIDTH 541 0
DWIDTH 13 0
BBX 10 15 1 0
BITMAP
0F80
3FC0
7040
6000
E000
C000
C000
C000
C000
C000
C000
6000
7040
3FC0
0F80
ENDCHAR
STARTCHAR 0422
ENCODING 1058
SWIDTH 541 0
DWIDTH 13 0
BBX 12 15 1 0
BITMAP
FFF0
FFF0
0600
0600
0600
0600
0600
0600
0600
0600
0600
0600
0600
0600
0600
ENDCHAR
STARTCHAR 0423
ENCODING 1059
SWIDTH 541 0
DWIDTH 13 0
BBX 11 15 1 0
BITMAP
C060
E060
60E0
30C0
38C0
1980
1D80
0D80
0F00
0700
0700
0600
0E00
7C00
7800
ENDCHAR
STARTCHAR 0424
ENCODING 1060
SWIDTH 541 0
DWIDTH 13 0
BBX 12 15 1 0
BITMAP
0600
1F80
3FC0
76E0
E670
C630
C630
C630
C630
C630
E670
76E0
7FC0
1F80
0600
ENDCHAR
STARTCHAR 0425
ENCODING 1061
SWIDTH 541 0
DWIDTH 13 0
BBX 13 15 0 0
BITMAP
7038
3030
1860
1CE0
0DC0
0F80
0780
0700
0780
0DC0
1CC0
38E0
3060
7070
E038
ENDCHAR
STARTCHAR 0426
ENCODING 1062
SWIDTH 541 0
DWIDTH 13 0
BBX 11 18 1 -3
BITMAP
C0C0
C0C0
C0C0
C0C0
C0C0
C0C0
C0C0
C0C0
C0C0
C0C0
C0C0
C0C0
C0C0
FFE0
FFE0
0060
0060
0060
ENDCHAR
STARTCHAR 0427
ENCODING 1063
SWIDTH 541 0
DWIDTH 13 0
BBX 11 15 1 0
BITMAP
C060
C060
C060
C060
C060
C060
6060
7FE0
1FE0
0060
0060
0060
0060
0060
0060
ENDCHAR
STARTCHAR 0428
ENCODING 1064
SWIDTH 541 0
DWIDTH 13 0
BBX 12 15 1 0
BITMAP
C630
C630
C630
C630
C630
C630
C630
C630
C630
C630
C630
C630
C630
FFF0
FFF0
ENDCHAR
STARTCHAR 0429
ENCODING 1065
SWIDTH 541 0
DWIDTH 13 0
BBX 13 18 0 -3
BITMAP
C630
C630
C630
C630
C630
C630
C630
C630
C630
C630
C630
C630
C630
FFF8
FFF8
0018
0018
0018
ENDCHAR
STARTCHAR 042A
ENCODING 1066
SWIDTH 541 0
DWIDTH 13 0
BBX 12 15 0 0
BITMAP
F800
F800
1800
1800
1800
1800
1F80
1FE0
1870
1830
1830
1830
1870
1FE0
1F80
ENDCHAR
STARTCHAR 042B
ENCODING 1067
SWIDTH 541 0
DWIDTH 13 0
BBX 11 15 1 0
BITMAP
C060
C060
C060
C060
C060
C060
FC60
FE60
C760
C360
C360
C360
C760
FE60
FC60
ENDCHAR
STARTCHAR 042C
ENCODING 1068
SWIDTH 541 0
DWIDTH 13 0
BBX 10 15 2 0
BITMAP
C000
C000
C000
C000
C000
C000
FE00
FF80
C1C0
C0C0
C0C0
C0C0
C180
FF80
FE00
ENDCHAR
STARTCHAR 042D
ENCODING 1069
SWIDTH 541 0
DWIDTH 13 0
BBX 10 15 2 0
BITMAP
7C00
FF00
8380
0180
00C0
00C0
7FC0
7FC0
00C0
00C0
00C0
0180
8380
FF00
7C00
ENDCHAR
STARTCHAR 042E
ENCODING 1070
SWIDTH 541 0
DWIDTH 13 0
BBX 12 15 1 0
BITMAP
C3C0
C7E0
C660
CC30
CC30
CC30
FC30
FC30
CC30
CC30
CC30
CC30
C660
C7E0
C3C0
ENDCHAR
STARTCHAR 042F
ENCODING 1071
SWIDTH 541 0
DWIDTH 13 0
BBX 10 15 1 0
BITMAP
1FC0
3FC0
70C0
60C0
60C0
60C0
70C0
3FC0
1FC0
38C0
30C0
70C0
60C0
60C0
E0C0
ENDCHAR
STARTCHAR 0430
ENCODING 1072
SWIDTH 541 0
DWIDTH 13 0
BBX 10 12 2 0
BITMAP
3F00
7F80
41C0
00C0
00C0
3FC0
7FC0
E0C0
C0C0
C3C0
FFC0
3CC0
ENDCHAR
STARTCHAR 0431
ENCODING 1073
SWIDTH 541 0
DWIDTH 13 0
BBX 11 17 1 1
BITMAP
07C0
1FC0
3800
6000
6000
CF00
DFC0
F0C0
E0E0
C060
C060
C060
C060
60E0
71C0
3F80
1F00
ENDCHAR
STARTCHAR 0432
ENCODING 1074
SWIDTH 541 0
DWIDTH 13 0
BBX 10 12 2 0
BITMAP
FE00
FF80
C380
C180
C380
FE00
FF80
C1C0
C0C0
C1C0
FF80
FF00
ENDCHAR
STARTCHAR 0433
ENCODING 1075
SWIDTH 541 0
DWIDTH 13 0
BBX 8 12 3 0
BITMAP
FF
FF
C0
C0
C0
C0
C0
C0
C0
C0
C0
C0
ENDCHAR
STARTCHAR 0434
ENCODING 1076
SWIDTH 541 0
DWIDTH 13 0
BBX 12 15 0 -3
BITMAP
1FC0
1FC0
18C0
18C0
18C0
18C0
38C0
30C0
30C0
60C0
FFF0
FFF0
C030
C030
C030
ENDCHAR
STARTCHAR 0435
ENCODING 1077
SWIDTH 541 0
DWIDTH 13 0
BBX 10 12 1 0
BITMAP
1E00
3F80
6180
C0C0
C0C0
FFC0
FFC0
C000
C000
6080
7F80
1F00
ENDCHAR
STARTCHAR 0436
ENCODING 1078
SWIDTH 541 0
DWIDTH 13 0
BBX 14 12 0 0
BITMAP
C30C
6318
3330
3330
1B60
0FC0
0FC0
1B60
3330
3330
6318
E31C
ENDCHAR
STARTCHAR 0437
ENCODING 1079
SWIDTH 541 0
DWIDTH 13 0
BBX 10 12 2 0
BITMAP
7E00
FF80
8380
0180
0180
3F00
3F80
01C0
00C0
81C0
FF80
7F00
ENDCHAR
STARTCHAR 0438
ENCODING 1080
SWIDTH 541 0
DWIDTH 13 0
BBX 9 12 2 0
BITMAP
C180
C380
C380
C780
CD80
CD80
D980
D980
F180
E180
E180
C180
ENDCHAR
STARTCHAR 0439
ENCODING 1081
SWIDTH 541 0
DWIDTH 13 0
BBX 9 17 2 0
BITMAP
6300
6300
3E00
0000
0000
C180
C380
C380
C780
CD80
CD80
D980
D980
F180
E180
E180
C180
ENDCHAR
STARTCHAR 043A
ENCODING 1082
SWIDTH 541 0
DWIDTH 13 0
BBX 10 12 2 0
BITMAP
C180
C300
C600
CC00
D800
F000
D800
CC00
C600
C300
C180
C0C0
ENDCHAR
STARTCHAR 043B
ENCODING 1083
SWIDTH 541 0
DWIDTH 13 0
BBX 11 12 0 -1
BITMAP
0FE0
0FE0
0C60
0C60
0C60
1C60
1860
1860
1860
3860
F060
E060
ENDCHAR
STARTCHAR 043C
ENCODING 1084
SWIDTH 541 0
DWIDTH 13 0
BBX 11 12 1 0
BITMAP
E0E0
E0E0
F1E0
F1E0
DB60
9B60
8A60
8E60
8C60
8060
8060
8060
ENDCHAR
STARTCHAR 043D
ENCODING 1085
SWIDTH 541 0
DWIDTH 13 0
BBX 9 12 2 0
BITMAP
C180
C180
C180
C180
C180
FF80
FF80
C180
C180
C180
C180
C180
ENDCHAR
STARTCHAR 043E
ENCODING 1086
SWIDTH 541 0
DWIDTH 13 0
BBX 11 12 1 0
BITMAP
1F00
3FC0
71C0
E0E0
C060
C060
C060
C060
E0E0
71C0
7F80
1F00
ENDCHAR
STARTCHAR 043F
ENCODING 1087
SWIDTH 541 0
DWIDTH 13 0
BBX 9 12 2 0
BITMAP
FF80
FF80
C180
C180
C180
C180
C180
C180
C180
C180
C180
C180
ENDCHAR
STARTCHAR 0440
ENCODING 1088
SWIDTH 541 0
DWIDTH 13 0
BBX 10 17 2 -5
BITMAP
CF00
FF80
F180
E0C0
C0C0
C0C0
C0C0
C0C0
C1C0
C380
FF00
FE00
C000
C000
C000
C000
C000
ENDCHAR
STARTCHAR 0441
ENCODING 1089
SWIDTH 541 0
DWIDTH 13 0
BBX 9 12 2 0
BITMAP
1F00
3F80
7080
E000
C000
C000
C000
C000
E000
7080
7F80
1F00
ENDCHAR
STARTCHAR 0442
ENCODING 1090
SWIDTH 541 0
DWIDTH 13 0
BBX 10 12 1 0
BITMAP
FFC0
FFC0
0C00
0C00
0C00
0C00
0C00
0C00
0C00
0C00
0C00
0C00
ENDCHAR
STARTCHAR 0443
ENCODING 1091
SWIDTH 541 0
DWIDTH 13 0
BBX 12 17 0 -5
BITMAP
6030
6030
3060
3060
3060
18C0
18C0
0D80
0D80
0D00
0700
0700
0600
0E00
1C00
F800
F000
ENDCHAR
STARTCHAR 0444
ENCODING 1092
SWIDTH 541 0
DWIDTH 13 0
BBX 12 22 1 -5
BITMAP
0600
0600
0600
0600
0600
1F80
3FE0
7660
E670
C630
C630
C630
C630
C670
66E0
7FC0
1F80
0600
0600
0600
0600
0600
ENDCHAR
STARTCHAR 0445
ENCODING 1093
SWIDTH 541 0
DWIDTH 13 0
BBX 11 12 1 0
BITMAP
E0E0
71C0
3180
3B80
1F00
0E00
0E00
1B00
3B80
3180
71C0
E0E0
ENDCHAR
STARTCHAR 0446
ENCODING 1094
SWIDTH 541 0
DWIDTH 13 0
BBX 11 15 2 -3
BITMAP
C0C0
C0C0
C0C0
C0C0
C0C0
C0C0
C0C0
C0C0
C0C0
C0C0
FFE0
FFE0
0060
0060
0060
ENDCHAR
STARTCHAR 0447
ENCODING 1095
SWIDTH 541 0
DWIDTH 13 0
BBX 10 12 2 0
BITMAP
C0C0
C0C0
C0C0
C0C0
E0C0
7FC0
3FC0
00C0
00C0
00C0
00C0
00C0
ENDCHAR
STARTCHAR 0448
ENCODING 1096
SWIDTH 541 0
DWIDTH 13 0
BBX 12 12 1 0
BITMAP
C630
C630
C630
C630
C630
C630
C630
C630
C630
C630
FFF0
FFF0
ENDCHAR
STARTCHAR 0449
ENCODING 1097
SWIDTH 541 0
DWIDTH 13 0
BBX 13 15 0 -3
BITMAP
C630
C630
C630
C630
C630
C630
C630
C630
C630
C630
FFF8
FFF8
0018
0018
0018
ENDCHAR
STARTCHAR 044A
ENCODING 1098
SWIDTH 541 0
DWIDTH 13 0
BBX 12 12 0 0
BITMAP
F800
F800
1800
1800
1FC0
1FE0
1870
1830
1830
1870
1FE0
1FC0
ENDCHAR
STARTCHAR 044B
ENCODING 1099
SWIDTH 541 0
DWIDTH 13 0
BBX 11 12 1 0
BITMAP
C060
C060
C060
C060
FC60
FE60
C760
C360
C360
C760
FE60
FC60
ENDCHAR
STARTCHAR 044C
ENCODING 1100
SWIDTH 541 0
DWIDTH 13 0
BBX 10 12 2 0
BITMAP
C000
C000
C000
C000
FF00
FF80
C1C0
C0C0
C0C0
C1C0
FF80
FF00
ENDCHAR
STARTCHAR 044D
ENCODING 1101
SWIDTH 541 0
DWIDTH 13 0
BBX 10 12 2 0
BITMAP
7E00
FF00
8380
01C0
00C0
7FC0
7FC0
00C0
00C0
8380
FF00
7E00
ENDCHAR
STARTCHAR 044E
ENCODING 1102
SWIDTH 541 0
DWIDTH 13 0
BBX 12 12 1 0
BITMAP
C3C0
C7E0
CE70
CC30
CC30
FC30
FC30
CC30
CC30
CE70
C7E0
C3C0
ENDCHAR
STARTCHAR 044F
ENCODING 1103
SWIDTH 541 0
DWIDTH 13 0
BBX 10 12 1 0
BITMAP
1FC0
3FC0
70C0
60C0
60C0
70C0
3FC0
1FC0
30C0
60C0
60C0
E0C0
ENDCHAR
STARTCHAR 0450
ENCODING 1104
SWIDTH 541 0
DWIDTH 13 0
BBX 10 17 1 0
BITMAP
3800
1C00
0E00
0000
0000
1E00
3F80
6180
C0C0
C0C0
FFC0
FFC0
C000
C000
6080
7F80
1F00
ENDCHAR
STARTCHAR 0451
ENCODING 1105
SWIDTH 541 0
DWIDTH 13 0
BBX 10 17 1 0
BITMAP
39C0
39C0
39C0
0000
0000
1E00
3F80
6180
C0C0
C0C0
FFC0
FFC0
C000
C000
6080
7F80
1F00
ENDCHAR
STARTCHAR 0452
ENCODING 1106
SWIDTH 541 0
DWIDTH 13 0
BBX 12 22 0 -5
BITMAP
3000
3000
FF00
FF00
3000
33C0
3FE0
3C60
3830
3030
3030
3030
3030
3030
3030
3030
3030
0030
0060
0060
01E0
01C0
ENDCHAR
STARTCHAR 0453
ENCODING 1107
SWIDTH 541 0
DWIDTH 13 0
BBX 8 17 3 0
BITMAP
0E
1C
38
00
00
FF
FF
C0
C0
C0
C0
C0
C0
C0
C0
C0
C0
ENDCHAR
STARTCHAR 0454
ENCODING 1108
SWIDTH 541 0
DWIDTH 13 0
BBX 10 12 2 0
BITMAP
1F80
3FC0
7040
E000
C000
FF80
FF80
C000
C000
7040
3FC0
1F80
ENDCHAR
STARTCHAR 0455
ENCODING 1109
SWIDTH 541 0
DWIDTH 13 0
BBX 9 12 2 0
BITMAP
3E00
7F00
C100
C000
E000
7C00
1F00
0380
0180
8180
FF00
7E00
ENDCHAR
STARTCHAR 0456
ENCODING 1110
SWIDTH 541 0
DWIDTH 13 0
BBX 9 17 2 0
BITMAP
1C00
1C00
1C00
0000
0000
FC00
FC00
0C00
0C00
0C00
0C00
0C00
0C00
0C00
0C00
FF80
FF80
ENDCHAR
STARTCHAR 0457
ENCODING 1111
SWIDTH 541 0
DWIDTH 13 0
BBX 9 17 2 0
BITMAP
7380
7380
7380
0000
0000
FC00
FC00
0C00
0C00
0C00
0C00
0C00
0C00
0C00
0C00
FF80
FF80
ENDCHAR
STARTCHAR 0458
ENCODING 1112
SWIDTH 541 0
DWIDTH 13 0
BBX 8 22 2 -5
BITMAP
07
07
07
00
00
FF
FF
03
03
03
03
03
03
03
03
03
03
03
03
86
FE
78
ENDCHAR
STARTCHAR 0459
ENCODING 1113
SWIDTH 541 0
DWIDTH 13 0
BBX 13 12 0 -1
BITMAP
3F00
3F00
3300
3300
33E0
33F0
3338
7318
6318
6338
E3F0
C3E0
ENDCHAR
STARTCHAR 045A
ENCODING 1114
SWIDTH 541 0
DWIDTH 13 0
BBX 12 12 1 0
BITMAP
C600
C600
C600
C600
FFC0
FFE0
C630
C630
C630
C670
C7E0
C7C0
ENDCHAR
STARTCHAR 045B
ENCODING 1115
SWIDTH 541 0
DWIDTH 13 0
BBX 11 17 0 0
BITMAP
3000
3000
FE00
FE00
3000
3380
37C0
3CE0
3860
3060
3060
3060
3060
3060
3060
3060
3060
ENDCHAR
STARTCHAR 045C
ENCODING 1116
SWIDTH 541 0
DWIDTH 13 0
BBX 10 17 2 0
BITMAP
0700
0E00
1C00
0000
0000
C1C0
C300
C600
CC00
D800
F000
D800
CC00
C600
C300
C180
C0C0
ENDCHAR
STARTCHAR 045D
ENCODING 1117
SWIDTH 541 0
DWIDTH 13 0
BBX 9 17 2 0
BITMAP
7000
3800
1C00
0000
0000
C180
C380
C380
C780
CD80
CD80
D980
D980
F180
E180
E180
C180
ENDCHAR
STARTCHAR 045E
ENCODING 1118
SWIDTH 541 0
DWIDTH 13 0
BBX 12 22 0 -5
BITMAP
18C0
18C0
0F80
0000
0000
6030
6030
3060
3060
3060
18C0
18C0
0D80
0D80
0D00
0700
0700
0600
0E00
1C00
F800
F000
ENDCHAR
STARTCHAR 045F
ENCODING 1119
SWIDTH 541 0
DWIDTH 13 0
BBX 10 15 2 -3
BITMAP
C0C0
C0C0
C0C0
C0C0
C0C0
C0C0
C0C0
C0C0
C0C0
C0C0
FFC0
FFC0
0C00
0C00
0C00
ENDCHAR
STARTCHAR 0460
ENCODING 1120
SWIDTH 541 0
DWIDTH 13 0
BBX 12 15 1 0
BITMAP
39C0
79E0
6060
C030
C030
C030
C030
C030
C630
C630
C630
C630
6660
7FE0
39C0
ENDCHAR
STARTCHAR 0461
ENCODING 1121
SWIDTH 541 0
DWIDTH 13 0
BBX 12 12 1 0
BITMAP
CC60
CC70
CC60
CE60
CE60
4E60
6A60
6A60
6B40
7BC0
7BC0
3B80
ENDCHAR
STARTCHAR 0462
ENCODING 1122
SWIDTH 541 0
DWIDTH 13 0
BBX 13 15 0 0
BITMAP
FF80
FF80
1800
1800
1800
1800
1FC0
1FF0
1838
1818
1818
1818
1830
1FF0
1FC0
ENDCHAR
STARTCHAR 0463
ENCODING 1123
SWIDTH 541 0
DWIDTH 13 0
BBX 12 16 0 0
BITMAP
3000
3000
3000
3000
FFC0
FFC0
3000
3000
3F80
3FE0
3070
3030
3030
3070
3FE0
3F80
ENDCHAR
STARTCHAR 0464
ENCODING 1124
SWIDTH 541 0
DWIDTH 13 0
BBX 11 15 1 0
BITMAP
C1E0
C7E0
C600
CC00
CC00
CC00
FFC0
FFC0
CC00
CC00
CC00
CE00
C600
C7E0
C1E0
ENDCHAR
STARTCHAR 0465
ENCODING 1125
SWIDTH 541 0
DWIDTH 13 0
BBX 11 12 1 0
BITMAP
C3C0
C7E0
C620
CC00
CC00
FFC0
FFC0
CC00
CC00
CE20
C7E0
C3C0
ENDCHAR
STARTCHAR 0466
ENCODING 1126
SWIDTH 541 0
DWIDTH 13 0
BBX 12 15 1 0
BITMAP
0F00
0F00
0F00
0980
1980
1980
1F80
3FC0
36C0
36C0
6660
6660
6660
C630
C630
ENDCHAR
STARTCHAR 0467
ENCODING 1127
SWIDTH 541 0
DWIDTH 13 0
BBX 12 12 1 0
BITMAP
0600
0F00
0F00
1980
1980
1F80
3FC0
36C0
76E0
6660
6660
C630
ENDCHAR
STARTCHAR 0468
ENCODING 1128
SWIDTH 541 0
DWIDTH 13 0
BBX 12 15 1 0
BITMAP
C380
C780
C780
C780
C4C0
C4C0
FFC0
FFC0
CF40
CF60
CF60
CB60
DB60
DB30
DB30
ENDCHAR
STARTCHAR 0469
ENCODING 1129
SWIDTH 541 0
DWIDTH 13 0
BBX 12 12 1 0
BITMAP
C380
C380
C2C0
C6C0
C6C0
FFC0
FFE0
CDE0
CDE0
D9B0
D9B0
D9B0
ENDCHAR
STARTCHAR 046A
ENCODING 1130
SWIDTH 541 0
DWIDTH 13 0
BBX 13 15 0 0
BITMAP
7FF0
3FE0
3020
1860
0CC0
0CC0
0780
0FC0
0FC0
1B60
1B60
3360
3330
6330
C318
ENDCHAR
STARTCHAR 046B
ENCODING 1131
SWIDTH 541 0
DWIDTH 13 0
BBX 14 12 0 0
BITMAP
7FF8
3030
1860
0CC0
0CC0
0FC0
0FC0
1B60
3370
3330
6338
C31C
ENDCHAR
STARTCHAR 046C
ENCODING 1132
SWIDTH 541 0
DWIDTH 13 0
BBX 12 15 1 0
BITMAP
DFE0
CFC0
C840
CCC0
C480
C780
FF80
FF80
CF80
CFC0
CB40
DB40
DB60
D320
F330
ENDCHAR
STARTCHAR 046D
ENCODING 1133
SWIDTH 541 0
DWIDTH 13 0
BBX 12 12 1 0
BITMAP
CFF0
C430
C660
C660
C240
FFC0
FFC0
C7E0
C7E0
C5A0
CDB0
CDB0
ENDCHAR
STARTCHAR 046E
ENCODING 1134
SWIDTH 541 0
DWIDTH 13 0
BBX 11 22 1 -5
BITMAP
3180
1B00
0E00
7F00
7F80
41C0
00C0
00C0
00C0
0180
3F80
3FC0
00E0
0060
0060
01E0
7FC0
FE00
C000
C000
FFE0
7FE0
ENDCHAR
STARTCHAR 046F
ENCODING 1135
SWIDTH 541 0
DWIDTH 13 0
BBX 10 18 1 -5
BITMAP
3300
1E00
FF00
FF80
0380
0180
0180
3F00
3F80
01C0
00C0
01C0
7F80
FE00
C000
C000
FFC0
7FC0
ENDCHAR
STARTCHAR 0470
ENCODING 1136
SWIDTH 541 0
DWIDTH 13 0
BBX 12 15 1 0
BITMAP
C630
C630
C630
C630
C630
C630
C630
C630
66E0
7FC0
1F80
0600
0600
0600
0600
ENDCHAR
STARTCHAR 0471
ENCODING 1137
SWIDTH 541 0
DWIDTH 13 0
BBX 12 22 1 -5
BITMAP
0600
0600
0600
0600
0600
C630
C630
C630
C630
C630
C630
C630
C630
C660
E6E0
7FC0
1F80
0600
0600
0600
0600
0600
ENDCHAR
STARTCHAR 0472
ENCODING 1138
SWIDTH 541 0
DWIDTH 13 0
BBX 12 15 1 0
BITMAP
0F80
3FC0
70E0
6060
C030
C030
FFF0
FFF0
C030
C030
C070
6060
70E0
3FC0
1F00
ENDCHAR
STARTCHAR 0473
ENCODING 1139
SWIDTH 541 0
DWIDTH 13 0
BBX 11 12 1 0
BITMAP
1F00
3FC0
71C0
E0E0
C060
FFE0
FFE0
C060
C060
60C0
7F80
1F00
ENDCHAR
STARTCHAR 0474
ENCODING 1140
SWIDTH 541 0
DWIDTH 13 0
BBX 13 15 1 0
BITMAP
C038
C078
E0E0
60C0
60C0
60C0
71C0
3180
3180
3B80
1B00
1B00
1B00
0E00
0E00
ENDCHAR
STARTCHAR 0475
ENCODING 1141
SWIDTH 541 0
DWIDTH 13 0
BBX 12 12 1 1
BITMAP
C070
C0F0
E0C0
61C0
7180
3180
3380
3B00
1B00
1B00
0E00
0E00
ENDCHAR
STARTCHAR 0476
ENCODING 1142
SWIDTH 541 0
DWIDTH 13 0
BBX 13 19 1 0
BITMAP
C300
6180
0000
0000
C038
C078
E0E0
60C0
60C0
60C0
71C0
3180
3180
3B80
1B00
1B00
1B00
0E00
0E00
ENDCHAR
STARTCHAR 0477
ENCODING 1143
SWIDTH 541 0
DWIDTH 13 0
BBX 13 17 0 0
BITMAP
E380
31C0
18E0
0000
0000
6038
6078
7060
30E0
38C0
18C0
19C0
1D80
0D80
0D80
0700
0700
ENDCHAR
STARTCHAR 0478
ENCODING 1144
SWIDTH 541 0
DWIDTH 13 0
BBX 12 20 1 -5
BITMAP
7800
FC00
CC00
CF30
CF30
CF30
CD20
CD60
CD60
CDE0
CDE0
CDC0
CCC0
FCC0
78C0
00C0
00C0
0180
0380
0300
ENDCHAR
STARTCHAR 0479
ENCODING 1145
SWIDTH 541 0
DWIDTH 13 0
BBX 12 17 1 -5
BITMAP
7B30
7B30
CF30
CD20
CD60
CDE0
CDE0
CDE0
CDE0
CCC0
78C0
78C0
00C0
00C0
0180
0780
0700
ENDCHAR
STARTCHAR 047A
ENCODING 1146
SWIDTH 541 0
DWIDTH 13 0
BBX 12 17 1 -1
BITMAP
0F00
1F80
3FC0
76E0
6060
C030
C030
C030
C030
C030
C030
C030
6060
76E0
3FC0
1F80
0F00
ENDCHAR
STARTCHAR 047B
ENCODING 1147
SWIDTH 541 0
DWIDTH 13 0
BBX 11 14 1 -1
BITMAP
0E00
1F00
7FC0
6EC0
E060
C060
C060
C060
C060
C0E0
6EC0
7FC0
3F00
0E00
ENDCHAR
STARTCHAR 047C
ENCODING 1148
SWIDTH 541 0
DWIDTH 13 0
BBX 12 23 1 0
BITMAP
1C00
3200
31C0
0E00
0E00
0200
0C00
0000
39C0
79E0
6060
C030
C030
C030
C030
C030
C030
C030
C030
C630
6660
7FE0
39C0
ENDCHAR
STARTCHAR 047D
ENCODING 1149
SWIDTH 541 0
DWIDTH 13 0
BBX 12 20 1 0
BITMAP
1C00
3300
30C0
0700
0700
0100
0600
0000
39C0
79E0
E070
C030
C030
C030
C030
C030
C630
C670
7FE0
39C0
ENDCHAR
STARTCHAR 047E
ENCODING 1150
SWIDTH 541 0
DWIDTH 13 0
BBX 12 18 1 0
BITMAP
FFE0
4440
0000
39C0
79E0
6060
C030
C030
C030
C030
C030
C630
C630
C630
C630
E660
7FE0
39C0
ENDCHAR
STARTCHAR 047F
ENCODING 1151
SWIDTH 541 0
DWIDTH 13 0
BBX 12 15 1 0
BITMAP
FFE0
4440
0000
CC60
CC70
CC60
CE60
CE60
4E60
6A60
6A60
6B40
7BC0
7BC0
3B80
ENDCHAR
STARTCHAR 0480
ENCODING 1152
SWIDTH 541 0
DWIDTH 13 0
BBX 10 20 1 -5
BITMAP
0F80
3FC0
7040
6000
E000
C000
C000
C000
C000
C000
C000
6000
7000
3F00
1F00
0300
0300
0300
0300
0300
ENDCHAR
STARTCHAR 0481
ENCODING 1153
SWIDTH 541 0
DWIDTH 13 0
BBX 9 17 2 -5
BITMAP
1F00
3F80
7080
E000
C000
C000
C000
C000
E000
7000
3F00
1F00
0300
0300
0300
0300
0300
ENDCHAR
STARTCHAR 0482
ENCODING 1154
SWIDTH 541 0
DWIDTH 13 0
BBX 12 17 1 0
BITMAP
0040
00E0
08C0
1FC0
0780
03C0
03F0
0730
0600
CE00
FC00
3C00
1F00
3B80
3000
7000
2000
ENDCHAR
STARTCHAR 0483
ENCODING 1155
SWIDTH 541 0
DWIDTH 13 0
BBX 9 3 2 12
BITMAP
0180
FF80
C000
ENDCHAR
STARTCHAR 0484
ENCODING 1156
SWIDTH 541 0
DWIDTH 13 0
BBX 9 2 2 12
BITMAP
0F00
F180
ENDCHAR
STARTCHAR 0485
ENCODING 1157
SWIDTH 541 0
DWIDTH 13 0
BBX 3 4 5 12
BITMAP
E0
C0
80
60
ENDCHAR
STARTCHAR 0486
ENCODING 1158
SWIDTH 541 0
DWIDTH 13 0
BBX 3 4 5 12
BITMAP
E0
60
20
C0
ENDCHAR
STARTCHAR 0488
ENCODING 1160
SWIDTH 541 0
DWIDTH 13 0
BBX 14 14 0 -1
BITMAP
0700
0480
0000
3070
4848
0000
F038
9024
0000
3030
4848
0000
0700
0480
ENDCHAR
STARTCHAR 0489
ENCODING 1161
SWIDTH 541 0
DWIDTH 13 0
BBX 13 14 0 0
BITMAP
0100
2200
2200
1030
10C0
0080
8030
6008
0800
1840
6040
0160
0120
0200
ENDCHAR
STARTCHAR 048A
ENCODING 1162
SWIDTH 541 0
DWIDTH 13 0
BBX 12 23 2 -4
BITMAP
6300
6300
3E00
0000
C0C0
C1C0
C1C0
C3C0
C3C0
C6C0
C6C0
CCC0
D8C0
D8C0
F0C0
F0C0
E0C0
E0F0
C0F0
0060
0060
0060
00C0
ENDCHAR
STARTCHAR 048B
ENCODING 1163
SWIDTH 541 0
DWIDTH 13 0
BBX 11 20 2 -3
BITMAP
6300
6300
3E00
0000
0000
C180
C380
C380
C780
CD80
CD80
D980
D980
F180
E180
E1E0
C1C0
00C0
00C0
0180
ENDCHAR
STARTCHAR 048C
ENCODING 1164
SWIDTH 541 0
DWIDTH 13 0
BBX 12 15 0 0
BITMAP
3000
3000
FF00
FF00
3000
3000
3F80
3FE0
3070
3030
3030
3030
3060
3FE0
3F80
ENDCHAR
STARTCHAR 048D
ENCODING 1165
SWIDTH 541 0
DWIDTH 13 0
BBX 11 17 1 0
BITMAP
3000
3000
FE00
FE00
3000
3000
3000
3000
3000
3000
3F80
3FC0
30E0
3060
30E0
3FC0
3F80
ENDCHAR
STARTCHAR 048E
ENCODING 1166
SWIDTH 541 0
DWIDTH 13 0
BBX 10 15 2 0
BITMAP
FE00
FF80
C180
C0C0
C0C0
C0C0
CCC0
C780
FF00
FF00
C000
C000
C000
C000
C000
ENDCHAR
STARTCHAR 048F
ENCODING 1167
SWIDTH 541 0
DWIDTH 13 0
BBX 10 17 2 -5
BITMAP
CF00
FF80
F180
E0C0
C0C0
C0C0
C0C0
C0C0
C1C0
C780
FF00
FF00
C180
C000
C000
C000
C000
ENDCHAR
STARTCHAR 0490
ENCODING 1168
SWIDTH 541 0
DWIDTH 13 0
BBX 9 18 3 0
BITMAP
0180
0180
0180
FF80
FF80
C000
C000
C000
C000
C000
C000
C000
C000
C000
C000
C000
C000
C000
ENDCHAR
STARTCHAR 0491
ENCODING 1169
SWIDTH 541 0
DWIDTH 13 0
BBX 9 15 3 0
BITMAP
0180
0180
0180
FF80
FF80
C000
C000
C000
C000
C000
C000
C000
C000
C000
C000
ENDCHAR
STARTCHAR 0492
ENCODING 1170
SWIDTH 541 0
DWIDTH 13 0
BBX 12 15 0 0
BITMAP
1FF0
1FF0
1800
1800
1800
1800
FF80
FF80
1800
1800
1800
1800
1800
1800
1800
ENDCHAR
STARTCHAR 0493
ENCODING 1171
SWIDTH 541 0
DWIDTH 13 0
BBX 10 12 1 0
BITMAP
3FC0
3FC0
3000
3000
3000
FF00
FF00
3000
3000
3000
3000
3000
ENDCHAR
STARTCHAR 0494
ENCODING 1172
SWIDTH 541 0
DWIDTH 13 0
BBX 10 20 2 -5
BITMAP
FF00
FF00
C000
C000
C000
C000
FE00
FF00
C380
C1C0
C0C0
C0C0
C0C0
C0C0
C0C0
00C0
0180
0380
1F00
1E00
ENDCHAR
STARTCHAR 0495
ENCODING 1173
SWIDTH 541 0
DWIDTH 13 0
BBX 10 17 2 -5
BITMAP
FF00
FF00
C000
C000
C000
FE00
FF00
C380
C1C0
C0C0
C0C0
C0C0
00C0
01C0
0380
1F00
1E00
ENDCHAR
STARTCHAR 0496
ENCODING 1174
SWIDTH 541 0
DWIDTH 13 0
BBX 12 18 0 -3
BITMAP
C630
6660
6660
6640
36C0
3680
1F80
1F80
1E80
36C0
36C0
6640
6660
6670
C630
0030
0030
0030
ENDCHAR
STARTCHAR 0497
ENCODING 1175
SWIDTH 541 0
DWIDTH 13 0
BBX 13 15 0 -3
BITMAP
C630
6660
2660
36C0
16C0
1F80
1F80
36C0
36C0
6660
6678
C638
0018
0018
0018
ENDCHAR
STARTCHAR 0498
ENCODING 1176
SWIDTH 541 0
DWIDTH 13 0
BBX 10 20 1 -5
BITMAP
7E00
FF00
8380
0180
0180
0300
7E00
7F80
0180
00C0
00C0
00C0
8180
FF80
7E00
0C00
0600
0600
0600
1C00
ENDCHAR
STARTCHAR 0499
ENCODING 1177
SWIDTH 541 0
DWIDTH 13 0
BBX 10 17 2 -5
BITMAP
7E00
FF80
8380
0180
0180
3F00
3F80
01C0
00C0
81C0
FF80
7F00
1800
0C00
0C00
0C00
3800
ENDCHAR
STARTCHAR 049A
ENCODING 1178
SWIDTH 541 0
DWIDTH 13 0
BBX 11 18 2 -3
BITMAP
C0C0
C180
C300
C600
CE00
CC00
D800
F000
D800
CC00
CE00
C700
C380
C1E0
C0E0
0060
0060
0060
ENDCHAR
STARTCHAR 049B
ENCODING 1179
SWIDTH 541 0
DWIDTH 13 0
BBX 10 15 2 -3
BITMAP
C180
C300
C600
CC00
D800
F000
D800
DC00
CE00
C700
C3C0
C1C0
00C0
00C0
00C0
ENDCHAR
STARTCHAR 049C
ENCODING 1180
SWIDTH 541 0
DWIDTH 13 0
BBX 10 15 2 0
BITMAP
C0C0
C180
C180
D300
D700
D600
FE00
FE00
D600
D700
D300
C380
C180
C1C0
C0C0
ENDCHAR
STARTCHAR 049D
ENCODING 1181
SWIDTH 541 0
DWIDTH 13 0
BBX 10 12 2 0
BITMAP
C1C0
C180
C300
D600
D600
FC00
FC00
D600
D700
C300
C380
C1C0
ENDCHAR
STARTCHAR 049E
ENCODING 1182
SWIDTH 541 0
DWIDTH 13 0
BBX 11 15 1 0
BITMAP
6060
60C0
F980
FB00
6700
6600
6C00
7800
6C00
6600
6700
6380
6180
60C0
6060
ENDCHAR
STARTCHAR 049F
ENCODING 1183
SWIDTH 541 0
DWIDTH 13 0
BBX 12 17 0 0
BITMAP
3000
3000
FE00
FE00
3000
3070
30E0
31C0
3380
3600
3C00
3600
3300
3180
30C0
3060
3030
ENDCHAR
STARTCHAR 04A0
ENCODING 1184
SWIDTH 541 0
DWIDTH 13 0
BBX 12 15 0 0
BITMAP
F830
F860
18E0
18C0
1980
1B80
1B00
1E00
1B00
1B80
1980
18C0
18E0
1870
1830
ENDCHAR
STARTCHAR 04A1
ENCODING 1185
SWIDTH 541 0
DWIDTH 13 0
BBX 12 12 1 0
BITMAP
F060
F0C0
3180
3300
3600
3C00
3600
3300
3380
31C0
30E0
3070
ENDCHAR
STARTCHAR 04A2
ENCODING 1186
SWIDTH 541 0
DWIDTH 13 0
BBX 12 18 1 -3
BITMAP
C060
C060
C060
C060
C060
C060
FFE0
FFE0
C060
C060
C060
C060
C060
C070
C070
0030
0030
0030
ENDCHAR
STARTCHAR 04A3
ENCODING 1187
SWIDTH 541 0
DWIDTH 13 0
BBX 10 15 2 -3
BITMAP
C180
C180
C180
C180
C180
FF80
FF80
C180
C180
C180
C1C0
C1C0
00C0
00C0
00C0
ENDCHAR
STARTCHAR 04A4
ENCODING 1188
SWIDTH 541 0
DWIDTH 13 0
BBX 13 15 1 0
BITMAP
C0F8
C0F8
C0C0
C0C0
C0C0
C0C0
FFC0
FFC0
C0C0
C0C0
C0C0
C0C0
C0C0
C0C0
C0C0
ENDCHAR
STARTCHAR 04A5
ENCODING 1189
SWIDTH 541 0
DWIDTH 13 0
BBX 11 12 2 0
BITMAP
C1E0
C1E0
C180
C180
C180
FF80
FF80
C180
C180
C180
C180
C180
ENDCHAR
STARTCHAR 04A6
ENCODING 1190
SWIDTH 541 0
DWIDTH 13 0
BBX 11 20 1 -5
BITMAP
FE00
FE00
C600
C600
C600
C600
C780
C7C0
C6E0
C660
C660
C660
C660
C660
C660
0060
0060
00E0
01C0
01C0
ENDCHAR
STARTCHAR 04A7
ENCODING 1191
SWIDTH 541 0
DWIDTH 13 0
BBX 11 17 1 -5
BITMAP
FE00
FE00
C600
C600
C600
C780
C7C0
C6E0
C660
C660
C660
C660
0060
0060
0060
01C0
01C0
ENDCHAR
STARTCHAR 04A8
ENCODING 1192
SWIDTH 541 0
DWIDTH 13 0
BBX 12 16 1 -1
BITMAP
0F00
3F00
7000
61C0
E3E0
C770
C630
C630
C630
C630
C630
6360
73E0
3FC0
1FF0
0070
ENDCHAR
STARTCHAR 04A9
ENCODING 1193
SWIDTH 541 0
DWIDTH 13 0
BBX 11 13 1 -1
BITMAP
1E00
3E00
7000
E3C0
C7E0
C660
C660
C660
E6E0
73C0
3F80
1FE0
00E0
ENDCHAR
STARTCHAR 04AA
ENCODING 1194
SWIDTH 541 0
DWIDTH 13 0
BBX 10 20 1 -5
BITMAP
0F80
3FC0
7040
6000
E000
C000
C000
C000
C000
C000
C000
6000
7040
3FC0
0F80
0600
0300
0300
0300
0E00
ENDCHAR
STARTCHAR 04AB
ENCODING 1195
SWIDTH 541 0
DWIDTH 13 0
BBX 9 17 2 -5
BITMAP
1F00
3F80
7080
E000
C000
C000
C000
C000
E000
7080
7F80
1F00
0C00
0600
0600
0600
1C00
ENDCHAR
STARTCHAR 04AC
ENCODING 1196
SWIDTH 541 0
DWIDTH 13 0
BBX 12 18 1 -3
BITMAP
FFF0
FFF0
0600
0600
0600
0600
0600
0600
0600
0600
0600
0600
0600
0700
0700
0300
0300
0300
ENDCHAR
STARTCHAR 04AD
ENCODING 1197
SWIDTH 541 0
DWIDTH 13 0
BBX 10 15 2 -3
BITMAP
FFC0
FFC0
0C00
0C00
0C00
0C00
0C00
0C00
0C00
0C00
0E00
0E00
0600
0600
0600
ENDCHAR
STARTCHAR 04AE
ENCODING 1198
SWIDTH 541 0
DWIDTH 13 0
BBX 14 15 -1 0
BITMAP
C00C
6018
3038
3030
1860
1C60
0CC0
07C0
0780
0300
0300
0300
0300
0300
0300
ENDCHAR
STARTCHAR 04AF
ENCODING 1199
SWIDTH 541 0
DWIDTH 13 0
BBX 12 17 1 -5
BITMAP
E030
6060
6060
70E0
30C0
30C0
1980
1980
0F00
0F00
0F00
0600
0600
0600
0600
0600
0600
ENDCHAR
STARTCHAR 04B0
ENCODING 1200
SWIDTH 541 0
DWIDTH 13 0
BBX 14 15 0 0
BITMAP
C00C
6018
3030
3030
1860
1CE0
0CC0
0780
0780
0300
3FF0
3FF0
0300
0300
0300
ENDCHAR
STARTCHAR 04B1
ENCODING 1201
SWIDTH 541 0
DWIDTH 13 0
BBX 12 17 1 -5
BITMAP
E030
6060
6060
70E0
30C0
30C0
1980
1980
0F00
0F00
0F00
0600
3FC0
3FC0
0600
0600
0600
ENDCHAR
STARTCHAR 04B2
ENCODING 1202
SWIDTH 541 0
DWIDTH 13 0
BBX 13 18 0 -3
BITMAP
7038
3030
1860
1CE0
0CC0
0780
0780
0300
0780
0FC0
1CC0
18E0
3070
7038
E038
0018
0018
0018
ENDCHAR
STARTCHAR 04B3
ENCODING 1203
SWIDTH 541 0
DWIDTH 13 0
BBX 12 15 1 -3
BITMAP
E0E0
70C0
3180
3B80
1F00
0E00
0E00
1F00
3B80
31C0
70F0
E0F0
0030
0030
0030
ENDCHAR
STARTCHAR 04B4
ENCODING 1204
SWIDTH 541 0
DWIDTH 13 0
BBX 12 18 0 -3
BITMAP
FC60
FC60
3060
3060
3060
3060
3060
3060
3060
3060
3060
3060
3060
3FF0
3FF0
0030
0030
0030
ENDCHAR
STARTCHAR 04B5
ENCODING 1205
SWIDTH 541 0
DWIDTH 13 0
BBX 12 15 0 -3
BITMAP
FC60
FC60
3060
3060
3060
3060
3060
3060
3060
3060
3FF0
3FF0
0030
0030
0030
ENDCHAR
STARTCHAR 04B6
ENCODING 1206
SWIDTH 541 0
DWIDTH 13 0
BBX 12 18 1 -3
BITMAP
C060
C060
C060
C060
C060
C060
6060
7FE0
1FE0
0060
0060
0060
0060
0070
0070
0030
0030
0030
ENDCHAR
STARTCHAR 04B7
ENCODING 1207
SWIDTH 541 0
DWIDTH 13 0
BBX 10 15 2 -3
BITMAP
C180
C180
C180
C180
C180
E180
7F80
3F80
0180
0180
01C0
01C0
00C0
00C0
00C0
ENDCHAR
STARTCHAR 04B8
ENCODING 1208
SWIDTH 541 0
DWIDTH 13 0
BBX 11 15 1 0
BITMAP
C060
C060
C060
C060
C660
C660
6660
7FE0
1FE0
0660
0660
0060
0060
0060
0060
ENDCHAR
STARTCHAR 04B9
ENCODING 1209
SWIDTH 541 0
DWIDTH 13 0
BBX 9 12 2 0
BITMAP
C180
C180
C180
C180
CD80
ED80
7F80
3F80
0D80
0D80
0180
0180
ENDCHAR
STARTCHAR 04BA
ENCODING 1210
SWIDTH 541 0
DWIDTH 13 0
BBX 11 15 1 0
BITMAP
C000
C000
C000
C000
C000
C000
FF00
FFC0
C0C0
C060
C060
C060
C060
C060
C060
ENDCHAR
STARTCHAR 04BB
ENCODING 1211
SWIDTH 541 0
DWIDTH 13 0
BBX 10 12 2 0
BITMAP
C000
C000
C000
C000
C000
FF00
FF80
C1C0
C0C0
C0C0
C0C0
C0C0
ENDCHAR
STARTCHAR 04BC
ENCODING 1212
SWIDTH 541 0
DWIDTH 13 0
BBX 12 15 0 0
BITMAP
03C0
0FE0
0C60
1830
1830
D830
D830
FFF0
7FF0
1800
1800
1800
0C10
0FF0
03E0
ENDCHAR
STARTCHAR 04BD
ENCODING 1213
SWIDTH 541 0
DWIDTH 13 0
BBX 12 12 0 0
BITMAP
07C0
0FE0
0C60
D830
D830
FFF0
7FF0
1800
1800
1C20
0FE0
07C0
ENDCHAR
STARTCHAR 04BE
ENCODING 1214
SWIDTH 541 0
DWIDTH 13 0
BBX 12 18 0 -3
BITMAP
03C0
0FE0
0C60
1830
1830
D830
D830
FFF0
7FF0
1800
1800
1800
0C10
0FF0
03E0
0180
0180
0180
ENDCHAR
STARTCHAR 04BF
ENCODING 1215
SWIDTH 541 0
DWIDTH 13 0
BBX 12 15 0 -3
BITMAP
07C0
0FE0
0C60
D830
D830
FFF0
7FF0
1800
1800
1C20
0FE0
03C0
0180
0180
0180
ENDCHAR
STARTCHAR 04C0
ENCODING 1216
SWIDTH 541 0
DWIDTH 13 0
BBX 10 15 2 0
BITMAP
FFC0
FFC0
0C00
0C00
0C00
0C00
0C00
0C00
0C00
0C00
0C00
0C00
0C00
FFC0
FFC0
ENDCHAR
STARTCHAR 04C1
ENCODING 1217
SWIDTH 541 0
DWIDTH 13 0
BBX 14 19 0 0
BITMAP
1860
1CE0
0F80
0000
C30C
6318
6318
3330
3330
1B60
0FC0
0FC0
1B60
1B60
3330
3330
6318
6318
C30C
ENDCHAR
STARTCHAR 04C2
ENCODING 1218
SWIDTH 541 0
DWIDTH 13 0
BBX 14 17 0 0
BITMAP
18C0
18C0
0F80
0000
0000
C30C
6318
3330
3330
1B60
0FC0
0FC0
1B60
3330
3330
6318
E31C
ENDCHAR
STARTCHAR 04C3
ENCODING 1219
SWIDTH 541 0
DWIDTH 13 0
BBX 10 20 2 -5
BITMAP
C1C0
C380
C300
C600
CC00
D800
F800
FE00
FF00
C380
C1C0
C0C0
C0C0
C0C0
C0C0
00C0
01C0
0380
1F00
1E00
ENDCHAR
STARTCHAR 04C4
ENCODING 1220
SWIDTH 541 0
DWIDTH 13 0
BBX 10 17 2 -5
BITMAP
C180
C300
C600
CC00
D800
FE00
C300
C180
C0C0
C0C0
C0C0
C0C0
00C0
01C0
0180
0F80
0E00
ENDCHAR
STARTCHAR 04C5
ENCODING 1221
SWIDTH 541 0
DWIDTH 13 0
BBX 12 19 1 -4
BITMAP
1FC0
1FC0
18C0
18C0
18C0
18C0
18C0
38C0
38C0
30C0
30C0
30C0
70C0
E0F0
C0F0
0060
0060
0060
00C0
ENDCHAR
STARTCHAR 04C6
ENCODING 1222
SWIDTH 541 0
DWIDTH 13 0
BBX 10 15 3 -3
BITMAP
1F00
1F00
1F00
1F00
1F00
1F00
1F00
3B00
3B00
3B00
F3C0
E380
0180
0180
0300
ENDCHAR
STARTCHAR 04C7
ENCODING 1223
SWIDTH 541 0
DWIDTH 13 0
BBX 11 20 1 -5
BITMAP
C060
C060
C060
C060
C060
C060
FFE0
FFE0
C060
C060
C060
C060
C060
C060
C060
0060
00E0
01C0
1FC0
1F00
ENDCHAR
STARTCHAR 04C8
ENCODING 1224
SWIDTH 541 0
DWIDTH 13 0
BBX 9 17 2 -5
BITMAP
C180
C180
C180
C180
C180
FF80
FF80
C180
C180
C180
C180
C180
0180
0180
0300
1F00
1C00
ENDCHAR
STARTCHAR 04C9
ENCODING 1225
SWIDTH 541 0
DWIDTH 13 0
BBX 13 19 1 -4
BITMAP
C060
C060
C060
C060
C060
C060
FFE0
FFE0
C060
C060
C060
C060
C060
C078
C078
0030
0030
0030
0060
ENDCHAR
STARTCHAR 04CA
ENCODING 1226
SWIDTH 541 0
DWIDTH 13 0
BBX 11 15 2 -3
BITMAP
C180
C180
C180
C180
C180
FF80
FF80
C180
C180
C180
C1E0
C1C0
00C0
00C0
0180
ENDCHAR
STARTCHAR 04CB
ENCODING 1227
SWIDTH 541 0
DWIDTH 13 0
BBX 11 18 1 -3
BITMAP
C060
C060
C060
C060
C060
C060
6060
7FE0
1FE0
0060
0060
0060
0060
01E0
01E0
0180
0180
0180
ENDCHAR
STARTCHAR 04CC
ENCODING 1228
SWIDTH 541 0
DWIDTH 13 0
BBX 9 15 2 -3
BITMAP
C180
C180
C180
C180
E180
7F80
3F80
0180
0180
0180
0780
0780
0600
0600
0600
ENDCHAR
STARTCHAR 04CD
ENCODING 1229
SWIDTH 541 0
DWIDTH 13 0
BBX 13 19 1 -4
BITMAP
E0E0
E0E0
E0E0
F1E0
D160
D160
DB60
CA60
CE60
C460
C060
C060
C060
C078
C078
0030
0030
0030
0060
ENDCHAR
STARTCHAR 04CE
ENCODING 1230
SWIDTH 541 0
DWIDTH 13 0
BBX 13 15 1 -3
BITMAP
E0E0
E0E0
F1E0
F1E0
DB60
DB60
CA60
CE60
CC60
C060
C078
C078
0018
0010
0030
ENDCHAR
STARTCHAR 04CF
ENCODING 1231
SWIDTH 541 0
DWIDTH 13 0
BBX 10 15 2 0
BITMAP
FFC0
FFC0
0C00
0C00
0C00
0C00
0C00
0C00
0C00
0C00
0C00
0C00
0C00
FFC0
FFC0
ENDCHAR
STARTCHAR 04D0
ENCODING 1232
SWIDTH 541 0
DWIDTH 13 0
BBX 12 20 1 0
BITMAP
3180
3F80
1F00
0000
0000
0E00
0B00
1B00
1B00
1980
3180
3180
30C0
30C0
60C0
7FE0
7FE0
C070
C030
C030
ENDCHAR
STARTCHAR 04D1
ENCODING 1233
SWIDTH 541 0
DWIDTH 13 0
BBX 10 17 2 0
BITMAP
6300
7F00
3E00
0000
0000
3F00
7F80
41C0
00C0
00C0
3FC0
7FC0
E0C0
C0C0
C3C0
FFC0
3CC0
ENDCHAR
STARTCHAR 04D2
ENCODING 1234
SWIDTH 541 0
DWIDTH 13 0
BBX 12 20 1 0
BITMAP
3180
3180
3180
0000
0000
0E00
0B00
1B00
1B00
1980
3180
3180
30C0
30C0
60C0
7FE0
7FE0
C070
C030
C030
ENDCHAR
STARTCHAR 04D3
ENCODING 1235
SWIDTH 541 0
DWIDTH 13 0
BBX 10 17 2 0
BITMAP
39C0
39C0
39C0
0000
0000
3F00
7F80
41C0
00C0
00C0
3FC0
7FC0
E0C0
C0C0
C3C0
FFC0
3CC0
ENDCHAR
STARTCHAR 04D4
ENCODING 1236
SWIDTH 541 0
DWIDTH 13 0
BBX 13 15 0 0
BITMAP
03F8
07F8
0780
0580
0D80
0D80
19F8
19F8
1180
3180
3F80
7F80
6180
61F8
C1F8
ENDCHAR
STARTCHAR 04D5
ENCODING 1237
SWIDTH 541 0
DWIDTH 13 0
BBX 12 12 0 0
BITMAP
39C0
7FE0
4730
0630
0630
3FF0
FFF0
C600
C600
CF00
FBF0
71F0
ENDCHAR
STARTCHAR 04D6
ENCODING 1238
SWIDTH 541 0
DWIDTH 13 0
BBX 9 20 2 0
BITMAP
6300
7F00
3E00
0000
0000
FF80
FF80
C000
C000
C000
C000
FF80
FF80
C000
C000
C000
C000
C000
FF80
FF80
ENDCHAR
STARTCHAR 04D7
ENCODING 1239
SWIDTH 541 0
DWIDTH 13 0
BBX 10 17 1 0
BITMAP
3180
3F80
1F00
0000
0000
1E00
3F80
6180
C0C0
C0C0
FFC0
FFC0
C000
C000
6080
7F80
1F00
ENDCHAR
STARTCHAR 04D8
ENCODING 1240
SWIDTH 541 0
DWIDTH 13 0
BBX 11 15 1 0
BITMAP
3F00
7F80
41C0
00C0
0060
0060
FFE0
FFE0
C060
C060
C060
60C0
71C0
3F80
1F00
ENDCHAR
STARTCHAR 04D9
ENCODING 1241
SWIDTH 541 0
DWIDTH 13 0
BBX 11 12 1 0
BITMAP
3F00
7FC0
41C0
0060
0060
FFE0
FFE0
C060
C060
61C0
7F80
1F00
ENDCHAR
STARTCHAR 04DA
ENCODING 1242
SWIDTH 541 0
DWIDTH 13 0
BBX 11 20 1 0
BITMAP
3180
3180
3180
0000
0000
3F00
7F80
41C0
00C0
0060
0060
FFE0
FFE0
C060
C060
C060
60C0
71C0
3F80
1F00
ENDCHAR
STARTCHAR 04DB
ENCODING 1243
SWIDTH 541 0
DWIDTH 13 0
BBX 11 17 1 0
BITMAP
39C0
39C0
39C0
0000
0000
3F00
7FC0
41C0
0060
0060
FFE0
FFE0
C060
C060
61C0
7F80
1F00
ENDCHAR
STARTCHAR 04DC
ENCODING 1244
SWIDTH 541 0
DWIDTH 13 0
BBX 14 20 0 0
BITMAP
18C0
18C0
18C0
0000
0000
C30C
6318
6318
3330
3330
1B60
0FC0
0FC0
1B60
1B60
3330
3330
6318
6318
C30C
ENDCHAR
STARTCHAR 04DD
ENCODING 1245
SWIDTH 541 0
DWIDTH 13 0
BBX 14 17 0 0
BITMAP
1CE0
1CE0
1CE0
0000
0000
C30C
6318
3330
3330
1B60
0FC0
0FC0
1B60
3330
3330
6318
E31C
ENDCHAR
STARTCHAR 04DE
ENCODING 1246
SWIDTH 541 0
DWIDTH 13 0
BBX 10 20 1 0
BITMAP
3180
3180
3180
0000
0000
7E00
FF00
8380
0180
0180
0300
7E00
7F80
0180
00C0
00C0
00C0
8180
FF80
7E00
ENDCHAR
STARTCHAR 04DF
ENCODING 1247
SWIDTH 541 0
DWIDTH 13 0
BBX 10 17 2 0
BITMAP
7380
7380
7380
0000
0000
7E00
FF80
8380
0180
0180
3F00
3F80
01C0
00C0
81C0
FF80
7F00
ENDCHAR
STARTCHAR 04E0
ENCODING 1248
SWIDTH 541 0
DWIDTH 13 0
BBX 9 15 2 0
BITMAP
FF00
FF00
0600
0C00
1800
3C00
3F00
0380
0180
0180
0180
0180
0300
FF00
FC00
ENDCHAR
STARTCHAR 04E1
ENCODING 1249
SWIDTH 541 0
DWIDTH 13 0
BBX 9 16 2 -4
BITMAP
FF00
FF00
0700
0600
0C00
1800
3C00
3F00
0700
0180
0180
0180
0180
0300
FF00
FC00
ENDCHAR
STARTCHAR 04E2
ENCODING 1250
SWIDTH 541 0
DWIDTH 13 0
BBX 10 19 1 0
BITMAP
3F80
3F80
0000
0000
C0C0
C1C0
C1C0
C3C0
C3C0
C6C0
C6C0
CCC0
C8C0
D8C0
F0C0
F0C0
E0C0
E0C0
C0C0
ENDCHAR
STARTCHAR 04E3
ENCODING 1251
SWIDTH 541 0
DWIDTH 13 0
BBX 9 17 2 0
BITMAP
3F00
3F00
0000
0000
0000
C180
C380
C380
C780
CD80
CD80
D980
D980
F180
E180
E180
C180
ENDCHAR
STARTCHAR 04E4
ENCODING 1252
SWIDTH 541 0
DWIDTH 13 0
BBX 10 20 1 0
BITMAP
3180
3180
3180
0000
0000
C0C0
C1C0
C1C0
C3C0
C3C0
C6C0
C6C0
CCC0
C8C0
D8C0
F0C0
F0C0
E0C0
E0C0
C0C0
ENDCHAR
STARTCHAR 04E5
ENCODING 1253
SWIDTH 541 0
DWIDTH 13 0
BBX 9 17 2 0
BITMAP
7380
7380
7380
0000
0000
C180
C380
C380
C780
CD80
CD80
D980
D980
F180
E180
E180
C180
ENDCHAR
STARTCHAR 04E6
ENCODING 1254
SWIDTH 541 0
DWIDTH 13 0
BBX 12 20 1 0
BITMAP
3180
3180
3180
0000
0000
0F80
3FC0
70E0
6060
E030
C030
C030
C030
C030
C030
C070
6060
70E0
3FC0
1F00
ENDCHAR
STARTCHAR 04E7
ENCODING 1255
SWIDTH 541 0
DWIDTH 13 0
BBX 11 17 1 0
BITMAP
39C0
39C0
39C0
0000
0000
1F00
3FC0
71C0
E0E0
C060
C060
C060
C060
E0E0
71C0
7F80
1F00
ENDCHAR
STARTCHAR 04E8
ENCODING 1256
SWIDTH 541 0
DWIDTH 13 0
BBX 12 15 1 0
BITMAP
0F80
3FC0
70E0
6060
C030
C030
FFF0
FFF0
C030
C030
C070
6060
70E0
3FC0
1F00
ENDCHAR
STARTCHAR 04E9
ENCODING 1257
SWIDTH 541 0
DWIDTH 13 0
BBX 11 12 1 0
BITMAP
1F00
3FC0
71C0
E0E0
C060
FFE0
FFE0
C060
C060
60C0
7F80
1F00
ENDCHAR
STARTCHAR 04EA
ENCODING 1258
SWIDTH 541 0
DWIDTH 13 0
BBX 12 20 1 0
BITMAP
3180
3180
3180
0000
0000
0F80
3FC0
70E0
6060
C030
C030
FFF0
FFF0
C030
C030
C070
6060
70E0
3FC0
1F00
ENDCHAR
STARTCHAR 04EB
ENCODING 1259
SWIDTH 541 0
DWIDTH 13 0
BBX 11 17 1 0
BITMAP
39C0
39C0
39C0
0000
0000
1F00
3FC0
71C0
E0E0
C060
FFE0
FFE0
C060
C060
60C0
7F80
1F00
ENDCHAR
STARTCHAR 04EC
ENCODING 1260
SWIDTH 541 0
DWIDTH 13 0
BBX 10 20 2 0
BITMAP
6300
6300
6300
0000
0000
7C00
FF00
8380
0180
00C0
00C0
7FC0
7FC0
00C0
00C0
00C0
0180
8380
FF00
7C00
ENDCHAR
STARTCHAR 04ED
ENCODING 1261
SWIDTH 541 0
DWIDTH 13 0
BBX 10 17 2 0
BITMAP
7380
7380
7380
0000
0000
7E00
FF00
8380
01C0
00C0
7FC0
7FC0
00C0
00C0
8380
FF00
7E00
ENDCHAR
STARTCHAR 04EE
ENCODING 1262
SWIDTH 541 0
DWIDTH 13 0
BBX 11 19 1 0
BITMAP
3F80
3F80
0000
0000
C060
E060
60E0
30C0
38C0
1980
1D80
0D80
0F00
0700
0700
0600
0E00
7C00
7800
ENDCHAR
STARTCHAR 04EF
ENCODING 1263
SWIDTH 541 0
DWIDTH 13 0
BBX 12 22 0 -5
BITMAP
0FC0
0FC0
0000
0000
0000
6030
6030
3060
3060
3060
18C0
18C0
0D80
0D80
0D00
0700
0700
0600
0E00
1C00
F800
F000
ENDCHAR
STARTCHAR 04F0
ENCODING 1264
SWIDTH 541 0
DWIDTH 13 0
BBX 11 20 1 0
BITMAP
3180
3180
3180
0000
0000
C060
E060
60E0
30C0
38C0
1980
1D80
0D80
0F00
0700
0700
0600
0E00
7C00
7800
ENDCHAR
STARTCHAR 04F1
ENCODING 1265
SWIDTH 541 0
DWIDTH 13 0
BBX 12 22 0 -5
BITMAP
1CE0
1CE0
1CE0
0000
0000
6030
6030
3060
3060
3060
18C0
18C0
0D80
0D80
0D00
0700
0700
0600
0E00
1C00
F800
F000
ENDCHAR
STARTCHAR 04F2
ENCODING 1266
SWIDTH 541 0
DWIDTH 13 0
BBX 11 19 1 0
BITMAP
0CE0
19C0
0000
0000
C060
E060
60E0
30C0
38C0
1980
1D80
0D80
0F00
0700
0700
0600
0E00
7C00
7800
ENDCHAR
STARTCHAR 04F3
ENCODING 1267
SWIDTH 541 0
DWIDTH 13 0
BBX 14 22 0 -5
BITMAP
039C
0738
0E70
0000
0000
6030
6030
3060
3060
3060
18C0
18C0
0D80
0D80
0D00
0700
0700
0600
0E00
1C00
F800
F000
ENDCHAR
STARTCHAR 04F4
ENCODING 1268
SWIDTH 541 0
DWIDTH 13 0
BBX 11 20 1 0
BITMAP
3180
3180
3180
0000
0000
C060
C060
C060
C060
C060
C060
6060
7FE0
1FE0
0060
0060
0060
0060
0060
0060
ENDCHAR
STARTCHAR 04F5
ENCODING 1269
SWIDTH 541 0
DWIDTH 13 0
BBX 10 17 2 0
BITMAP
7380
7380
7380
0000
0000
C0C0
C0C0
C0C0
C0C0
E0C0
7FC0
3FC0
00C0
00C0
00C0
00C0
00C0
ENDCHAR
STARTCHAR 04F6
ENCODING 1270
SWIDTH 541 0
DWIDTH 13 0
BBX 8 18 3 -3
BITMAP
FF
FF
C0
C0
C0
C0
C0
C0
C0
C0
C0
C0
C0
F0
F0
30
30
30
ENDCHAR
STARTCHAR 04F7
ENCODING 1271
SWIDTH 541 0
DWIDTH 13 0
BBX 8 15 3 -3
BITMAP
FF
FF
C0
C0
C0
C0
C0
C0
C0
C0
F0
F0
30
30
30
ENDCHAR
STARTCHAR 04F8
ENCODING 1272
SWIDTH 541 0
DWIDTH 13 0
BBX 11 20 1 0
BITMAP
3180
3180
3180
0000
0000
C060
C060
C060
C060
C060
C060
FC60
FE60
C760
C360
C360
C360
C760
FE60
FC60
ENDCHAR
STARTCHAR 04F9
ENCODING 1273
SWIDTH 541 0
DWIDTH 13 0
BBX 11 17 1 0
BITMAP
39C0
39C0
39C0
0000
0000
C060
C060
C060
C060
FC60
FE60
C760
C360
C360
C760
FE60
FC60
ENDCHAR
STARTCHAR 04FA
ENCODING 1274
SWIDTH 541 0
DWIDTH 13 0
BBX 12 20 0 -5
BITMAP
1FF0
1FF0
1800
1800
1800
1800
FF80
FF80
1800
1800
1800
1800
1800
1E00
1E00
0600
0600
0600
1E00
1C00
ENDCHAR
STARTCHAR 04FB
ENCODING 1275
SWIDTH 541 0
DWIDTH 13 0
BBX 10 17 1 -5
BITMAP
3FC0
3FC0
3000
3000
3000
FF00
FF00
3000
3000
3000
3C00
3C00
0C00
0C00
0C00
3C00
3800
ENDCHAR
STARTCHAR 04FC
ENCODING 1276
SWIDTH 541 0
DWIDTH 13 0
BBX 13 20 1 -5
BITMAP
E070
6060
30C0
39C0
1980
0F00
0F00
0600
0F00
1F80
1980
38C0
30E0
6078
E078
0018
0018
0018
00F8
00F0
ENDCHAR
STARTCHAR 04FD
ENCODING 1277
SWIDTH 541 0
DWIDTH 13 0
BBX 12 17 1 -5
BITMAP
E0E0
70C0
3180
3B80
1F00
0E00
0E00
1F00
3B80
31C0
70F0
E0F0
0030
0030
0030
01F0
01E0
ENDCHAR
STARTCHAR 04FE
ENCODING 1278
SWIDTH 541 0
DWIDTH 13 0
BBX 12 15 1 0
BITMAP
E070
6060
30C0
39C0
1F80
0F00
FFF0
FFE0
0F00
1F80
1980
31C0
70E0
60E0
E070
ENDCHAR
STARTCHAR 04FF
ENCODING 1279
SWIDTH 541 0
DWIDTH 13 0
BBX 11 12 1 0
BITMAP
E0E0
71C0
3180
1B00
1F00
FFE0
FFE0
1F00
1B00
3180
71C0
E0E0
ENDCHAR
STARTCHAR 0500
ENCODING 1280
SWIDTH 541 0
DWIDTH 13 0
BBX 10 15 1 0
BITMAP
00C0
00C0
00C0
00C0
00C0
00C0
1FC0
7FC0
E0C0
C0C0
C0C0
C0C0
60C0
7FC0
1FC0
ENDCHAR
STARTCHAR 0501
ENCODING 1281
SWIDTH 541 0
DWIDTH 13 0
BBX 10 17 1 0
BITMAP
00C0
00C0
00C0
00C0
00C0
1FC0
3FC0
70C0
E0C0
C0C0
C0C0
C0C0
C0C0
C1C0
63C0
7EC0
3CC0
ENDCHAR
STARTCHAR 0502
ENCODING 1282
SWIDTH 541 0
DWIDTH 13 0
BBX 11 15 1 0
BITMAP
0600
0600
0600
0600
0600
0600
3E60
7E60
E660
C660
C660
C660
C660
7FE0
3BC0
ENDCHAR
STARTCHAR 0503
ENCODING 1283
SWIDTH 541 0
DWIDTH 13 0
BBX 11 17 1 0
BITMAP
0600
0600
0600
0600
0600
3E00
7E00
E600
C600
C660
C660
C660
C660
C660
E660
7FE0
39C0
ENDCHAR
STARTCHAR 0504
ENCODING 1284
SWIDTH 541 0
DWIDTH 13 0
BBX 11 15 1 0
BITMAP
F800
FC00
0C00
0C00
0C00
1860
7060
7860
0C60
0660
0660
0660
0660
07E0
03C0
ENDCHAR
STARTCHAR 0505
ENCODING 1285
SWIDTH 541 0
DWIDTH 13 0
BBX 11 12 1 0
BITMAP
F800
FC00
0C00
0C00
0C60
7860
7C60
0E60
0660
0660
07E0
03C0
ENDCHAR
STARTCHAR 0506
ENCODING 1286
SWIDTH 541 0
DWIDTH 13 0
BBX 11 18 2 -3
BITMAP
FC00
FE00
0700
0300
0300
0300
0600
7C00
7E00
0700
0300
0300
0300
03E0
03E0
0060
0060
0060
ENDCHAR
STARTCHAR 0507
ENCODING 1287
SWIDTH 541 0
DWIDTH 13 0
BBX 10 15 2 -3
BITMAP
FC00
FF00
0300
0300
0700
7E00
7E00
0700
0300
0300
03C0
03C0
00C0
00C0
00C0
ENDCHAR
STARTCHAR 0508
ENCODING 1288
SWIDTH 541 0
DWIDTH 13 0
BBX 13 15 0 0
BITMAP
1F80
1F80
1980
1980
1980
1980
1998
1998
1998
3998
3198
3198
3198
F1F8
E0F0
ENDCHAR
STARTCHAR 0509
ENCODING 1289
SWIDTH 541 0
DWIDTH 13 0
BBX 12 12 0 0
BITMAP
1F00
1F00
1B00
1B00
1B30
1B30
1B30
3330
3330
3330
F3F0
E1E0
ENDCHAR
STARTCHAR 050A
ENCODING 1290
SWIDTH 541 0
DWIDTH 13 0
BBX 11 15 1 0
BITMAP
C600
C600
C600
C600
C600
C600
FE60
FE60
C660
C660
C660
C660
C660
C7E0
C3C0
ENDCHAR
STARTCHAR 050B
ENCODING 1291
SWIDTH 541 0
DWIDTH 13 0
BBX 10 12 2 0
BITMAP
CC00
CC00
CC00
CC00
CCC0
FCC0
FCC0
CCC0
CCC0
CCC0
CFC0
C780
ENDCHAR
STARTCHAR 050C
ENCODING 1292
SWIDTH 541 0
DWIDTH 13 0
BBX 11 15 1 0
BITMAP
0F80
3FC0
7040
6000
E000
C000
C000
C3E0
C3E0
C060
C060
6060
70E0
3FC0
1F80
ENDCHAR
STARTCHAR 050D
ENCODING 1293
SWIDTH 541 0
DWIDTH 13 0
BBX 10 12 2 0
BITMAP
1F80
3F80
7080
E000
C000
C000
C7C0
C7C0
E0C0
71C0
7F80
1F00
ENDCHAR
STARTCHAR 050E
ENCODING 1294
SWIDTH 541 0
DWIDTH 13 0
BBX 11 15 1 0
BITMAP
FFE0
FFE0
0C00
0C00
0C00
0C00
0C60
0C60
0C60
0C60
0C60
0C60
0C60
0FE0
07C0
ENDCHAR
STARTCHAR 050F
ENCODING 1295
SWIDTH 541 0
DWIDTH 13 0
BBX 11 12 1 0
BITMAP
FF80
FF80
1800
1800
1860
1860
1860
1860
1860
1860
1FE0
0780
ENDCHAR
STARTCHAR 0510
ENCODING 1296
SWIDTH 541 0
DWIDTH 13 0
BBX 11 15 1 0
BITMAP
1FC0
3FE0
7020
6000
6000
3000
1FC0
3FC0
6000
C000
C000
C000
E020
7FE0
1FC0
ENDCHAR
STARTCHAR 0511
ENCODING 1297
SWIDTH 541 0
DWIDTH 13 0
BBX 10 12 2 0
BITMAP
1F00
7FC0
70C0
6000
6000
1F80
7F80
E000
C000
E040
7FC0
3F80
ENDCHAR
STARTCHAR 0512
ENCODING 1298
SWIDTH 541 0
DWIDTH 13 0
BBX 12 20 1 -5
BITMAP
1FC0
1FC0
18C0
18C0
18C0
18C0
18C0
38C0
38C0
30C0
30C0
30C0
70C0
E0F0
C0F0
0030
0030
0030
00F0
00E0
ENDCHAR
STARTCHAR 0513
ENCODING 1299
SWIDTH 541 0
DWIDTH 13 0
BBX 13 17 0 -5
BITMAP
0FE0
0FE0
0C60
0C60
0C60
1C60
1860
1860
1860
3860
F078
E078
0018
0018
0018
00F8
00F0
ENDCHAR
STARTCHAR 0E3F
ENCODING 3647
SWIDTH 541 0
DWIDTH 13 0
BBX 10 21 2 -3
BITMAP
0C00
0C00
0C00
FF00
FF80
CD80
CD80
CD80
CD80
FE00
FF80
CD80
CCC0
CCC0
CCC0
CDC0
FF80
FF00
0C00
0C00
0C00
ENDCHAR
STARTCHAR 1D00
ENCODING 7424
SWIDTH 541 0
DWIDTH 13 0
BBX 11 12 1 0
BITMAP
0E00
0E00
1B00
1B00
3180
3180
2080
7FC0
7FC0
C0E0
C060
C060
ENDCHAR
STARTCHAR 1D01
ENCODING 7425
SWIDTH 541 0
DWIDTH 13 0
BBX 12 12 0 0
BITMAP
03F0
07F0
0780
0D80
0980
19F0
11F0
3F80
3F80
6180
61F0
C1F0
ENDCHAR
STARTCHAR 1D02
ENCODING 7426
SWIDTH 541 0
DWIDTH 13 0
BBX 13 12 0 0
BITMAP
FC70
FEF8
0798
0318
0318
FFF8
FFF0
C300
C300
E710
7FF0
3CE0
ENDCHAR
STARTCHAR 1D03
ENCODING 7427
SWIDTH 541 0
DWIDTH 13 0
BBX 11 12 0 0
BITMAP
3FC0
3FE0
3060
3060
30E0
FFC0
FFC0
3060
3060
30E0
3FC0
3F80
ENDCHAR
STARTCHAR 1D04
ENCODING 7428
SWIDTH 541 0
DWIDTH 13 0
BBX 11 12 1 0
BITMAP
0FC0
3FE0
7020
E000
C000
C000
C000
C000
E000
7020
3FE0
1FC0
ENDCHAR
STARTCHAR 1D05
ENCODING 7429
SWIDTH 541 0
DWIDTH 13 0
BBX 10 12 2 0
BITMAP
FE00
FF80
C380
C0C0
C0C0
C0C0
C0C0
C0C0
C1C0
C380
FF80
FE00
ENDCHAR
STARTCHAR 1D06
ENCODING 7430
SWIDTH 541 0
DWIDTH 13 0
BBX 12 12 0 0
BITMAP
3F80
3FE0
30E0
3070
3030
FE30
FE30
3030
3070
30E0
3FC0
3F80
ENDCHAR
STARTCHAR 1D07
ENCODING 7431
SWIDTH 541 0
DWIDTH 13 0
BBX 9 12 2 0
BITMAP
FF80
FF80
C000
C000
C000
FF00
FF00
C000
C000
C000
FF80
FF80
ENDCHAR
STARTCHAR 1D08
ENCODING 7432
SWIDTH 541 0
DWIDTH 13 0
BBX 9 12 2 0
BITMAP
FE00
FF00
8380
0180
0380
7F00
7E00
0380
0180
8380
FF80
7E00
ENDCHAR
STARTCHAR 1D09
ENCODING 7433
SWIDTH 541 0
DWIDTH 13 0
BBX 10 17 2 -5
BITMAP
FFC0
FFC0
0C00
0C00
0C00
0C00
0C00
0C00
0C00
0C00
0FC0
0FC0
0000
0000
0E00
0E00
0E00
ENDCHAR
STARTCHAR 1D0A
ENCODING 7434
SWIDTH 541 0
DWIDTH 13 0
BBX 7 12 3 0
BITMAP
FE
FE
06
06
06
06
06
06
06
8E
FC
78
ENDCHAR
STARTCHAR 1D0B
ENCODING 7435
SWIDTH 541 0
DWIDTH 13 0
BBX 10 12 2 0
BITMAP
C180
C300
C600
CC00
D800
F000
D800
CC00
CE00
C700
C380
C1C0
ENDCHAR
STARTCHAR 1D0C
ENCODING 7436
SWIDTH 541 0
DWIDTH 13 0
BBX 10 12 1 0
BITMAP
3000
3000
3100
3700
3E00
7800
F000
B000
3000
3000
3FC0
3FC0
ENDCHAR
STARTCHAR 1D0D
ENCODING 7437
SWIDTH 541 0
DWIDTH 13 0
BBX 11 12 1 0
BITMAP
E0E0
E0E0
F1E0
F1E0
DB60
9B60
8A60
8E60
8C60
8060
8060
8060
ENDCHAR
STARTCHAR 1D0E
ENCODING 7438
SWIDTH 541 0
DWIDTH 13 0
BBX 9 12 2 0
BITMAP
C180
C380
C380
C780
CD80
CD80
D980
D980
F180
E180
E180
C180
ENDCHAR
STARTCHAR 1D0F
ENCODING 7439
SWIDTH 541 0
DWIDTH 13 0
BBX 11 12 1 0
BITMAP
1F00
3F80
71C0
E0E0
C060
C060
C060
C060
E0E0
71C0
3F80
1F00
ENDCHAR
STARTCHAR 1D10
ENCODING 7440
SWIDTH 541 0
DWIDTH 13 0
BBX 10 12 1 0
BITMAP
7E00
FF00
8380
01C0
00C0
00C0
00C0
00C0
01C0
8380
FF00
7E00
ENDCHAR
STARTCHAR 1D11
ENCODING 7441
SWIDTH 541 0
DWIDTH 13 0
BBX 12 12 1 0
BITMAP
1F80
3FC0
70E0
E060
C030
C030
C030
C030
E070
70E0
3FC0
1F80
ENDCHAR
STARTCHAR 1D12
ENCODING 7442
SWIDTH 541 0
DWIDTH 13 0
BBX 12 10 1 1
BITMAP
1F80
3FC0
70E0
E070
C030
C030
C030
C030
C030
E070
ENDCHAR
STARTCHAR 1D13
ENCODING 7443
SWIDTH 541 0
DWIDTH 13 0
BBX 15 11 -1 0
BITMAP
07C0
1FE0
D830
F818
3E18
33D8
30F8
303E
1836
1FF0
07C0
ENDCHAR
STARTCHAR 1D14
ENCODING 7444
SWIDTH 541 0
DWIDTH 13 0
BBX 13 12 0 0
BITMAP
F9E0
FFF0
0F38
0618
0618
FE18
FE18
C618
C618
EF30
7FF0
39E0
ENDCHAR
STARTCHAR 1D15
ENCODING 7445
SWIDTH 541 0
DWIDTH 13 0
BBX 9 12 2 0
BITMAP
C180
C180
C180
7300
3E00
7E00
E300
C180
C180
E380
7F00
3E00
ENDCHAR
STARTCHAR 1D16
ENCODING 7446
SWIDTH 541 0
DWIDTH 13 0
BBX 11 6 1 6
BITMAP
1F00
3F80
61C0
E0E0
C060
C060
ENDCHAR
STARTCHAR 1D17
ENCODING 7447
SWIDTH 541 0
DWIDTH 13 0
BBX 11 6 1 0
BITMAP
C060
C060
C0E0
61C0
3F80
1F00
ENDCHAR
STARTCHAR 1D18
ENCODING 7448
SWIDTH 541 0
DWIDTH 13 0
BBX 9 12 2 0
BITMAP
FE00
FF00
C380
C180
C180
C380
FF00
FE00
C000
C000
C000
C000
ENDCHAR
STARTCHAR 1D19
ENCODING 7449
SWIDTH 541 0
DWIDTH 13 0
BBX 10 12 1 0
BITMAP
1FC0
7FC0
60C0
60C0
70C0
3FC0
1FC0
18C0
30C0
70C0
60C0
E0C0
ENDCHAR
STARTCHAR 1D1A
ENCODING 7450
SWIDTH 541 0
DWIDTH 13 0
BBX 10 12 1 0
BITMAP
E0C0
60C0
70C0
30C0
38C0
1FC0
3FC0
70C0
60C0
60C0
7FC0
1FC0
ENDCHAR
STARTCHAR 1D1B
ENCODING 7451
SWIDTH 541 0
DWIDTH 13 0
BBX 10 12 2 0
BITMAP
FFC0
FFC0
0C00
0C00
0C00
0C00
0C00
0C00
0C00
0C00
0C00
0C00
ENDCHAR
STARTCHAR 1D1C
ENCODING 7452
SWIDTH 541 0
DWIDTH 13 0
BBX 9 12 2 0
BITMAP
C180
C180
C180
C180
C180
C180
C180
C180
C180
E380
7F00
3E00
ENDCHAR
STARTCHAR 1D1D
ENCODING 7453
SWIDTH 541 0
DWIDTH 13 0
BBX 12 10 1 1
BITMAP
FFF0
FFF0
00C0
0060
0030
0030
0030
0070
FFE0
FFC0
ENDCHAR
STARTCHAR 1D1E
ENCODING 7454
SWIDTH 541 0
DWIDTH 13 0
BBX 12 10 1 1
BITMAP
0FF0
EFF0
E0C0
E060
0030
0030
E030
E070
EFE0
0FC0
ENDCHAR
STARTCHAR 1D1F
ENCODING 7455
SWIDTH 541 0
DWIDTH 13 0
BBX 12 11 1 0
BITMAP
FFF0
FFF0
0040
0030
FFF0
FFE0
00C0
0030
0030
FFF0
FFE0
ENDCHAR
STARTCHAR 1D20
ENCODING 7456
SWIDTH 541 0
DWIDTH 13 0
BBX 11 12 1 0
BITMAP
C060
C060
E0C0
60C0
70C0
3180
3180
3B00
1B00
1B00
0E00
0E00
ENDCHAR
STARTCHAR 1D21
ENCODING 7457
SWIDTH 541 0
DWIDTH 13 0
BBX 11 12 1 0
BITMAP
C060
C060
C060
C460
CE60
CE60
CA60
5B40
7B40
71C0
71C0
71C0
ENDCHAR
STARTCHAR 1D22
ENCODING 7458
SWIDTH 541 0
DWIDTH 13 0
BBX 9 12 2 0
BITMAP
FF80
FF80
0100
0300
0600
0C00
1800
3000
6000
4000
FF80
FF80
ENDCHAR
STARTCHAR 1D23
ENCODING 7459
SWIDTH 541 0
DWIDTH 13 0
BBX 10 12 2 0
BITMAP
FF80
FF80
0700
1C00
3E00
3F80
01C0
00C0
00C0
01C0
FF80
FE00
ENDCHAR
STARTCHAR 1D24
ENCODING 7460
SWIDTH 541 0
DWIDTH 13 0
BBX 9 12 2 0
BITMAP
7E00
7F80
0180
0180
0700
0E00
3800
6000
C000
C000
FF80
3F80
ENDCHAR
STARTCHAR 1D25
ENCODING 7461
SWIDTH 541 0
DWIDTH 13 0
BBX 12 12 1 0
BITMAP
0F00
1F80
3FC0
3FC0
3FC0
3FC0
1F80
0F00
0F00
1FC0
F9F0
E070
ENDCHAR
STARTCHAR 1D26
ENCODING 7462
SWIDTH 541 0
DWIDTH 13 0
BBX 8 12 3 0
BITMAP
FF
FF
C0
C0
C0
C0
C0
C0
C0
C0
C0
C0
ENDCHAR
STARTCHAR 1D27
ENCODING 7463
SWIDTH 541 0
DWIDTH 13 0
BBX 11 12 1 0
BITMAP
0E00
0E00
1B00
1B00
1B80
3180
3180
60C0
60C0
E0E0
C060
C060
ENDCHAR
STARTCHAR 1D28
ENCODING 7464
SWIDTH 541 0
DWIDTH 13 0
BBX 9 12 2 0
BITMAP
FF80
FF80
C180
C180
C180
C180
C180
C180
C180
C180
C180
C180
ENDCHAR
STARTCHAR 1D29
ENCODING 7465
SWIDTH 541 0
DWIDTH 13 0
BBX 9 12 2 0
BITMAP
FE00
FF00
C380
C180
C180
C380
FF00
FE00
C000
C000
C000
C000
ENDCHAR
STARTCHAR 1D2A
ENCODING 7466
SWIDTH 541 0
DWIDTH 13 0
BBX 12 12 1 0
BITMAP
C630
C630
C630
C630
C630
E670
7FE0
3F80
0600
0600
0600
0600
ENDCHAR
STARTCHAR 1D2B
ENCODING 7467
SWIDTH 541 0
DWIDTH 13 0
BBX 8 12 3 0
BITMAP
1F
1F
1F
1F
1F
1F
1F
3B
3B
3B
F3
E3
ENDCHAR
STARTCHAR 1D2C
ENCODING 7468
SWIDTH 541 0
DWIDTH 13 0
BBX 9 10 2 8
BITMAP
1C00
1400
3600
3600
3600
6300
6300
7F00
E380
C180
ENDCHAR
STARTCHAR 1D2D
ENCODING 7469
SWIDTH 541 0
DWIDTH 13 0
BBX 9 10 2 8
BITMAP
0F80
1E00
1E00
1600
3780
3600
6600
7E00
4600
C780
ENDCHAR
STARTCHAR 1D2E
ENCODING 7470
SWIDTH 541 0
DWIDTH 13 0
BBX 7 10 3 8
BITMAP
FC
C6
C6
C6
F8
C6
C6
C6
C6
FC
ENDCHAR
STARTCHAR 1D2F
ENCODING 7471
SWIDTH 541 0
DWIDTH 13 0
BBX 8 10 3 8
BITMAP
7E
63
63
63
FC
63
63
63
63
7E
ENDCHAR
STARTCHAR 1D30
ENCODING 7472
SWIDTH 541 0
DWIDTH 13 0
BBX 8 10 3 8
BITMAP
FC
C6
C3
C3
C3
C3
C3
C3
C6
FC
ENDCHAR
STARTCHAR 1D31
ENCODING 7473
SWIDTH 541 0
DWIDTH 13 0
BBX 6 10 4 8
BITMAP
FC
C0
C0
C0
FC
C0
C0
C0
C0
FC
ENDCHAR
STARTCHAR 1D32
ENCODING 7474
SWIDTH 541 0
DWIDTH 13 0
BBX 6 10 4 8
BITMAP
FC
0C
0C
0C
FC
0C
0C
0C
0C
FC
ENDCHAR
STARTCHAR 1D33
ENCODING 7475
SWIDTH 541 0
DWIDTH 13 0
BBX 8 10 3 8
BITMAP
1F
70
60
C0
C0
CF
C3
C3
63
3F
ENDCHAR
STARTCHAR 1D34
ENCODING 7476
SWIDTH 541 0
DWIDTH 13 0
BBX 8 10 3 8
BITMAP
C3
C3
C3
C3
FF
C3
C3
C3
C3
C3
ENDCHAR
STARTCHAR 1D35
ENCODING 7477
SWIDTH 541 0
DWIDTH 13 0
BBX 6 10 4 8
BITMAP
FC
30
30
30
30
30
30
30
30
FC
ENDCHAR
STARTCHAR 1D36
ENCODING 7478
SWIDTH 541 0
DWIDTH 13 0
BBX 6 10 3 8
BITMAP
FC
0C
0C
0C
0C
0C
0C
0C
1C
F0
ENDCHAR
STARTCHAR 1D37
ENCODING 7479
SWIDTH 541 0
DWIDTH 13 0
BBX 7 10 3 8
BITMAP
C4
CC
D8
D0
F0
F0
D8
C8
CC
C6
ENDCHAR
STARTCHAR 1D38
ENCODING 7480
SWIDTH 541 0
DWIDTH 13 0
BBX 6 10 4 8
BITMAP
C0
C0
C0
C0
C0
C0
C0
C0
C0
FC
ENDCHAR
STARTCHAR 1D39
ENCODING 7481
SWIDTH 541 0
DWIDTH 13 0
BBX 9 10 2 8
BITMAP
E180
E380
E380
F780
D580
DD80
C980
C180
C180
C180
ENDCHAR
STARTCHAR 1D3A
ENCODING 7482
SWIDTH 541 0
DWIDTH 13 0
BBX 7 10 3 8
BITMAP
C6
C6
E6
E6
D6
D6
D6
CE
C6
C6
ENDCHAR
STARTCHAR 1D3B
ENCODING 7483
SWIDTH 541 0
DWIDTH 13 0
BBX 8 10 3 8
BITMAP
C3
C3
C7
CB
CB
D3
D3
E3
C3
C3
ENDCHAR
STARTCHAR 1D3C
ENCODING 7484
SWIDTH 541 0
DWIDTH 13 0
BBX 9 10 3 8
BITMAP
3E00
6300
C180
C180
C180
C180
C180
C180
6300
3E00
ENDCHAR
STARTCHAR 1D3D
ENCODING 7485
SWIDTH 541 0
DWIDTH 13 0
BBX 8 10 3 8
BITMAP
C3
C3
C3
66
18
66
C3
C3
C3
7E
ENDCHAR
STARTCHAR 1D3E
ENCODING 7486
SWIDTH 541 0
DWIDTH 13 0
BBX 7 10 3 8
BITMAP
FC
C6
C6
C6
CE
FC
C0
C0
C0
C0
ENDCHAR
STARTCHAR 1D3F
ENCODING 7487
SWIDTH 541 0
DWIDTH 13 0
BBX 8 10 3 8
BITMAP
FC
C6
C6
C6
FC
CC
CC
C6
C6
C3
ENDCHAR
STARTCHAR 1D40
ENCODING 7488
SWIDTH 541 0
DWIDTH 13 0
BBX 8 10 3 8
BITMAP
FF
18
18
18
18
18
18
18
18
18
ENDCHAR
STARTCHAR 1D41
ENCODING 7489
SWIDTH 541 0
DWIDTH 13 0
BBX 8 10 3 8
BITMAP
C3
C3
C3
C3
C3
C3
C3
C3
E6
3C
ENDCHAR
STARTCHAR 1D42
ENCODING 7490
SWIDTH 541 0
DWIDTH 13 0
BBX 8 10 2 8
BITMAP
C3
C3
C3
D3
DB
DB
DB
6B
66
66
ENDCHAR
STARTCHAR 1D43
ENCODING 7491
SWIDTH 541 0
DWIDTH 13 0
BBX 7 8 3 8
BITMAP
7C
06
06
7E
C6
C6
CE
76
ENDCHAR
STARTCHAR 1D44
ENCODING 7492
SWIDTH 541 0
DWIDTH 13 0
BBX 7 8 3 8
BITMAP
DC
E6
C6
C6
FC
C0
C0
7C
ENDCHAR
STARTCHAR 1D45
ENCODING 7493
SWIDTH 541 0
DWIDTH 13 0
BBX 7 8 3 8
BITMAP
3E
66
C6
C6
C6
C6
CE
76
ENDCHAR
STARTCHAR 1D46
ENCODING 7494
SWIDTH 541 0
DWIDTH 13 0
BBX 8 8 3 8
BITMAP
F6
19
09
09
FE
88
88
76
ENDCHAR
STARTCHAR 1D47
ENCODING 7495
SWIDTH 541 0
DWIDTH 13 0
BBX 7 11 3 8
BITMAP
C0
C0
C0
DC
E6
C6
C6
C6
C6
CC
F8
ENDCHAR
STARTCHAR 1D48
ENCODING 7496
SWIDTH 541 0
DWIDTH 13 0
BBX 7 11 3 8
BITMAP
06
06
06
3E
66
C6
C6
C6
C6
CE
76
ENDCHAR
STARTCHAR 1D49
ENCODING 7497
SWIDTH 541 0
DWIDTH 13 0
BBX 8 8 3 8
BITMAP
3C
63
C3
FF
C0
C0
60
3F
ENDCHAR
STARTCHAR 1D4A
ENCODING 7498
SWIDTH 541 0
DWIDTH 13 0
BBX 7 8 3 8
BITMAP
F8
0C
06
FE
C6
C6
4C
38
ENDCHAR
STARTCHAR 1D4B
ENCODING 7499
SWIDTH 541 0
DWIDTH 13 0
BBX 7 8 4 8
BITMAP
7E
C0
C0
3C
C0
C0
C0
7E
ENDCHAR
STARTCHAR 1D4C
ENCODING 7500
SWIDTH 541 0
DWIDTH 13 0
BBX 7 8 4 8
BITMAP
FC
06
06
06
7C
06
06
FC
ENDCHAR
STARTCHAR 1D4D
ENCODING 7501
SWIDTH 541 0
DWIDTH 13 0
BBX 8 11 3 5
BITMAP
7F
C6
C6
C6
FC
C0
7E
C3
C3
C3
7E
ENDCHAR
STARTCHAR 1D4E
ENCODING 7502
SWIDTH 541 0
DWIDTH 13 0
BBX 7 11 4 5
BITMAP
FE
30
30
30
30
30
30
3C
00
30
30
ENDCHAR
STARTCHAR 1D4F
ENCODING 7503
SWIDTH 541 0
DWIDTH 13 0
BBX 7 11 4 8
BITMAP
C0
C0
C0
C6
CC
D8
F0
D0
D8
CC
C6
ENDCHAR
STARTCHAR 1D50
ENCODING 7504
SWIDTH 541 0
DWIDTH 13 0
BBX 8 8 3 8
BITMAP
DA
FF
DB
DB
DB
DB
DB
DB
ENDCHAR
STARTCHAR 1D51
ENCODING 7505
SWIDTH 541 0
DWIDTH 13 0
BBX 7 11 3 5
BITMAP
DC
E6
C6
C6
C6
C6
C6
C6
06
06
1C
ENDCHAR
STARTCHAR 1D52
ENCODING 7506
SWIDTH 541 0
DWIDTH 13 0
BBX 8 8 3 8
BITMAP
3C
66
C3
C3
C3
C3
66
3C
ENDCHAR
STARTCHAR 1D53
ENCODING 7507
SWIDTH 541 0
DWIDTH 13 0
BBX 7 8 3 8
BITMAP
F8
0C
06
06
06
06
0C
F8
ENDCHAR
STARTCHAR 1D54
ENCODING 7508
SWIDTH 541 0
DWIDTH 13 0
BBX 7 4 3 12
BITMAP
38
7C
C6
C6
ENDCHAR
STARTCHAR 1D55
ENCODING 7509
SWIDTH 541 0
DWIDTH 13 0
BBX 7 4 3 8
BITMAP
C6
C6
7C
38
ENDCHAR
STARTCHAR 1D56
ENCODING 7510
SWIDTH 541 0
DWIDTH 13 0
BBX 7 11 3 5
BITMAP
DC
E6
C6
C6
C6
C6
CC
F8
C0
C0
C0
ENDCHAR
STARTCHAR 1D57
ENCODING 7511
SWIDTH 541 0
DWIDTH 13 0
BBX 7 10 2 8
BITMAP
30
30
FE
30
30
30
30
30
30
1E
ENDCHAR
STARTCHAR 1D58
ENCODING 7512
SWIDTH 541 0
DWIDTH 13 0
BBX 7 8 3 8
BITMAP
C6
C6
C6
C6
C6
C6
CE
76
ENDCHAR
STARTCHAR 1D59
ENCODING 7513
SWIDTH 541 0
DWIDTH 13 0
BBX 7 6 3 9
BITMAP
FE
FE
04
02
FE
FC
ENDCHAR
STARTCHAR 1D5A
ENCODING 7514
SWIDTH 541 0
DWIDTH 13 0
BBX 8 8 3 8
BITMAP
DB
DB
DB
DB
DB
DB
DB
6F
ENDCHAR
STARTCHAR 1D5B
ENCODING 7515
SWIDTH 541 0
DWIDTH 13 0
BBX 7 8 3 8
BITMAP
82
C6
C6
44
6C
28
28
38
ENDCHAR
STARTCHAR 1D5C
ENCODING 7516
SWIDTH 541 0
DWIDTH 13 0
BBX 7 7 3 8
BITMAP
38
7C
7C
7C
38
38
C6
ENDCHAR
STARTCHAR 1D5D
ENCODING 7517
SWIDTH 541 0
DWIDTH 13 0
BBX 7 14 3 5
BITMAP
78
CC
CC
CC
C8
F8
CC
C6
C6
C6
FC
C0
C0
C0
ENDCHAR
STARTCHAR 1D5E
ENCODING 7518
SWIDTH 541 0
DWIDTH 13 0
BBX 7 11 3 5
BITMAP
C6
66
66
36
34
34
1C
18
18
18
18
ENDCHAR
STARTCHAR 1D5F
ENCODING 7519
SWIDTH 541 0
DWIDTH 13 0
BBX 7 11 3 8
BITMAP
3C
30
38
3C
6C
C6
C6
C6
C6
64
38
ENDCHAR
STARTCHAR 1D60
ENCODING 7520
SWIDTH 541 0
DWIDTH 13 0
BBX 8 14 3 5
BITMAP
18
18
18
DB
DB
DB
DB
DB
DB
DA
7C
18
18
18
ENDCHAR
STARTCHAR 1D61
ENCODING 7521
SWIDTH 541 0
DWIDTH 13 0
BBX 8 11 3 5
BITMAP
C3
66
36
3C
18
18
38
2C
64
46
C3
ENDCHAR
STARTCHAR 1D62
ENCODING 7522
SWIDTH 541 0
DWIDTH 13 0
BBX 7 10 3 -3
BITMAP
18
18
00
F8
18
18
18
18
18
FE
ENDCHAR
STARTCHAR 1D63
ENCODING 7523
SWIDTH 541 0
DWIDTH 13 0
BBX 6 7 4 -3
BITMAP
D8
EC
CC
C0
C0
C0
C0
ENDCHAR
STARTCHAR 1D64
ENCODING 7524
SWIDTH 541 0
DWIDTH 13 0
BBX 7 8 3 -3
BITMAP
C6
C6
C6
C6
C6
C6
CE
76
ENDCHAR
STARTCHAR 1D65
ENCODING 7525
SWIDTH 541 0
DWIDTH 13 0
BBX 7 8 3 -3
BITMAP
82
C6
C6
44
6C
28
28
38
ENDCHAR
STARTCHAR 1D66
ENCODING 7526
SWIDTH 541 0
DWIDTH 13 0
BBX 7 14 3 -6
BITMAP
78
CC
CC
CC
C8
F8
CC
C6
C6
C6
FC
C0
C0
C0
ENDCHAR
STARTCHAR 1D67
ENCODING 7527
SWIDTH 541 0
DWIDTH 13 0
BBX 7 11 3 -6
BITMAP
C6
66
66
36
34
34
1C
18
18
18
18
ENDCHAR
STARTCHAR 1D68
ENCODING 7528
SWIDTH 541 0
DWIDTH 13 0
BBX 7 10 3 -6
BITMAP
3C
C6
C6
C6
C6
CE
FC
C0
C0
C0
ENDCHAR
STARTCHAR 1D69
ENCODING 7529
SWIDTH 541 0
DWIDTH 13 0
BBX 8 14 3 -6
BITMAP
18
18
18
DB
DB
DB
DB
DB
DB
DA
7C
18
18
18
ENDCHAR
STARTCHAR 1D6A
ENCODING 7530
SWIDTH 541 0
DWIDTH 13 0
BBX 8 11 3 -6
BITMAP
C3
66
36
3C
18
18
38
2C
64
46
C3
ENDCHAR
STARTCHAR 1D6B
ENCODING 7531
SWIDTH 541 0
DWIDTH 13 0
BBX 12 12 1 0
BITMAP
C6C0
C7E0
C730
C630
C630
C7F0
C7F0
C600
C600
CF00
FFE0
79E0
ENDCHAR
STARTCHAR 1D6C
ENCODING 7532
SWIDTH 541 0
DWIDTH 13 0
BBX 14 17 -2 0
BITMAP
0C00
7D00
FF80
4F00
0C00
0CF0
0FF8
0F18
0E0C
0C0C
0C0C
0C0C
0C0C
0C1C
0C38
0FF0
07E0
ENDCHAR
STARTCHAR 1D6D
ENCODING 7533
SWIDTH 541 0
DWIDTH 13 0
BBX 14 17 1 0
BITMAP
00C0
03C8
07FC
02F8
00C0
1FC0
3FC0
70C0
E0C0
C0C0
C0C0
C0C0
C0C0
C1C0
63C0
7EC0
3CC0
ENDCHAR
ENDFONT
